LINESeedJP-Thin.glyphspackage
{
glyphname = exclam;
layers = (
{
hints = (
{
horizontal = 1;
place = (-24, 73);
place = (-24, 73);
type = Stem;
},
{
horizontal = 1;
place = (761, -20);
target = down;
type = TopGhost;
},
{
place = (88, 32);
place = (88, 32);
type = Stem;
},
{
place = (65, 74);
place = (65, 74);
type = Stem;
}
);
layerId = m01;
shapes = (
{
closed = 1;
nodes = (
(88,197,ls),
(88,191,o),
(91,189,o),
(96,189,cs),
(109,189,ls),
(114,189,o),
(117,191,o),
(117,197,cs),
(120,753,ls),
(120,759,o),
(117,761,o),
(112,761,cs),
(93,761,ls),
(88,761,o),
(84,759,o),
(84,753,cs)
);
},
{
closed = 1;
nodes = (
(123,-24,o),
(139,-9,o),
(139,13,cs),
(139,34,o),
(123,49,o),
(102,49,cs),
(81,49,o),
(65,34,o),
(65,13,cs),
(65,-9,o),
(81,-24,o),
(102,-24,cs)
);
}
);
vertWidth = 1000;
width = 205;
}
);
note = cid00002;
unicode = 33;
}
{
glyphname = quotedbl;
layers = (
{
hints = (
{
horizontal = 1;
place = (761, -20);
target = down;
type = TopGhost;
},
{
place = (90, 29);
place = (90, 29);
type = Stem;
},
{
place = (218, 30);
place = (218, 30);
type = Stem;
},
{
horizontal = 1;
place = (567, 194);
place = (567, 194);
type = Stem;
}
);
layerId = m01;
shapes = (
{
closed = 1;
nodes = (
(90,574,ls),
(90,570,o),
(92,567,o),
(96,567,cs),
(109,567,ls),
(113,567,o),
(115,570,o),
(115,574,cs),
(119,755,ls),
(119,759,o),
(117,761,o),
(113,761,cs),
(92,761,ls),
(88,761,o),
(85,759,o),
(85,755,cs)
);
},
{
closed = 1;
nodes = (
(218,574,ls),
(218,570,o),
(220,567,o),
(225,567,cs),
(237,567,ls),
(242,567,o),
(244,570,o),
(244,574,cs),
(248,755,ls),
(248,759,o),
(246,761,o),
(242,761,cs),
(220,761,ls),
(216,761,o),
(214,759,o),
(214,755,cs)
);
}
);
vertWidth = 1000;
width = 333;
}
);
note = cid00003;
unicode = 34;
}
{
glyphname = numbersign;
layers = (
{
hints = (
{
horizontal = 1;
place = (-13, 21);
target = up;
type = BottomGhost;
},
{
horizontal = 1;
place = (212, 31);
place = (212, 31);
type = Stem;
},
{
horizontal = 1;
place = (505, 32);
place = (505, 32);
type = Stem;
},
{
horizontal = 1;
place = (761, -20);
target = down;
type = TopGhost;
},
{
place = (69, 652);
place = (69, 652);
type = Stem;
}
);
layerId = m01;
shapes = (
{
closed = 1;
nodes = (
(206,212,l),
(153,-4,ls),
(152,-9,o),
(155,-13,o),
(160,-13,cs),
(174,-13,ls),
(178,-13,o),
(183,-10,o),
(184,-6,cs),
(237,212,l),
(471,212,l),
(418,-4,ls),
(417,-9,o),
(420,-13,o),
(425,-13,cs),
(439,-13,ls),
(443,-13,o),
(447,-10,o),
(448,-6,cs),
(502,212,l),
(634,212,ls),
(638,212,o),
(642,215,o),
(644,219,c),
(648,234,ls),
(649,240,o),
(646,243,o),
(640,243,cs),
(511,243,l),
(575,505,l),
(707,505,ls),
(711,505,o),
(715,508,o),
(716,512,cs),
(721,527,l),
(722,533,o),
(718,537,o),
(713,537,cs),
(582,537,l),
(636,752,ls),
(637,757,o),
(634,761,o),
(629,761,cs),
(614,761,ls),
(610,761,o),
(606,758,o),
(605,754,cs),
(551,537,l),
(318,537,l),
(371,752,ls),
(372,757,o),
(369,761,o),
(364,761,cs),
(349,761,ls),
(345,761,o),
(341,758,o),
(340,754,cs),
(286,537,l),
(155,537,ls),
(151,537,o),
(147,533,o),
(146,529,cs),
(141,515,l),
(140,508,o),
(143,505,o),
(149,505,cs),
(279,505,l),
(214,243,l),
(82,243,ls),
(78,243,o),
(74,240,o),
(73,236,cs),
(69,221,ls),
(68,215,o),
(71,212,o),
(76,212,cs)
);
},
{
closed = 1;
nodes = (
(543,505,l),
(479,243,l),
(246,243,l),
(310,505,l)
);
}
);
vertWidth = 1000;
width = 789;
}
);
note = cid00004;
unicode = 35;
}
{
glyphname = dollar;
layers = (
{
hints = (
{
horizontal = 1;
place = (20, 33);
place = (20, 33);
type = Stem;
},
{
horizontal = 1;
place = (689, 34);
place = (689, 34);
type = Stem;
},
{
place = (83, 36);
place = (83, 36);
type = Stem;
},
{
place = (290, 33);
place = (290, 33);
type = Stem;
},
{
place = (494, 36);
place = (494, 36);
type = Stem;
},
{
horizontal = 1;
place = (688, 34);
place = (688, 34);
type = Stem;
},
{
horizontal = 1;
place = (20, 35);
place = (20, 35);
type = Stem;
}
);
layerId = m01;
shapes = (
{
closed = 1;
nodes = (
(290,375,l),
(290,53,l),
(187,57,o),
(117,100,o),
(82,205,c),
(81,211,o),
(78,214,o),
(72,212,cs),
(56,206,ls),
(51,204,o),
(49,201,o),
(50,196,cs),
(87,81,o),
(166,24,o),
(290,20,c),
(290,-67,ls),
(290,-72,o),
(293,-75,o),
(299,-75,cs),
(314,-75,ls),
(320,-75,o),
(323,-72,o),
(323,-67,cs),
(323,20,l),
(444,26,o),
(530,97,o),
(530,196,cs),
(530,291,o),
(467,359,o),
(338,395,cs),
(323,400,l),
(323,688,l),
(413,681,o),
(471,640,o),
(497,555,c),
(498,549,o),
(502,547,o),
(507,548,c),
(523,554,ls),
(529,556,o),
(531,559,o),
(530,564,cs),
(503,661,o),
(430,716,o),
(323,722,c),
(323,810,ls),
(323,815,o),
(320,818,o),
(314,818,cs),
(299,818,ls),
(293,818,o),
(290,815,o),
(290,810,cs),
(290,723,l),
(169,720,o),
(83,653,o),
(83,557,cs),
(83,478,o),
(145,414,o),
(263,383,cs)
);
},
{
closed = 1;
nodes = (
(290,409,l),
(273,413,ls),
(171,442,o),
(119,490,o),
(119,557,cs),
(119,632,o),
(189,685,o),
(290,689,c)
);
},
{
closed = 1;
nodes = (
(323,367,l),
(326,366,ls),
(436,336,o),
(494,280,o),
(494,195,cs),
(494,116,o),
(426,60,o),
(323,55,c)
);
}
);
vertWidth = 1000;
width = 590;
}
);
note = cid00005;
unicode = 36;
}
{
glyphname = percent;
layers = (
{
hints = (
{
horizontal = 1;
place = (-24, 32);
place = (-24, 32);
type = Stem;
},
{
horizontal = 1;
place = (327, 31);
place = (327, 31);
type = Stem;
},
{
horizontal = 1;
place = (390, 32);
place = (390, 32);
type = Stem;
},
{
horizontal = 1;
place = (740, 32);
place = (740, 32);
type = Stem;
},
{
place = (39, 33);
place = (39, 33);
type = Stem;
},
{
place = (340, 32);
place = (340, 32);
type = Stem;
},
{
place = (556, 33);
place = (556, 33);
type = Stem;
},
{
place = (857, 32);
place = (857, 32);
type = Stem;
},
{
horizontal = 1;
place = (-13, 21);
target = up;
type = BottomGhost;
},
{
horizontal = 1;
place = (761, -20);
target = down;
type = TopGhost;
}
);
layerId = m01;
shapes = (
{
closed = 1;
nodes = (
(207,-2,l),
(204,-8,o),
(206,-13,o),
(212,-13,cs),
(230,-13,ls),
(234,-13,o),
(236,-12,o),
(239,-8,cs),
(722,751,ls),
(725,756,o),
(723,761,o),
(716,761,cs),
(698,761,ls),
(693,761,o),
(692,760,o),
(689,756,cs)
);
},
{
closed = 1;
nodes = (
(826,-24,o),
(889,60,o),
(889,199,cs),
(889,338,o),
(826,422,o),
(723,422,cs),
(619,422,o),
(556,338,o),
(556,199,cs),
(556,60,o),
(619,-24,o),
(723,-24,cs)
);
},
{
closed = 1;
nodes = (
(309,327,o),
(372,410,o),
(372,549,cs),
(372,689,o),
(309,772,o),
(206,772,cs),
(102,772,o),
(39,689,o),
(39,549,cs),
(39,410,o),
(102,327,o),
(206,327,cs)
);
},
{
closed = 1;
nodes = (
(637,8,o),
(589,77,o),
(589,199,cs),
(589,321,o),
(637,390,o),
(723,390,cs),
(808,390,o),
(857,321,o),
(857,199,cs),
(857,77,o),
(808,8,o),
(723,8,cs)
);
},
{
closed = 1;
nodes = (
(120,358,o),
(72,427,o),
(72,549,cs),
(72,672,o),
(120,740,o),
(206,740,cs),
(291,740,o),
(340,672,o),
(340,549,cs),
(340,427,o),
(291,358,o),
(206,358,cs)
);
}
);
vertWidth = 1000;
width = 928;
}
);
note = cid00006;
unicode = 37;
}
{
glyphname = ampersand;
layers = (
{
hints = (
{
horizontal = 1;
place = (-17, 21);
target = up;
type = BottomGhost;
},
{
horizontal = 1;
place = (741, 32);
place = (741, 32);
type = Stem;
},
{
place = (54, 31);
place = (54, 31);
type = Stem;
},
{
place = (132, 31);
place = (132, 31);
type = Stem;
},
{
horizontal = 1;
place = (-23, 31);
place = (-23, 31);
type = Stem;
}
);
layerId = m01;
shapes = (
{
closed = 1;
nodes = (
(671,-4,ls),
(675,1,o),
(675,5,o),
(670,9,cs),
(556,116,l),
(592,162,o),
(621,211,o),
(653,272,cs),
(655,277,o),
(654,281,o),
(649,284,cs),
(637,291,ls),
(632,294,o),
(628,293,o),
(625,288,cs),
(595,228,o),
(566,181,o),
(533,139,c),
(418,248,o),
(313,350,o),
(243,423,cs),
(186,483,o),
(163,540,o),
(163,588,cs),
(163,679,o),
(242,741,o),
(322,741,cs),
(372,741,o),
(422,717,o),
(455,660,cs),
(457,657,o),
(459,655,o),
(462,655,cs),
(464,655,o),
(466,656,o),
(467,657,cs),
(480,666,ls),
(483,668,o),
(485,670,o),
(485,673,cs),
(485,675,o),
(484,677,o),
(483,678,c),
(444,745,o),
(384,773,o),
(325,773,cs),
(228,773,o),
(132,698,o),
(132,590,cs),
(132,542,o),
(151,488,o),
(195,431,c),
(101,376,o),
(54,290,o),
(54,206,cs),
(54,73,o),
(162,-23,o),
(294,-23,cs),
(390,-23,o),
(473,23,o),
(537,91,c),
(648,-14,ls),
(652,-18,o),
(657,-18,o),
(661,-14,cs)
);
},
{
closed = 1;
nodes = (
(85,283,o),
(127,357,o),
(216,406,c),
(314,308,o),
(413,210,o),
(513,113,c),
(459,51,o),
(382,8,o),
(298,8,cs),
(182,8,o),
(85,91,o),
(85,208,cs)
);
}
);
vertWidth = 1000;
width = 715;
}
);
note = cid00007;
unicode = 38;
}
{
glyphname = quotesingle;
layers = (
{
hints = (
{
horizontal = 1;
place = (761, -20);
target = down;
type = TopGhost;
},
{
place = (90, 29);
place = (90, 29);
type = Stem;
}
);
layerId = m01;
shapes = (
{
closed = 1;
nodes = (
(90,574,ls),
(90,570,o),
(92,567,o),
(96,567,cs),
(109,567,ls),
(113,567,o),
(115,570,o),
(115,574,cs),
(119,755,ls),
(119,759,o),
(117,761,o),
(113,761,cs),
(92,761,ls),
(88,761,o),
(85,759,o),
(85,755,cs)
);
}
);
vertWidth = 1000;
width = 205;
}
);
note = cid00008;
unicode = 39;
}
{
glyphname = parenleft;
layers = (
{
hints = (
{
horizontal = 1;
place = (-171, 31);
place = (-171, 31);
type = Stem;
},
{
horizontal = 1;
place = (789, 31);
place = (789, 31);
type = Stem;
},
{
place = (61, 35);
place = (61, 35);
type = Stem;
}
);
layerId = m01;
shapes = (
{
closed = 1;
nodes = (
(350,-171,o),
(353,-168,o),
(353,-163,cs),
(353,-148,ls),
(353,-143,o),
(350,-140,o),
(345,-140,cs),
(179,-131,o),
(96,11,o),
(96,325,cs),
(96,638,o),
(179,780,o),
(345,789,cs),
(350,789,o),
(353,792,o),
(353,797,cs),
(353,812,ls),
(353,817,o),
(350,820,o),
(345,820,cs),
(160,810,o),
(61,653,o),
(61,325,cs),
(61,-4,o),
(160,-161,o),
(345,-171,cs)
);
}
);
vertWidth = 1000;
width = 375;
}
);
note = cid00009;
unicode = 40;
}
{
glyphname = parenright;
layers = (
{
hints = (
{
horizontal = 1;
place = (-171, 31);
place = (-171, 31);
type = Stem;
},
{
horizontal = 1;
place = (789, 31);
place = (789, 31);
type = Stem;
},
{
place = (279, 34);
place = (279, 34);
type = Stem;
}
);
layerId = m01;
shapes = (
{
closed = 1;
nodes = (
(21,-163,ls),
(21,-168,o),
(24,-171,o),
(30,-171,cs),
(214,-161,o),
(313,-4,o),
(313,325,cs),
(313,653,o),
(214,810,o),
(30,820,cs),
(24,820,o),
(21,817,o),
(21,812,cs),
(21,797,ls),
(21,792,o),
(24,789,o),
(30,789,cs),
(195,780,o),
(279,638,o),
(279,325,cs),
(279,11,o),
(195,-131,o),
(30,-140,cs),
(24,-140,o),
(21,-143,o),
(21,-148,cs)
);
}
);
vertWidth = 1000;
width = 375;
}
);
note = cid00010;
unicode = 41;
}
{
glyphname = asterisk;
layers = (
{
hints = (
{
horizontal = 1;
place = (761, -20);
target = down;
type = TopGhost;
},
{
place = (226, 27);
place = (226, 27);
type = Stem;
}
);
layerId = m01;
shapes = (
{
closed = 1;
nodes = (
(209,554,l),
(98,414,ls),
(95,410,o),
(95,406,o),
(99,403,cs),
(107,397,ls),
(111,394,o),
(115,394,o),
(118,398,cs),
(239,535,l),
(361,398,ls),
(364,394,o),
(368,394,o),
(372,397,cs),
(380,403,ls),
(384,406,o),
(384,410,o),
(381,414,cs),
(270,554,l),
(420,641,ls),
(424,643,o),
(425,648,o),
(423,653,c),
(418,661,ls),
(416,665,o),
(411,667,o),
(406,664,cs),
(256,586,l),
(253,753,ls),
(253,759,o),
(250,761,o),
(245,761,cs),
(234,761,ls),
(229,761,o),
(226,759,o),
(226,753,cs),
(222,586,l),
(73,664,ls),
(68,667,o),
(63,665,o),
(61,661,cs),
(56,653,l),
(54,648,o),
(55,644,o),
(59,641,c)
);
}
);
vertWidth = 1000;
width = 479;
}
);
note = cid00011;
unicode = 42;
}
{
glyphname = plus;
layers = (
{
hints = (
{
horizontal = 1;
place = (315, 32);
place = (315, 32);
type = Stem;
},
{
place = (300, 33);
place = (300, 33);
type = Stem;
}
);
layerId = m01;
shapes = (
{
closed = 1;
nodes = (
(300,315,l),
(300,98,ls),
(300,94,o),
(304,89,o),
(308,89,cs),
(325,89,ls),
(329,89,o),
(333,94,o),
(333,98,cs),
(333,315,l),
(549,315,ls),
(553,315,o),
(557,319,o),
(557,324,cs),
(557,338,ls),
(557,343,o),
(553,347,o),
(549,347,cs),
(333,347,l),
(333,564,ls),
(333,568,o),
(329,573,o),
(325,573,cs),
(308,573,ls),
(304,573,o),
(300,568,o),
(300,564,cs),
(300,347,l),
(84,347,ls),
(80,347,o),
(76,343,o),
(76,338,cs),
(76,324,ls),
(76,319,o),
(80,315,o),
(84,315,cs)
);
}
);
vertWidth = 1000;
width = 633;
}
);
note = cid00012;
unicode = 43;
}
{
glyphname = comma;
layers = (
{
hints = (
{
horizontal = 1;
place = (-22, 21);
target = up;
type = BottomGhost;
},
{
place = (65, 74);
place = (65, 74);
type = Stem;
}
);
layerId = m01;
shapes = (
{
closed = 1;
nodes = (
(53,-156,ls),
(51,-163,o),
(54,-164,o),
(58,-164,cs),
(69,-164,ls),
(72,-164,o),
(74,-164,o),
(76,-159,cs),
(126,-43,ls),
(135,-22,o),
(139,-6,o),
(139,13,cs),
(139,34,o),
(123,49,o),
(102,49,cs),
(82,49,o),
(65,34,o),
(65,13,cs),
(65,-6,o),
(77,-19,o),
(93,-22,c)
);
}
);
vertWidth = 1000;
width = 205;
}
);
note = cid00013;
unicode = 44;
}
{
glyphname = period;
layers = (
{
hints = (
{
horizontal = 1;
place = (-24, 73);
place = (-24, 73);
type = Stem;
},
{
place = (65, 74);
place = (65, 74);
type = Stem;
}
);
layerId = m01;
shapes = (
{
closed = 1;
nodes = (
(123,-24,o),
(139,-9,o),
(139,13,cs),
(139,34,o),
(123,49,o),
(102,49,cs),
(81,49,o),
(65,34,o),
(65,13,cs),
(65,-9,o),
(81,-24,o),
(102,-24,cs)
);
}
);
vertWidth = 1000;
width = 205;
}
);
note = cid00015;
unicode = 46;
}
{
glyphname = slash;
layers = (
{
hints = (
{
horizontal = 1;
place = (-129, 907);
place = (-129, 907);
type = Stem;
},
{
place = (55, 272);
place = (55, 272);
type = Stem;
}
);
layerId = m01;
shapes = (
{
closed = 1;
nodes = (
(55,-120,ls),
(54,-126,o),
(57,-129,o),
(62,-129,cs),
(79,-129,ls),
(83,-129,o),
(88,-126,o),
(89,-122,cs),
(327,769,ls),
(328,775,o),
(325,778,o),
(320,778,cs),
(303,778,ls),
(299,778,o),
(294,775,o),
(293,771,cs)
);
}
);
vertWidth = 1000;
width = 382;
}
);
note = cid00016;
unicode = 47;
}
{
glyphname = zero;
layers = (
{
hints = (
{
horizontal = 1;
place = (-28, 34);
place = (-28, 34);
type = Stem;
},
{
horizontal = 1;
place = (742, 34);
place = (742, 34);
type = Stem;
},
{
place = (63, 35);
place = (63, 35);
type = Stem;
},
{
place = (575, 35);
place = (575, 35);
type = Stem;
}
);
layerId = m01;
shapes = (
{
closed = 1;
nodes = (
(509,-28,o),
(610,122,o),
(610,374,cs),
(610,626,o),
(509,776,o),
(337,776,cs),
(165,776,o),
(63,626,o),
(63,374,cs),
(63,122,o),
(165,-28,o),
(337,-28,cs)
);
},
{
closed = 1;
nodes = (
(184,6,o),
(98,138,o),
(98,374,cs),
(98,611,o),
(184,742,o),
(337,742,cs),
(490,742,o),
(575,611,o),
(575,374,cs),
(575,138,o),
(490,6,o),
(337,6,cs)
);
}
);
vertWidth = 1000;
width = 673;
}
);
note = cid00017;
unicode = 48;
}
{
glyphname = one;
layers = (
{
hints = (
{
horizontal = 1;
place = (-13, 21);
target = up;
type = BottomGhost;
},
{
horizontal = 1;
place = (761, -20);
target = down;
type = TopGhost;
},
{
place = (235, 34);
place = (235, 34);
type = Stem;
}
);
layerId = m01;
shapes = (
{
closed = 1;
nodes = (
(65,589,l),
(70,584,o),
(73,584,o),
(77,587,cs),
(235,703,l),
(235,-5,ls),
(235,-10,o),
(238,-13,o),
(244,-13,cs),
(261,-13,ls),
(266,-13,o),
(269,-10,o),
(269,-5,cs),
(269,753,ls),
(269,758,o),
(266,761,o),
(261,761,cs),
(250,761,ls),
(246,761,o),
(243,759,o),
(239,757,c),
(61,609,ls),
(56,605,o),
(56,602,o),
(59,598,cs)
);
}
);
vertWidth = 1000;
width = 394;
}
);
note = cid00018;
unicode = 49;
}
{
glyphname = two;
layers = (
{
hints = (
{
horizontal = 1;
place = (-13, 33);
place = (-13, 33);
type = Stem;
},
{
horizontal = 1;
place = (742, 34);
place = (742, 34);
type = Stem;
},
{
place = (482, 35);
place = (482, 35);
type = Stem;
}
);
layerId = m01;
shapes = (
{
closed = 1;
nodes = (
(122,20,l),
(279,185,ls),
(495,413,o),
(517,491,o),
(517,584,cs),
(517,700,o),
(428,776,o),
(302,776,cs),
(184,776,o),
(98,715,o),
(63,605,cs),
(61,600,o),
(64,596,o),
(70,595,cs),
(87,590,ls),
(92,589,o),
(96,592,o),
(97,596,cs),
(129,691,o),
(200,742,o),
(302,742,cs),
(407,742,o),
(482,684,o),
(482,584,cs),
(482,494,o),
(457,425,o),
(256,210,cs),
(72,10,ls),
(69,7,o),
(68,4,o),
(68,0,cs),
(68,-5,ls),
(68,-10,o),
(71,-13,o),
(76,-13,cs),
(546,-13,ls),
(552,-13,o),
(555,-10,o),
(555,-5,cs),
(555,11,ls),
(555,17,o),
(552,20,o),
(546,20,cs)
);
}
);
vertWidth = 1000;
width = 629;
}
);
note = cid00019;
unicode = 50;
}
{
glyphname = three;
layers = (
{
hints = (
{
horizontal = 1;
place = (-28, 34);
place = (-28, 34);
type = Stem;
},
{
horizontal = 1;
place = (397, 16);
place = (397, 16);
type = Stem;
},
{
horizontal = 1;
place = (742, 34);
place = (742, 34);
type = Stem;
},
{
place = (522, 35);
place = (522, 35);
type = Stem;
},
{
place = (507, 35);
place = (507, 35);
type = Stem;
},
{
horizontal = 1;
place = (381, 32);
place = (381, 32);
type = Stem;
}
);
layerId = m01;
shapes = (
{
closed = 1;
nodes = (
(488,422,o),
(542,494,o),
(542,578,cs),
(542,692,o),
(442,776,o),
(308,776,cs),
(189,776,o),
(95,707,o),
(68,606,c),
(66,601,o),
(66,598,o),
(73,596,cs),
(90,590,ls),
(95,588,o),
(99,592,o),
(100,597,cs),
(126,684,o),
(204,742,o),
(308,742,cs),
(423,742,o),
(507,673,o),
(507,578,cs),
(507,487,o),
(431,413,o),
(325,413,cs),
(269,413,ls),
(264,413,o),
(261,410,o),
(261,405,cs),
(261,389,ls),
(261,384,o),
(264,381,o),
(269,381,cs),
(320,381,ls),
(443,381,o),
(522,306,o),
(522,198,cs),
(522,91,o),
(433,6,o),
(309,6,cs),
(206,6,o),
(118,63,o),
(83,193,cs),
(82,198,o),
(78,199,o),
(73,198,cs),
(58,194,ls),
(54,193,o),
(52,191,o),
(53,184,cs),
(81,43,o),
(192,-28,o),
(309,-28,cs),
(456,-28,o),
(557,78,o),
(557,198,cs),
(557,298,o),
(498,372,o),
(397,397,c)
);
}
);
vertWidth = 1000;
width = 620;
}
);
note = cid00020;
unicode = 51;
}
{
glyphname = four;
layers = (
{
hints = (
{
horizontal = 1;
place = (-13, 21);
target = up;
type = BottomGhost;
},
{
horizontal = 1;
place = (177, 33);
place = (177, 33);
type = Stem;
},
{
horizontal = 1;
place = (761, -20);
target = down;
type = TopGhost;
},
{
place = (474, 33);
place = (474, 33);
type = Stem;
}
);
layerId = m01;
shapes = (
{
closed = 1;
nodes = (
(474,177,l),
(474,-5,ls),
(474,-10,o),
(477,-13,o),
(482,-13,cs),
(499,-13,ls),
(504,-13,o),
(507,-10,o),
(507,-5,cs),
(507,177,l),
(621,177,ls),
(627,177,o),
(630,180,o),
(630,185,cs),
(630,201,ls),
(630,206,o),
(627,210,o),
(621,210,cs),
(507,210,l),
(507,753,ls),
(507,758,o),
(504,761,o),
(499,761,cs),
(484,761,ls),
(480,761,o),
(477,760,o),
(474,756,cs),
(56,203,ls),
(54,200,o),
(53,197,o),
(53,193,cs),
(53,185,ls),
(53,180,o),
(56,177,o),
(61,177,cs)
);
},
{
closed = 1;
nodes = (
(474,702,l),
(474,210,l),
(101,210,l)
);
}
);
vertWidth = 1000;
width = 687;
}
);
note = cid00021;
unicode = 52;
}
{
glyphname = five;
layers = (
{
hints = (
{
horizontal = 1;
place = (-28, 34);
place = (-28, 34);
type = Stem;
},
{
horizontal = 1;
place = (447, 34);
place = (447, 34);
type = Stem;
},
{
horizontal = 1;
place = (729, 32);
place = (729, 32);
type = Stem;
},
{
place = (525, 35);
place = (525, 35);
type = Stem;
}
);
layerId = m01;
shapes = (
{
closed = 1;
nodes = (
(154,729,l),
(518,729,ls),
(523,729,o),
(526,732,o),
(526,737,cs),
(526,753,ls),
(526,758,o),
(523,761,o),
(518,761,cs),
(133,761,ls),
(128,761,o),
(123,758,o),
(123,753,cs),
(87,354,ls),
(87,350,o),
(89,347,o),
(93,345,cs),
(97,343,ls),
(102,340,o),
(106,343,o),
(109,346,c),
(159,411,o),
(234,447,o),
(320,447,cs),
(446,447,o),
(525,363,o),
(525,228,cs),
(525,89,o),
(438,6,o),
(318,6,cs),
(214,6,o),
(127,63,o),
(92,193,cs),
(91,198,o),
(89,200,o),
(81,198,cs),
(66,194,ls),
(60,192,o),
(60,189,o),
(61,183,cs),
(90,46,o),
(198,-28,o),
(318,-28,cs),
(461,-28,o),
(560,76,o),
(560,228,cs),
(560,381,o),
(465,481,o),
(320,481,cs),
(241,481,o),
(171,452,o),
(123,405,c)
);
}
);
vertWidth = 1000;
width = 613;
}
);
note = cid00022;
unicode = 53;
}
{
glyphname = six;
layers = (
{
hints = (
{
horizontal = 1;
place = (-28, 34);
place = (-28, 34);
type = Stem;
},
{
horizontal = 1;
place = (447, 34);
place = (447, 34);
type = Stem;
},
{
horizontal = 1;
place = (761, -20);
target = down;
type = TopGhost;
},
{
place = (53, 35);
place = (53, 35);
type = Stem;
},
{
place = (516, 35);
place = (516, 35);
type = Stem;
}
);
layerId = m01;
shapes = (
{
closed = 1;
nodes = (
(385,751,ls),
(389,757,o),
(386,761,o),
(380,761,cs),
(360,761,ls),
(356,761,o),
(351,759,o),
(349,756,cs),
(176,519,ls),
(83,391,o),
(53,319,o),
(53,226,cs),
(53,74,o),
(152,-28,o),
(302,-28,cs),
(452,-28,o),
(551,74,o),
(551,226,cs),
(551,379,o),
(452,481,o),
(302,481,cs),
(237,481,o),
(185,460,o),
(146,423,c)
);
},
{
closed = 1;
nodes = (
(170,6,o),
(88,90,o),
(88,226,cs),
(88,364,o),
(170,447,o),
(302,447,cs),
(434,447,o),
(516,364,o),
(516,226,cs),
(516,90,o),
(434,6,o),
(302,6,cs)
);
}
);
vertWidth = 1000;
width = 599;
}
);
note = cid00023;
unicode = 54;
}
{
glyphname = seven;
layers = (
{
hints = (
{
horizontal = 1;
place = (-13, 21);
target = up;
type = BottomGhost;
},
{
horizontal = 1;
place = (729, 32);
place = (729, 32);
type = Stem;
},
{
place = (53, 498);
place = (53, 498);
type = Stem;
}
);
layerId = m01;
shapes = (
{
closed = 1;
nodes = (
(510,729,l),
(187,-4,ls),
(185,-10,o),
(187,-13,o),
(193,-13,cs),
(212,-13,ls),
(216,-13,o),
(220,-12,o),
(223,-7,c),
(549,737,ls),
(550,740,o),
(551,744,o),
(551,748,cs),
(551,753,ls),
(551,758,o),
(548,761,o),
(542,761,cs),
(61,761,ls),
(56,761,o),
(53,758,o),
(53,753,cs),
(53,737,ls),
(53,732,o),
(56,729,o),
(61,729,cs)
);
}
);
vertWidth = 1000;
width = 610;
}
);
note = cid00024;
unicode = 55;
}
{
glyphname = eight;
layers = (
{
hints = (
{
horizontal = 1;
place = (-28, 34);
place = (-28, 34);
type = Stem;
},
{
horizontal = 1;
place = (379, 34);
place = (379, 34);
type = Stem;
},
{
horizontal = 1;
place = (742, 34);
place = (742, 34);
type = Stem;
},
{
place = (84, 35);
place = (84, 35);
type = Stem;
},
{
place = (550, 34);
place = (550, 34);
type = Stem;
},
{
place = (58, 35);
place = (58, 35);
type = Stem;
},
{
place = (524, 35);
place = (524, 35);
type = Stem;
}
);
layerId = m01;
shapes = (
{
closed = 1;
nodes = (
(127,372,o),
(58,295,o),
(58,195,cs),
(58,63,o),
(171,-28,o),
(322,-28,cs),
(472,-28,o),
(584,64,o),
(584,195,cs),
(584,294,o),
(516,372,o),
(413,397,c),
(501,422,o),
(559,492,o),
(559,578,cs),
(559,692,o),
(458,776,o),
(322,776,cs),
(186,776,o),
(84,692,o),
(84,578,cs),
(84,492,o),
(142,422,o),
(230,397,c)
);
},
{
closed = 1;
nodes = (
(119,673,o),
(204,742,o),
(322,742,cs),
(440,742,o),
(524,673,o),
(524,578,cs),
(524,482,o),
(440,413,o),
(322,413,cs),
(204,413,o),
(119,482,o),
(119,578,cs)
);
},
{
closed = 1;
nodes = (
(93,302,o),
(190,379,o),
(322,379,cs),
(454,379,o),
(550,302,o),
(550,194,cs),
(550,85,o),
(454,6,o),
(322,6,cs),
(189,6,o),
(93,85,o),
(93,194,cs)
);
}
);
vertWidth = 1000;
width = 642;
}
);
note = cid00025;
unicode = 56;
}
{
glyphname = nine;
layers = (
{
hints = (
{
horizontal = 1;
place = (-13, 21);
target = up;
type = BottomGhost;
},
{
horizontal = 1;
place = (268, 33);
place = (268, 33);
type = Stem;
},
{
horizontal = 1;
place = (742, 34);
place = (742, 34);
type = Stem;
},
{
place = (49, 34);
place = (49, 34);
type = Stem;
},
{
place = (512, 34);
place = (512, 34);
type = Stem;
}
);
layerId = m01;
shapes = (
{
closed = 1;
nodes = (
(204,-2,ls),
(199,-9,o),
(203,-13,o),
(209,-13,cs),
(229,-13,ls),
(233,-13,o),
(237,-11,o),
(239,-8,cs),
(420,230,ls),
(516,355,o),
(546,429,o),
(546,522,cs),
(546,675,o),
(447,776,o),
(298,776,cs),
(148,776,o),
(49,675,o),
(49,522,cs),
(49,369,o),
(148,268,o),
(298,268,cs),
(359,268,o),
(409,287,o),
(448,320,c)
);
},
{
closed = 1;
nodes = (
(166,301,o),
(83,385,o),
(83,522,cs),
(83,658,o),
(166,742,o),
(298,742,cs),
(429,742,o),
(512,658,o),
(512,522,cs),
(512,385,o),
(429,301,o),
(298,301,cs)
);
}
);
vertWidth = 1000;
width = 599;
}
);
note = cid00026;
unicode = 57;
}
{
glyphname = colon;
layers = (
{
hints = (
{
horizontal = 1;
place = (-24, 73);
place = (-24, 73);
type = Stem;
},
{
horizontal = 1;
place = (440, 72);
place = (440, 72);
type = Stem;
},
{
place = (65, 74);
place = (65, 74);
type = Stem;
}
);
layerId = m01;
shapes = (
{
closed = 1;
nodes = (
(123,440,o),
(139,454,o),
(139,477,cs),
(139,498,o),
(123,512,o),
(102,512,cs),
(81,512,o),
(65,498,o),
(65,477,cs),
(65,454,o),
(81,440,o),
(102,440,cs)
);
},
{
closed = 1;
nodes = (
(123,-24,o),
(139,-9,o),
(139,13,cs),
(139,34,o),
(123,49,o),
(102,49,cs),
(81,49,o),
(65,34,o),
(65,13,cs),
(65,-9,o),
(81,-24,o),
(102,-24,cs)
);
}
);
vertWidth = 1000;
width = 205;
}
);
note = cid00027;
unicode = 58;
}
{
glyphname = semicolon;
layers = (
{
hints = (
{
horizontal = 1;
place = (-22, 21);
target = up;
type = BottomGhost;
},
{
horizontal = 1;
place = (440, 72);
place = (440, 72);
type = Stem;
},
{
place = (65, 74);
place = (65, 74);
type = Stem;
}
);
layerId = m01;
shapes = (
{
closed = 1;
nodes = (
(123,440,o),
(139,454,o),
(139,477,cs),
(139,498,o),
(123,512,o),
(102,512,cs),
(81,512,o),
(65,498,o),
(65,477,cs),
(65,454,o),
(81,440,o),
(102,440,cs)
);
},
{
closed = 1;
nodes = (
(53,-156,ls),
(51,-163,o),
(54,-164,o),
(58,-164,cs),
(69,-164,ls),
(72,-164,o),
(74,-164,o),
(76,-159,cs),
(126,-43,ls),
(134,-22,o),
(139,-6,o),
(139,13,cs),
(139,34,o),
(123,49,o),
(102,49,cs),
(82,49,o),
(65,34,o),
(65,13,cs),
(65,-6,o),
(77,-19,o),
(93,-22,c)
);
}
);
vertWidth = 1000;
width = 205;
}
);
note = cid00028;
unicode = 59;
}
{
glyphname = less;
layers = (
{
hints = (
{
horizontal = 1;
place = (101, 460);
place = (101, 460);
type = Stem;
},
{
place = (93, 436);
place = (93, 436);
type = Stem;
}
);
layerId = m01;
shapes = (
{
closed = 1;
nodes = (
(131,332,l),
(522,528,ls),
(526,530,o),
(529,533,o),
(529,538,cs),
(529,554,ls),
(529,560,o),
(524,563,o),
(519,560,cs),
(99,347,ls),
(95,345,o),
(93,341,o),
(93,337,cs),
(93,325,ls),
(93,320,o),
(95,317,o),
(99,315,cs),
(519,102,ls),
(524,99,o),
(529,102,o),
(529,108,cs),
(529,125,ls),
(529,129,o),
(526,133,o),
(522,135,cs)
);
}
);
vertWidth = 1000;
width = 633;
}
);
note = cid00029;
unicode = 60;
}
{
glyphname = equal;
layers = (
{
hints = (
{
horizontal = 1;
place = (187, 32);
place = (187, 32);
type = Stem;
},
{
horizontal = 1;
place = (459, 31);
place = (459, 31);
type = Stem;
},
{
place = (76, 481);
place = (76, 481);
type = Stem;
}
);
layerId = m01;
shapes = (
{
closed = 1;
nodes = (
(76,467,ls),
(76,463,o),
(80,459,o),
(84,459,cs),
(549,459,ls),
(553,459,o),
(557,463,o),
(557,467,cs),
(557,482,ls),
(557,486,o),
(553,490,o),
(549,490,cs),
(84,490,ls),
(80,490,o),
(76,486,o),
(76,482,cs)
);
},
{
closed = 1;
nodes = (
(549,187,ls),
(553,187,o),
(557,192,o),
(557,196,cs),
(557,211,ls),
(557,215,o),
(553,219,o),
(549,219,cs),
(84,219,ls),
(80,219,o),
(76,215,o),
(76,211,cs),
(76,196,ls),
(76,192,o),
(80,187,o),
(84,187,cs)
);
}
);
vertWidth = 1000;
width = 633;
}
);
note = cid00030;
unicode = 61;
}
{
glyphname = greater;
layers = (
{
hints = (
{
horizontal = 1;
place = (101, 460);
place = (101, 460);
type = Stem;
},
{
place = (104, 436);
place = (104, 436);
type = Stem;
}
);
layerId = m01;
shapes = (
{
closed = 1;
nodes = (
(502,331,l),
(111,134,ls),
(107,132,o),
(104,128,o),
(104,124,cs),
(104,108,ls),
(104,102,o),
(109,99,o),
(114,102,cs),
(534,315,ls),
(538,317,o),
(540,320,o),
(540,325,cs),
(540,337,ls),
(540,341,o),
(538,345,o),
(534,347,cs),
(114,560,ls),
(109,563,o),
(104,560,o),
(104,554,cs),
(104,537,ls),
(104,532,o),
(107,529,o),
(111,527,cs)
);
}
);
vertWidth = 1000;
width = 633;
}
);
note = cid00031;
unicode = 62;
}
{
glyphname = question;
layers = (
{
hints = (
{
horizontal = 1;
place = (-24, 73);
place = (-24, 73);
type = Stem;
},
{
horizontal = 1;
place = (346, 30);
place = (346, 30);
type = Stem;
},
{
horizontal = 1;
place = (742, 34);
place = (742, 34);
type = Stem;
},
{
place = (217, 30);
place = (217, 30);
type = Stem;
},
{
place = (462, 35);
place = (462, 35);
type = Stem;
},
{
place = (195, 74);
place = (195, 74);
type = Stem;
}
);
layerId = m01;
shapes = (
{
closed = 1;
nodes = (
(248,346,l),
(269,346,ls),
(409,346,o),
(497,443,o),
(497,574,cs),
(497,685,o),
(410,776,o),
(280,776,cs),
(164,776,o),
(79,711,o),
(42,595,cs),
(41,590,o),
(42,586,o),
(47,584,cs),
(62,579,ls),
(68,577,o),
(72,579,o),
(74,584,cs),
(110,691,o),
(178,742,o),
(280,742,cs),
(394,742,o),
(462,669,o),
(462,574,cs),
(462,458,o),
(392,376,o),
(271,376,cs),
(225,376,ls),
(219,376,o),
(216,374,o),
(216,368,cs),
(217,124,ls),
(217,118,o),
(220,116,o),
(226,116,cs),
(238,116,ls),
(244,116,o),
(247,118,o),
(247,124,cs)
);
},
{
closed = 1;
nodes = (
(253,-24,o),
(269,-9,o),
(269,13,cs),
(269,34,o),
(253,49,o),
(232,49,cs),
(211,49,o),
(195,34,o),
(195,13,cs),
(195,-9,o),
(211,-24,o),
(232,-24,cs)
);
}
);
vertWidth = 1000;
width = 548;
}
);
note = cid00032;
unicode = 63;
}
{
glyphname = at;
layers = (
{
hints = (
{
horizontal = 1;
place = (-204, 32);
place = (-204, 32);
type = Stem;
},
{
horizontal = 1;
place = (-24, 32);
place = (-24, 32);
type = Stem;
},
{
horizontal = 1;
place = (428, 32);
place = (428, 32);
type = Stem;
},
{
horizontal = 1;
place = (619, 32);
place = (619, 32);
type = Stem;
},
{
place = (63, 33);
place = (63, 33);
type = Stem;
},
{
place = (249, 33);
place = (249, 33);
type = Stem;
},
{
place = (671, 25);
place = (671, 25);
type = Stem;
},
{
place = (887, 33);
place = (887, 33);
type = Stem;
},
{
place = (664, 32);
place = (664, 32);
type = Stem;
},
{
horizontal = 1;
place = (-25, 32);
place = (-25, 32);
type = Stem;
},
{
place = (670, 26);
place = (670, 26);
type = Stem;
}
);
layerId = m01;
shapes = (
{
closed = 1;
nodes = (
(667,340,l),
(638,411,o),
(561,460,o),
(478,460,cs),
(342,460,o),
(249,362,o),
(249,218,cs),
(249,75,o),
(342,-24,o),
(478,-24,cs),
(558,-24,o),
(633,23,o),
(664,89,c),
(664,14,o),
(698,-25,o),
(763,-25,cs),
(858,-25,o),
(920,85,o),
(920,224,cs),
(920,483,o),
(762,651,o),
(498,651,cs),
(232,651,o),
(63,482,o),
(63,223,cs),
(63,-35,o),
(227,-204,o),
(493,-204,cs),
(507,-204,o),
(593,-204,o),
(593,-186,cs),
(593,-171,ls),
(593,-166,o),
(591,-163,o),
(583,-164,cs),
(554,-169,o),
(526,-172,o),
(493,-172,cs),
(264,-172,o),
(96,-37,o),
(96,223,cs),
(96,484,o),
(269,619,o),
(498,619,cs),
(724,619,o),
(887,484,o),
(887,223,cs),
(887,103,o),
(839,7,o),
(763,7,cs),
(716,7,o),
(696,32,o),
(696,95,cs),
(696,442,ls),
(696,447,o),
(693,450,o),
(688,450,cs),
(679,450,ls),
(674,450,o),
(671,448,o),
(671,442,cs)
);
},
{
closed = 1;
nodes = (
(360,8,o),
(282,91,o),
(282,218,cs),
(282,345,o),
(360,428,o),
(476,428,cs),
(592,428,o),
(670,345,o),
(670,218,cs),
(670,91,o),
(592,8,o),
(476,8,cs)
);
}
);
vertWidth = 1000;
width = 983;
}
);
note = cid00033;
unicode = 64;
}
{
glyphname = A;
kernLeft = A;
kernRight = A;
layers = (
{
hints = (
{
horizontal = 1;
place = (-13, 21);
target = up;
type = BottomGhost;
},
{
horizontal = 1;
place = (220, 33);
place = (220, 33);
type = Stem;
},
{
horizontal = 1;
place = (730, 31);
place = (730, 31);
type = Stem;
},
{
place = (32, 661);
place = (32, 661);
type = Stem;
}
);
layerId = m01;
shapes = (
{
closed = 1;
nodes = (
(157,220,l),
(567,220,l),
(657,-7,ls),
(659,-12,o),
(664,-13,o),
(668,-13,cs),
(686,-13,ls),
(692,-13,o),
(694,-9,o),
(692,-4,cs),
(386,755,ls),
(384,760,o),
(380,761,o),
(376,761,cs),
(349,761,ls),
(345,761,o),
(341,760,o),
(339,755,cs),
(33,-4,ls),
(31,-9,o),
(33,-13,o),
(39,-13,cs),
(55,-13,ls),
(59,-13,o),
(63,-12,o),
(65,-7,cs)
);
},
{
closed = 1;
nodes = (
(362,730,l),
(553,253,l),
(170,253,l)
);
}
);
vertWidth = 1000;
width = 725;
}
);
note = cid00034;
unicode = 65;
}
{
glyphname = E;
layers = (
{
hints = (
{
horizontal = 1;
place = (-13, 33);
place = (-13, 33);
type = Stem;
},
{
horizontal = 1;
place = (373, 33);
place = (373, 33);
type = Stem;
},
{
horizontal = 1;
place = (729, 32);
place = (729, 32);
type = Stem;
},
{
place = (106, 33);
place = (106, 33);
type = Stem;
}
);
layerId = m01;
shapes = (
{
closed = 1;
nodes = (
(139,20,l),
(139,373,l),
(524,373,ls),
(530,373,o),
(533,376,o),
(533,382,cs),
(533,397,ls),
(533,403,o),
(530,406,o),
(524,406,cs),
(139,406,l),
(139,729,l),
(558,729,ls),
(563,729,o),
(567,732,o),
(567,737,cs),
(567,753,ls),
(567,758,o),
(563,761,o),
(558,761,cs),
(114,761,ls),
(109,761,o),
(106,758,o),
(106,753,cs),
(106,-5,ls),
(106,-10,o),
(109,-13,o),
(114,-13,cs),
(570,-13,ls),
(575,-13,o),
(578,-10,o),
(578,-5,cs),
(578,11,ls),
(578,17,o),
(575,20,o),
(570,20,cs)
);
}
);
vertWidth = 1000;
width = 620;
}
);
note = cid00038;
unicode = 69;
}
{
glyphname = F;
kernRight = F;
layers = (
{
hints = (
{
horizontal = 1;
place = (-13, 21);
target = up;
type = BottomGhost;
},
{
horizontal = 1;
place = (363, 32);
place = (363, 32);
type = Stem;
},
{
horizontal = 1;
place = (729, 32);
place = (729, 32);
type = Stem;
},
{
place = (106, 33);
place = (106, 33);
type = Stem;
}
);
layerId = m01;
shapes = (
{
closed = 1;
nodes = (
(139,363,l),
(503,363,ls),
(509,363,o),
(512,366,o),
(512,371,cs),
(512,387,ls),
(512,392,o),
(509,395,o),
(503,395,cs),
(139,395,l),
(139,729,l),
(546,729,ls),
(552,729,o),
(555,732,o),
(555,737,cs),
(555,753,ls),
(555,758,o),
(552,761,o),
(546,761,cs),
(114,761,ls),
(109,761,o),
(106,758,o),
(106,753,cs),
(106,-5,ls),
(106,-10,o),
(109,-13,o),
(114,-13,cs),
(131,-13,ls),
(136,-13,o),
(139,-10,o),
(139,-5,cs)
);
}
);
vertWidth = 1000;
width = 595;
}
);
note = cid00039;
unicode = 70;
}
{
glyphname = G;
kernLeft = C;
kernRight = D;
layers = (
{
hints = (
{
horizontal = 1;
place = (-28, 34);
place = (-28, 34);
type = Stem;
},
{
horizontal = 1;
place = (331, 33);
place = (331, 33);
type = Stem;
},
{
horizontal = 1;
place = (742, 34);
place = (742, 34);
type = Stem;
},
{
place = (63, 35);
place = (63, 35);
type = Stem;
},
{
place = (725, 35);
place = (725, 35);
type = Stem;
}
);
layerId = m01;
shapes = (
{
closed = 1;
nodes = (
(725,331,l),
(725,309,ls),
(725,122,o),
(611,6,o),
(424,6,cs),
(213,6,o),
(98,163,o),
(98,374,cs),
(98,584,o),
(213,742,o),
(424,742,cs),
(565,742,o),
(652,679,o),
(703,563,cs),
(705,559,o),
(709,557,o),
(713,559,cs),
(730,565,ls),
(735,567,o),
(737,571,o),
(735,576,cs),
(683,702,o),
(577,776,o),
(424,776,cs),
(210,776,o),
(63,622,o),
(63,374,cs),
(63,126,o),
(210,-28,o),
(424,-28,cs),
(645,-28,o),
(760,118,o),
(760,311,cs),
(760,355,ls),
(760,360,o),
(756,364,o),
(751,364,cs),
(444,364,ls),
(439,364,o),
(436,360,o),
(436,355,cs),
(436,339,ls),
(436,334,o),
(439,331,o),
(444,331,cs)
);
}
);
vertWidth = 1000;
width = 823;
}
);
note = cid00040;
unicode = 71;
}
{
glyphname = H;
layers = (
{
hints = (
{
horizontal = 1;
place = (-13, 21);
target = up;
type = BottomGhost;
},
{
horizontal = 1;
place = (371, 33);
place = (371, 33);
type = Stem;
},
{
horizontal = 1;
place = (761, -20);
target = down;
type = TopGhost;
},
{
place = (106, 33);
place = (106, 33);
type = Stem;
},
{
place = (641, 34);
place = (641, 34);
type = Stem;
}
);
layerId = m01;
shapes = (
{
closed = 1;
nodes = (
(139,371,l),
(641,371,l),
(641,-5,ls),
(641,-10,o),
(645,-13,o),
(650,-13,cs),
(667,-13,ls),
(672,-13,o),
(675,-10,o),
(675,-5,cs),
(675,753,ls),
(675,758,o),
(672,761,o),
(667,761,cs),
(650,761,ls),
(645,761,o),
(641,758,o),
(641,753,cs),
(641,404,l),
(139,404,l),
(139,753,ls),
(139,758,o),
(136,761,o),
(131,761,cs),
(114,761,ls),
(109,761,o),
(106,758,o),
(106,753,cs),
(106,-5,ls),
(106,-10,o),
(109,-13,o),
(114,-13,cs),
(131,-13,ls),
(136,-13,o),
(139,-10,o),
(139,-5,cs)
);
}
);
vertWidth = 1000;
width = 781;
}
);
note = cid00041;
unicode = 72;
}
{
glyphname = I;
layers = (
{
hints = (
{
horizontal = 1;
place = (-13, 21);
target = up;
type = BottomGhost;
},
{
horizontal = 1;
place = (761, -20);
target = down;
type = TopGhost;
},
{
place = (106, 33);
place = (106, 33);
type = Stem;
}
);
layerId = m01;
shapes = (
{
closed = 1;
nodes = (
(106,-5,ls),
(106,-10,o),
(109,-13,o),
(114,-13,cs),
(131,-13,ls),
(136,-13,o),
(139,-10,o),
(139,-5,cs),
(139,753,ls),
(139,758,o),
(136,761,o),
(131,761,cs),
(114,761,ls),
(109,761,o),
(106,758,o),
(106,753,cs)
);
}
);
vertWidth = 1000;
width = 245;
}
);
note = cid00042;
unicode = 73;
}
{
glyphname = J;
kernLeft = J;
layers = (
{
hints = (
{
horizontal = 1;
place = (-28, 34);
place = (-28, 34);
type = Stem;
},
{
horizontal = 1;
place = (729, 32);
place = (729, 32);
type = Stem;
},
{
place = (353, 34);
place = (353, 34);
type = Stem;
}
);
layerId = m01;
shapes = (
{
closed = 1;
nodes = (
(353,729,l),
(353,225,ls),
(353,93,o),
(331,6,o),
(198,6,cs),
(121,6,o),
(75,45,o),
(49,122,c),
(46,128,o),
(44,130,o),
(38,128,cs),
(23,123,ls),
(18,121,o),
(15,119,o),
(17,113,cs),
(50,9,o),
(115,-28,o),
(198,-28,cs),
(334,-28,o),
(387,53,o),
(387,210,cs),
(387,753,ls),
(387,758,o),
(384,761,o),
(379,761,cs),
(119,761,ls),
(114,761,o),
(111,758,o),
(111,753,cs),
(111,737,ls),
(111,732,o),
(114,729,o),
(119,729,cs)
);
}
);
vertWidth = 1000;
width = 479;
}
);
note = cid00043;
unicode = 74;
}
{
glyphname = K;
kernRight = K;
layers = (
{
hints = (
{
horizontal = 1;
place = (-13, 21);
target = up;
type = BottomGhost;
},
{
horizontal = 1;
place = (761, -20);
target = down;
type = TopGhost;
},
{
place = (106, 33);
place = (106, 33);
type = Stem;
}
);
layerId = m01;
shapes = (
{
closed = 1;
nodes = (
(139,232,l),
(319,432,l),
(611,-8,l),
(613,-12,o),
(616,-13,o),
(620,-13,cs),
(642,-13,ls),
(649,-13,o),
(652,-8,o),
(649,-2,c),
(341,458,l),
(605,751,ls),
(609,756,o),
(608,761,o),
(600,761,cs),
(580,761,ls),
(576,761,o),
(573,760,o),
(570,757,cs),
(139,278,l),
(139,753,ls),
(139,758,o),
(136,761,o),
(131,761,cs),
(114,761,ls),
(109,761,o),
(106,758,o),
(106,753,cs),
(106,-5,ls),
(106,-10,o),
(109,-13,o),
(114,-13,cs),
(131,-13,ls),
(136,-13,o),
(139,-10,o),
(139,-5,cs)
);
}
);
vertWidth = 1000;
width = 702;
}
);
note = cid00044;
unicode = 75;
}
{
glyphname = L;
kernRight = L;
layers = (
{
hints = (
{
horizontal = 1;
place = (-13, 33);
place = (-13, 33);
type = Stem;
},
{
horizontal = 1;
place = (761, -20);
target = down;
type = TopGhost;
},
{
place = (106, 33);
place = (106, 33);
type = Stem;
}
);
layerId = m01;
shapes = (
{
closed = 1;
nodes = (
(139,20,l),
(139,753,ls),
(139,758,o),
(136,761,o),
(131,761,cs),
(114,761,ls),
(109,761,o),
(106,758,o),
(106,753,cs),
(106,-5,ls),
(106,-10,o),
(109,-13,o),
(114,-13,cs),
(577,-13,ls),
(582,-13,o),
(586,-10,o),
(586,-5,cs),
(586,11,ls),
(586,17,o),
(582,20,o),
(577,20,cs)
);
}
);
vertWidth = 1000;
width = 622;
}
);
note = cid00045;
unicode = 76;
}
{
glyphname = Q;
kernLeft = C;
kernRight = Q;
layers = (
{
hints = (
{
horizontal = 1;
place = (-13, 33);
place = (-13, 33);
type = Stem;
},
{
horizontal = 1;
place = (742, 34);
place = (742, 34);
type = Stem;
},
{
place = (63, 35);
place = (63, 35);
type = Stem;
},
{
place = (750, 35);
place = (750, 35);
type = Stem;
},
{
horizontal = 1;
place = (-13, 34);
place = (-13, 34);
type = Stem;
}
);
layerId = m01;
shapes = (
{
closed = 1;
nodes = (
(571,20,l),
(701,75,o),
(785,202,o),
(785,382,cs),
(785,622,o),
(638,776,o),
(424,776,cs),
(210,776,o),
(63,622,o),
(63,382,cs),
(63,139,o),
(209,-13,o),
(421,-13,cs),
(798,-13,ls),
(803,-13,o),
(806,-10,o),
(806,-5,cs),
(806,11,ls),
(806,17,o),
(803,20,o),
(798,20,cs)
);
},
{
closed = 1;
nodes = (
(213,21,o),
(98,175,o),
(98,382,cs),
(98,584,o),
(213,742,o),
(424,742,cs),
(635,742,o),
(750,585,o),
(750,382,cs),
(750,176,o),
(635,21,o),
(424,21,cs)
);
}
);
vertWidth = 1000;
width = 869;
}
);
note = cid00050;
unicode = 81;
}
{
glyphname = U;
kernLeft = U;
kernRight = U;
layers = (
{
hints = (
{
horizontal = 1;
place = (-28, 34);
place = (-28, 34);
type = Stem;
},
{
horizontal = 1;
place = (761, -20);
target = down;
type = TopGhost;
},
{
place = (92, 34);
place = (92, 34);
type = Stem;
},
{
place = (626, 33);
place = (626, 33);
type = Stem;
}
);
layerId = m01;
shapes = (
{
closed = 1;
nodes = (
(515,-28,o),
(659,57,o),
(659,302,cs),
(659,753,ls),
(659,758,o),
(656,761,o),
(651,761,cs),
(634,761,ls),
(629,761,o),
(626,758,o),
(626,753,cs),
(626,302,ls),
(626,90,o),
(511,6,o),
(376,6,cs),
(238,6,o),
(126,90,o),
(126,302,cs),
(126,753,ls),
(126,758,o),
(122,761,o),
(117,761,cs),
(100,761,ls),
(95,761,o),
(92,758,o),
(92,753,cs),
(92,302,ls),
(92,57,o),
(234,-28,o),
(376,-28,cs)
);
}
);
vertWidth = 1000;
width = 751;
}
);
note = cid00054;
unicode = 85;
}
{
glyphname = V;
kernLeft = V;
kernRight = V;
layers = (
{
hints = (
{
horizontal = 1;
place = (-13, 35);
place = (-13, 35);
type = Stem;
},
{
horizontal = 1;
place = (761, -20);
target = down;
type = TopGhost;
},
{
place = (32, 657);
place = (32, 657);
type = Stem;
}
);
layerId = m01;
shapes = (
{
closed = 1;
nodes = (
(361,22,l),
(68,755,l),
(65,760,o),
(61,761,o),
(57,761,cs),
(39,761,ls),
(33,761,o),
(31,757,o),
(33,752,cs),
(337,-7,ls),
(339,-12,o),
(343,-13,o),
(347,-13,cs),
(373,-13,ls),
(378,-13,o),
(382,-12,o),
(384,-7,cs),
(688,752,ls),
(690,757,o),
(688,761,o),
(682,761,cs),
(666,761,ls),
(661,761,o),
(657,760,o),
(655,755,cs)
);
}
);
vertWidth = 1000;
width = 721;
}
);
note = cid00055;
unicode = 86;
}
{
glyphname = W;
kernLeft = W;
kernRight = W;
layers = (
{
hints = (
{
horizontal = 1;
place = (-13, 21);
target = up;
type = BottomGhost;
},
{
horizontal = 1;
place = (761, -20);
target = down;
type = TopGhost;
},
{
place = (32, 1068);
place = (32, 1068);
type = Stem;
},
{
horizontal = 1;
place = (-13, 41);
place = (-13, 41);
type = Stem;
},
{
horizontal = 1;
place = (709, 52);
place = (709, 52);
type = Stem;
},
{
horizontal = 1;
place = (-13, 44);
place = (-13, 44);
type = Stem;
}
);
layerId = m01;
shapes = (
{
closed = 1;
nodes = (
(323,28,l),
(68,755,l),
(66,759,o),
(62,761,o),
(58,761,cs),
(40,761,ls),
(34,761,o),
(31,757,o),
(33,752,cs),
(300,-7,ls),
(301,-11,o),
(305,-13,o),
(309,-13,cs),
(335,-13,ls),
(340,-13,o),
(344,-11,o),
(345,-6,cs),
(565,709,l),
(787,-6,ls),
(788,-11,o),
(792,-13,o),
(797,-13,cs),
(823,-13,ls),
(827,-13,o),
(831,-11,o),
(832,-7,cs),
(1099,752,ls),
(1101,757,o),
(1098,761,o),
(1092,761,cs),
(1075,761,ls),
(1071,761,o),
(1067,759,o),
(1066,755,cs),
(811,31,l),
(587,754,ls),
(586,759,o),
(581,761,o),
(577,761,cs),
(556,761,ls),
(552,761,o),
(548,759,o),
(546,754,cs)
);
}
);
vertWidth = 1000;
width = 1132;
}
);
note = cid00056;
unicode = 87;
}
{
glyphname = X;
kernLeft = X;
kernRight = X;
layers = (
{
hints = (
{
horizontal = 1;
place = (-13, 21);
target = up;
type = BottomGhost;
},
{
horizontal = 1;
place = (761, -20);
target = down;
type = TopGhost;
},
{
place = (38, 585);
place = (38, 585);
type = Stem;
}
);
layerId = m01;
shapes = (
{
closed = 1;
nodes = (
(330,369,l),
(588,-8,l),
(590,-12,o),
(593,-13,o),
(597,-13,cs),
(616,-13,ls),
(622,-13,o),
(625,-8,o),
(621,-2,cs),
(351,393,l),
(597,751,ls),
(601,757,o),
(598,761,o),
(592,761,cs),
(574,761,ls),
(570,761,o),
(567,760,o),
(564,756,cs),
(330,416,l),
(97,756,l),
(95,760,o),
(92,761,o),
(88,761,cs),
(69,761,ls),
(62,761,o),
(59,757,o),
(63,751,cs),
(309,393,l),
(39,-2,l),
(36,-8,o),
(38,-13,o),
(44,-13,cs),
(62,-13,ls),
(66,-13,o),
(70,-12,o),
(72,-8,c)
);
}
);
vertWidth = 1000;
width = 660;
}
);
note = cid00057;
unicode = 88;
}
{
glyphname = Y;
kernLeft = Y;
kernRight = Y;
layers = (
{
hints = (
{
horizontal = 1;
place = (-13, 21);
target = up;
type = BottomGhost;
},
{
horizontal = 1;
place = (761, -20);
target = down;
type = TopGhost;
},
{
place = (324, 34);
place = (324, 34);
type = Stem;
}
);
layerId = m01;
shapes = (
{
closed = 1;
nodes = (
(324,302,l),
(324,-5,ls),
(324,-10,o),
(327,-13,o),
(332,-13,cs),
(349,-13,ls),
(354,-13,o),
(358,-10,o),
(358,-5,cs),
(358,304,l),
(648,751,ls),
(651,756,o),
(648,761,o),
(641,761,cs),
(624,761,ls),
(619,761,o),
(616,760,o),
(614,756,cs),
(341,334,l),
(68,756,ls),
(65,760,o),
(62,761,o),
(58,761,cs),
(39,761,ls),
(33,761,o),
(30,756,o),
(33,751,cs)
);
}
);
vertWidth = 1000;
width = 680;
}
);
note = cid00058;
unicode = 89;
}
{
glyphname = Z;
kernLeft = Z;
kernRight = Z;
layers = (
{
hints = (
{
horizontal = 1;
place = (-13, 33);
place = (-13, 33);
type = Stem;
},
{
horizontal = 1;
place = (729, 32);
place = (729, 32);
type = Stem;
},
{
place = (53, 541);
place = (53, 541);
type = Stem;
}
);
layerId = m01;
shapes = (
{
closed = 1;
nodes = (
(100,20,l),
(584,737,l),
(587,740,o),
(588,743,o),
(588,748,cs),
(588,753,ls),
(588,758,o),
(584,761,o),
(579,761,cs),
(70,761,ls),
(64,761,o),
(61,758,o),
(61,753,cs),
(61,737,ls),
(61,732,o),
(64,729,o),
(70,729,cs),
(540,729,l),
(56,11,ls),
(54,8,o),
(53,5,o),
(53,1,cs),
(53,-5,ls),
(53,-10,o),
(56,-13,o),
(61,-13,cs),
(586,-13,ls),
(591,-13,o),
(594,-10,o),
(594,-5,cs),
(594,11,ls),
(594,17,o),
(591,20,o),
(586,20,cs)
);
}
);
vertWidth = 1000;
width = 653;
}
);
note = cid00059;
unicode = 90;
}
{
glyphname = bracketleft;
layers = (
{
hints = (
{
horizontal = 1;
place = (-171, 30);
place = (-171, 30);
type = Stem;
},
{
horizontal = 1;
place = (790, 30);
place = (790, 30);
type = Stem;
},
{
place = (72, 31);
place = (72, 31);
type = Stem;
},
{
place = (72, 195);
place = (72, 195);
type = Stem;
}
);
layerId = m01;
shapes = (
{
closed = 1;
nodes = (
(103,-141,l),
(103,790,l),
(258,790,ls),
(264,790,o),
(267,793,o),
(267,798,cs),
(267,812,ls),
(267,817,o),
(264,820,o),
(258,820,cs),
(80,820,ls),
(75,820,o),
(72,817,o),
(72,812,cs),
(72,-163,ls),
(72,-168,o),
(75,-171,o),
(80,-171,cs),
(258,-171,ls),
(264,-171,o),
(267,-168,o),
(267,-163,cs),
(267,-149,ls),
(267,-144,o),
(264,-141,o),
(258,-141,cs)
);
}
);
vertWidth = 1000;
width = 288;
}
);
note = cid00060;
unicode = 91;
}
{
glyphname = backslash;
layers = (
{
hints = (
{
horizontal = 1;
place = (-129, 907);
place = (-129, 907);
type = Stem;
},
{
place = (55, 272);
place = (55, 272);
type = Stem;
}
);
layerId = m01;
shapes = (
{
closed = 1;
nodes = (
(89,771,ls),
(88,775,o),
(83,778,o),
(79,778,cs),
(62,778,ls),
(57,778,o),
(54,775,o),
(55,769,cs),
(293,-122,ls),
(294,-126,o),
(299,-129,o),
(303,-129,cs),
(320,-129,ls),
(325,-129,o),
(328,-126,o),
(327,-120,cs)
);
}
);
vertWidth = 1000;
width = 382;
}
);
note = cid00097;
unicode = 92;
}
{
glyphname = bracketright;
layers = (
{
hints = (
{
horizontal = 1;
place = (-171, 30);
place = (-171, 30);
type = Stem;
},
{
horizontal = 1;
place = (790, 30);
place = (790, 30);
type = Stem;
},
{
place = (185, 31);
place = (185, 31);
type = Stem;
},
{
place = (21, 195);
place = (21, 195);
type = Stem;
}
);
layerId = m01;
shapes = (
{
closed = 1;
nodes = (
(185,790,l),
(185,-141,l),
(30,-141,ls),
(24,-141,o),
(21,-144,o),
(21,-149,cs),
(21,-163,ls),
(21,-168,o),
(24,-171,o),
(30,-171,cs),
(208,-171,ls),
(213,-171,o),
(216,-168,o),
(216,-163,cs),
(216,812,ls),
(216,817,o),
(213,820,o),
(208,820,cs),
(30,820,ls),
(24,820,o),
(21,817,o),
(21,812,cs),
(21,798,ls),
(21,793,o),
(24,790,o),
(30,790,cs)
);
}
);
vertWidth = 1000;
width = 288;
}
);
note = cid00062;
unicode = 93;
}
{
glyphname = asciicircum;
layers = (
{
hints = (
{
horizontal = 1;
place = (761, -20);
target = down;
type = TopGhost;
},
{
place = (90, 453);
place = (90, 453);
type = Stem;
},
{
horizontal = 1;
place = (723, 38);
place = (723, 38);
type = Stem;
}
);
layerId = m01;
shapes = (
{
closed = 1;
nodes = (
(317,723,l),
(511,364,l),
(513,359,o),
(516,357,o),
(520,357,cs),
(536,357,ls),
(542,357,o),
(545,363,o),
(542,368,cs),
(332,755,ls),
(330,759,o),
(327,761,o),
(323,761,cs),
(310,761,ls),
(306,761,o),
(303,759,o),
(301,755,cs),
(91,368,ls),
(88,363,o),
(91,357,o),
(97,357,cs),
(114,357,ls),
(118,357,o),
(121,359,o),
(123,364,c)
);
}
);
vertWidth = 1000;
width = 633;
}
);
note = cid00063;
unicode = 94;
}
{
glyphname = underscore;
layers = (
{
hints = (
{
horizontal = 1;
place = (-137, 31);
place = (-137, 31);
type = Stem;
},
{
place = (53, 487);
place = (53, 487);
type = Stem;
}
);
layerId = m01;
shapes = (
{
closed = 1;
nodes = (
(532,-137,ls),
(536,-137,o),
(540,-133,o),
(540,-129,cs),
(540,-114,ls),
(540,-110,o),
(536,-106,o),
(532,-106,cs),
(60,-106,ls),
(57,-106,o),
(53,-110,o),
(53,-114,cs),
(53,-129,ls),
(53,-133,o),
(57,-137,o),
(60,-137,cs)
);
}
);
vertWidth = 1000;
width = 593;
}
);
note = cid00064;
unicode = (95,818);
}
{
glyphname = grave;
layers = (
{
hints = (
{
horizontal = 1;
place = (592, 139);
place = (592, 139);
type = Stem;
},
{
place = (105, 130);
place = (105, 130);
type = Stem;
}
);
layerId = m01;
shapes = (
{
closed = 1;
nodes = (
(109,731,ls),
(104,731,o),
(103,729,o),
(106,725,cs),
(196,598,ls),
(199,594,o),
(204,592,o),
(209,592,cs),
(230,592,ls),
(235,592,o),
(237,594,o),
(234,599,cs),
(151,724,ls),
(148,729,o),
(144,731,o),
(139,731,cs)
);
}
);
vertWidth = 1000;
width = 333;
}
);
note = cid00065;
unicode = (96,768);
}
{
glyphname = b;
kernLeft = b;
kernRight = b;
layers = (
{
hints = (
{
horizontal = 1;
place = (-24, 32);
place = (-24, 32);
type = Stem;
},
{
horizontal = 1;
place = (485, 32);
place = (485, 32);
type = Stem;
},
{
place = (93, 26);
place = (93, 26);
type = Stem;
},
{
place = (558, 33);
place = (558, 33);
type = Stem;
},
{
place = (93, 31);
place = (93, 31);
type = Stem;
},
{
horizontal = 1;
place = (-13, 21);
target = up;
type = BottomGhost;
}
);
layerId = m01;
shapes = (
{
closed = 1;
nodes = (
(124,111,l),
(156,30,o),
(244,-24,o),
(337,-24,cs),
(492,-24,o),
(591,90,o),
(591,247,cs),
(591,403,o),
(492,517,o),
(337,517,cs),
(244,517,o),
(157,464,o),
(124,383,c),
(124,770,ls),
(124,775,o),
(121,778,o),
(116,778,cs),
(101,778,ls),
(96,778,o),
(93,775,o),
(93,770,cs),
(93,-5,ls),
(93,-10,o),
(96,-13,o),
(101,-13,cs),
(111,-13,ls),
(116,-13,o),
(119,-11,o),
(119,-5,cs)
);
},
{
closed = 1;
nodes = (
(209,8,o),
(119,103,o),
(119,247,cs),
(119,390,o),
(209,485,o),
(339,485,cs),
(468,485,o),
(558,390,o),
(558,247,cs),
(558,103,o),
(468,8,o),
(339,8,cs)
);
}
);
vertWidth = 1000;
width = 638;
}
);
note = cid00067;
unicode = 98;
}
{
glyphname = d;
kernLeft = a;
layers = (
{
hints = (
{
horizontal = 1;
place = (-24, 32);
place = (-24, 32);
type = Stem;
},
{
horizontal = 1;
place = (485, 32);
place = (485, 32);
type = Stem;
},
{
place = (47, 33);
place = (47, 33);
type = Stem;
},
{
place = (514, 31);
place = (514, 31);
type = Stem;
},
{
horizontal = 1;
place = (-13, 21);
target = up;
type = BottomGhost;
},
{
place = (519, 26);
place = (519, 26);
type = Stem;
}
);
layerId = m01;
shapes = (
{
closed = 1;
nodes = (
(514,383,l),
(481,464,o),
(395,517,o),
(302,517,cs),
(147,517,o),
(47,403,o),
(47,247,cs),
(47,90,o),
(147,-24,o),
(302,-24,cs),
(395,-24,o),
(482,30,o),
(514,111,c),
(519,-5,ls),
(519,-11,o),
(522,-13,o),
(528,-13,cs),
(537,-13,ls),
(542,-13,o),
(545,-10,o),
(545,-5,cs),
(545,770,ls),
(545,775,o),
(542,778,o),
(537,778,cs),
(522,778,ls),
(517,778,o),
(514,775,o),
(514,770,cs)
);
},
{
closed = 1;
nodes = (
(170,8,o),
(80,103,o),
(80,247,cs),
(80,390,o),
(170,485,o),
(300,485,cs),
(429,485,o),
(519,390,o),
(519,247,cs),
(519,103,o),
(429,8,o),
(300,8,cs)
);
}
);
vertWidth = 1000;
width = 638;
}
);
note = cid00069;
unicode = 100;
}
{
glyphname = f;
layers = (
{
hints = (
{
horizontal = 1;
place = (-13, 21);
target = up;
type = BottomGhost;
},
{
horizontal = 1;
place = (475, 31);
place = (475, 31);
type = Stem;
},
{
horizontal = 1;
place = (753, 32);
place = (753, 32);
type = Stem;
},
{
place = (123, 32);
place = (123, 32);
type = Stem;
}
);
layerId = m01;
shapes = (
{
closed = 1;
nodes = (
(123,475,l),
(123,-5,ls),
(123,-10,o),
(127,-13,o),
(132,-13,cs),
(147,-13,ls),
(152,-13,o),
(155,-10,o),
(155,-5,cs),
(155,475,l),
(320,475,ls),
(325,475,o),
(328,479,o),
(328,484,cs),
(328,498,ls),
(328,503,o),
(325,506,o),
(320,506,cs),
(155,506,l),
(155,605,ls),
(155,707,o),
(193,753,o),
(262,753,cs),
(306,753,o),
(340,732,o),
(362,682,cs),
(364,677,o),
(367,675,o),
(372,677,cs),
(386,681,ls),
(391,683,o),
(394,688,o),
(391,693,c),
(364,757,o),
(320,785,o),
(262,785,cs),
(184,785,o),
(123,732,o),
(123,611,cs),
(123,506,l),
(27,506,ls),
(22,506,o),
(19,503,o),
(19,498,cs),
(19,484,ls),
(19,479,o),
(22,475,o),
(27,475,cs)
);
}
);
vertWidth = 1000;
width = 357;
}
);
note = cid00071;
unicode = 102;
}
{
glyphname = g;
kernLeft = a;
layers = (
{
hints = (
{
horizontal = 1;
place = (-254, 32);
place = (-254, 32);
type = Stem;
},
{
horizontal = 1;
place = (-24, 32);
place = (-24, 32);
type = Stem;
},
{
horizontal = 1;
place = (485, 32);
place = (485, 32);
type = Stem;
},
{
place = (47, 33);
place = (47, 33);
type = Stem;
},
{
place = (514, 31);
place = (514, 31);
type = Stem;
},
{
horizontal = 1;
place = (506, -20);
target = down;
type = TopGhost;
},
{
place = (519, 26);
place = (519, 26);
type = Stem;
}
);
layerId = m01;
shapes = (
{
closed = 1;
nodes = (
(514,382,l),
(482,463,o),
(395,517,o),
(302,517,cs),
(147,517,o),
(47,403,o),
(47,247,cs),
(47,90,o),
(147,-24,o),
(302,-24,cs),
(395,-24,o),
(481,29,o),
(514,110,c),
(514,-30,ls),
(514,-179,o),
(409,-222,o),
(308,-222,cs),
(204,-222,o),
(146,-175,o),
(115,-102,cs),
(113,-97,o),
(110,-95,o),
(104,-97,cs),
(91,-103,l),
(84,-105,o),
(84,-108,o),
(87,-113,c),
(121,-204,o),
(196,-254,o),
(308,-254,cs),
(430,-254,o),
(545,-198,o),
(545,-27,cs),
(545,498,ls),
(545,503,o),
(542,506,o),
(537,506,cs),
(528,506,ls),
(522,506,o),
(519,504,o),
(519,498,cs)
);
},
{
closed = 1;
nodes = (
(170,8,o),
(80,103,o),
(80,247,cs),
(80,390,o),
(170,485,o),
(300,485,cs),
(429,485,o),
(519,390,o),
(519,247,cs),
(519,103,o),
(429,8,o),
(300,8,cs)
);
}
);
vertWidth = 1000;
width = 638;
}
);
note = cid00072;
unicode = 103;
}
{
glyphname = h;
kernLeft = b;
kernRight = h;
layers = (
{
hints = (
{
horizontal = 1;
place = (-13, 21);
target = up;
type = BottomGhost;
},
{
horizontal = 1;
place = (485, 32);
place = (485, 32);
type = Stem;
},
{
place = (93, 31);
place = (93, 31);
type = Stem;
},
{
place = (479, 32);
place = (479, 32);
type = Stem;
}
);
layerId = m01;
shapes = (
{
closed = 1;
nodes = (
(124,770,ls),
(124,775,o),
(121,778,o),
(116,778,cs),
(101,778,ls),
(96,778,o),
(93,775,o),
(93,770,cs),
(93,-5,ls),
(93,-10,o),
(96,-13,o),
(101,-13,cs),
(116,-13,ls),
(121,-13,o),
(124,-10,o),
(124,-5,cs),
(124,272,ls),
(124,421,o),
(241,485,o),
(325,485,cs),
(430,485,o),
(479,423,o),
(479,309,cs),
(479,-5,ls),
(479,-10,o),
(482,-13,o),
(487,-13,cs),
(502,-13,ls),
(507,-13,o),
(511,-10,o),
(511,-5,cs),
(511,324,ls),
(511,444,o),
(442,517,o),
(328,517,cs),
(251,517,o),
(160,473,o),
(124,386,c)
);
}
);
vertWidth = 1000;
width = 600;
}
);
note = cid00073;
unicode = 104;
}
{
glyphname = i;
layers = (
{
hints = (
{
horizontal = 1;
place = (-13, 21);
target = up;
type = BottomGhost;
},
{
horizontal = 1;
place = (506, -20);
target = down;
type = TopGhost;
},
{
horizontal = 1;
place = (650, 62);
place = (650, 62);
type = Stem;
},
{
place = (77, 63);
place = (77, 63);
type = Stem;
},
{
place = (93, 31);
place = (93, 31);
type = Stem;
}
);
layerId = m01;
shapes = (
{
closed = 1;
nodes = (
(77,662,o),
(91,650,o),
(109,650,cs),
(127,650,o),
(140,662,o),
(140,681,cs),
(140,699,o),
(127,712,o),
(109,712,cs),
(91,712,o),
(77,699,o),
(77,681,cs)
);
},
{
closed = 1;
nodes = (
(93,-5,ls),
(93,-10,o),
(96,-13,o),
(101,-13,cs),
(116,-13,ls),
(121,-13,o),
(124,-10,o),
(124,-5,cs),
(124,498,ls),
(124,503,o),
(121,506,o),
(116,506,cs),
(101,506,ls),
(96,506,o),
(93,503,o),
(93,498,cs)
);
}
);
vertWidth = 1000;
width = 217;
}
);
note = cid00074;
unicode = 105;
}
{
glyphname = j;
layers = (
{
hints = (
{
horizontal = 1;
place = (-254, 32);
place = (-254, 32);
type = Stem;
},
{
horizontal = 1;
place = (506, -20);
target = down;
type = TopGhost;
},
{
horizontal = 1;
place = (650, 62);
place = (650, 62);
type = Stem;
},
{
place = (77, 63);
place = (77, 63);
type = Stem;
},
{
place = (93, 31);
place = (93, 31);
type = Stem;
}
);
layerId = m01;
shapes = (
{
closed = 1;
nodes = (
(77,662,o),
(91,650,o),
(109,650,cs),
(127,650,o),
(140,662,o),
(140,681,cs),
(140,699,o),
(127,712,o),
(109,712,cs),
(91,712,o),
(77,699,o),
(77,681,cs)
);
},
{
closed = 1;
nodes = (
(-115,-151,ls),
(-120,-153,o),
(-122,-158,o),
(-120,-163,cs),
(-98,-227,o),
(-61,-254,o),
(-3,-254,cs),
(64,-254,o),
(124,-207,o),
(124,-86,cs),
(124,498,ls),
(124,503,o),
(121,506,o),
(116,506,cs),
(101,506,ls),
(96,506,o),
(93,503,o),
(93,498,cs),
(93,-81,ls),
(93,-182,o),
(55,-222,o),
(-3,-222,cs),
(-49,-222,o),
(-75,-202,o),
(-93,-153,cs),
(-95,-148,o),
(-99,-146,o),
(-104,-148,cs)
);
}
);
vertWidth = 1000;
width = 217;
}
);
note = cid00075;
unicode = 106;
}
{
glyphname = k;
kernLeft = b;
layers = (
{
hints = (
{
horizontal = 1;
place = (-13, 21);
target = up;
type = BottomGhost;
},
{
horizontal = 1;
place = (506, -20);
target = down;
type = TopGhost;
},
{
place = (93, 31);
place = (93, 31);
type = Stem;
}
);
layerId = m01;
shapes = (
{
closed = 1;
nodes = (
(124,201,l),
(225,291,l),
(447,-8,ls),
(449,-11,o),
(454,-13,o),
(458,-13,cs),
(478,-13,ls),
(484,-13,o),
(487,-9,o),
(483,-2,c),
(249,313,l),
(453,496,ls),
(458,501,o),
(456,506,o),
(448,506,cs),
(428,506,ls),
(424,506,o),
(421,505,o),
(418,502,cs),
(124,237,l),
(124,770,ls),
(124,775,o),
(121,778,o),
(116,778,cs),
(101,778,ls),
(96,778,o),
(93,775,o),
(93,770,cs),
(93,-5,ls),
(93,-10,o),
(96,-13,o),
(101,-13,cs),
(116,-13,ls),
(121,-13,o),
(124,-10,o),
(124,-5,cs)
);
}
);
vertWidth = 1000;
width = 525;
}
);
note = cid00076;
unicode = 107;
}
{
glyphname = l;
kernLeft = b;
layers = (
{
hints = (
{
horizontal = 1;
place = (-13, 21);
target = up;
type = BottomGhost;
},
{
place = (93, 31);
place = (93, 31);
type = Stem;
}
);
layerId = m01;
shapes = (
{
closed = 1;
nodes = (
(93,-5,ls),
(93,-10,o),
(96,-13,o),
(101,-13,cs),
(116,-13,ls),
(121,-13,o),
(124,-10,o),
(124,-5,cs),
(124,770,ls),
(124,775,o),
(121,778,o),
(116,778,cs),
(101,778,ls),
(96,778,o),
(93,775,o),
(93,770,cs)
);
}
);
vertWidth = 1000;
width = 217;
}
);
note = cid00077;
unicode = 108;
}
{
glyphname = m;
kernLeft = m;
kernRight = h;
layers = (
{
hints = (
{
horizontal = 1;
place = (-13, 21);
target = up;
type = BottomGhost;
},
{
horizontal = 1;
place = (485, 32);
place = (485, 32);
type = Stem;
},
{
place = (93, 31);
place = (93, 31);
type = Stem;
},
{
place = (464, 32);
place = (464, 32);
type = Stem;
},
{
place = (836, 31);
place = (836, 31);
type = Stem;
},
{
horizontal = 1;
place = (506, -20);
target = down;
type = TopGhost;
},
{
place = (93, 26);
place = (93, 26);
type = Stem;
}
);
layerId = m01;
shapes = (
{
closed = 1;
nodes = (
(119,498,ls),
(119,504,o),
(116,506,o),
(111,506,cs),
(101,506,ls),
(96,506,o),
(93,503,o),
(93,498,cs),
(93,-5,ls),
(93,-10,o),
(96,-13,o),
(101,-13,cs),
(116,-13,ls),
(121,-13,o),
(124,-10,o),
(124,-5,cs),
(124,272,ls),
(124,421,o),
(230,485,o),
(315,485,cs),
(416,485,o),
(464,423,o),
(464,309,cs),
(464,-5,ls),
(464,-10,o),
(467,-13,o),
(473,-13,cs),
(487,-13,ls),
(493,-13,o),
(496,-10,o),
(496,-5,cs),
(496,272,ls),
(496,421,o),
(601,485,o),
(687,485,cs),
(787,485,o),
(836,423,o),
(836,309,cs),
(836,-5,ls),
(836,-10,o),
(839,-13,o),
(844,-13,cs),
(859,-13,ls),
(864,-13,o),
(867,-10,o),
(867,-5,cs),
(867,324,ls),
(867,444,o),
(799,517,o),
(689,517,cs),
(608,517,o),
(523,470,o),
(491,377,c),
(473,465,o),
(408,517,o),
(318,517,cs),
(241,517,o),
(159,473,o),
(124,386,c)
);
}
);
vertWidth = 1000;
width = 957;
}
);
note = cid00078;
unicode = 109;
}
{
glyphname = p;
kernLeft = m;
kernRight = b;
layers = (
{
hints = (
{
horizontal = 1;
place = (-243, 21);
target = up;
type = BottomGhost;
},
{
horizontal = 1;
place = (-24, 32);
place = (-24, 32);
type = Stem;
},
{
horizontal = 1;
place = (485, 32);
place = (485, 32);
type = Stem;
},
{
place = (93, 31);
place = (93, 31);
type = Stem;
},
{
place = (558, 33);
place = (558, 33);
type = Stem;
},
{
horizontal = 1;
place = (506, -20);
target = down;
type = TopGhost;
},
{
place = (93, 26);
place = (93, 26);
type = Stem;
}
);
layerId = m01;
shapes = (
{
closed = 1;
nodes = (
(124,110,l),
(157,29,o),
(244,-24,o),
(337,-24,cs),
(492,-24,o),
(591,90,o),
(591,247,cs),
(591,403,o),
(492,517,o),
(337,517,cs),
(244,517,o),
(156,463,o),
(124,382,c),
(119,498,ls),
(119,504,o),
(116,506,o),
(111,506,cs),
(101,506,ls),
(96,506,o),
(93,503,o),
(93,498,cs),
(93,-235,ls),
(93,-240,o),
(96,-243,o),
(101,-243,cs),
(116,-243,ls),
(121,-243,o),
(124,-241,o),
(124,-235,cs)
);
},
{
closed = 1;
nodes = (
(209,8,o),
(119,103,o),
(119,247,cs),
(119,390,o),
(209,485,o),
(339,485,cs),
(468,485,o),
(558,390,o),
(558,247,cs),
(558,103,o),
(468,8,o),
(339,8,cs)
);
}
);
vertWidth = 1000;
width = 638;
}
);
note = cid00081;
unicode = 112;
}
{
glyphname = r;
kernLeft = m;
layers = (
{
hints = (
{
horizontal = 1;
place = (-13, 21);
target = up;
type = BottomGhost;
},
{
horizontal = 1;
place = (482, 31);
place = (482, 31);
type = Stem;
},
{
place = (93, 31);
place = (93, 31);
type = Stem;
},
{
horizontal = 1;
place = (506, -20);
target = down;
type = TopGhost;
},
{
place = (93, 26);
place = (93, 26);
type = Stem;
}
);
layerId = m01;
shapes = (
{
closed = 1;
nodes = (
(119,498,ls),
(119,504,o),
(116,506,o),
(111,506,cs),
(101,506,ls),
(96,506,o),
(93,503,o),
(93,498,cs),
(93,-5,ls),
(93,-10,o),
(96,-13,o),
(101,-13,cs),
(116,-13,ls),
(121,-13,o),
(124,-11,o),
(124,-5,cs),
(124,282,ls),
(124,388,o),
(217,482,o),
(318,482,cs),
(328,482,o),
(333,482,o),
(340,481,cs),
(345,480,o),
(348,483,o),
(348,489,cs),
(348,504,ls),
(348,509,o),
(346,511,o),
(341,512,cs),
(335,513,o),
(330,513,o),
(321,513,cs),
(234,513,o),
(164,463,o),
(124,383,c)
);
}
);
vertWidth = 1000;
width = 369;
}
);
note = cid00083;
unicode = 114;
}
{
glyphname = t;
layers = (
{
hints = (
{
horizontal = 1;
place = (-24, 32);
place = (-24, 32);
type = Stem;
},
{
horizontal = 1;
place = (475, 31);
place = (475, 31);
type = Stem;
},
{
place = (123, 32);
place = (123, 32);
type = Stem;
}
);
layerId = m01;
shapes = (
{
closed = 1;
nodes = (
(123,475,l),
(123,144,ls),
(123,23,o),
(175,-24,o),
(248,-24,cs),
(300,-24,o),
(343,3,o),
(371,66,c),
(375,72,o),
(372,77,o),
(367,79,cs),
(356,83,ls),
(351,84,o),
(347,83,o),
(345,79,cs),
(323,29,o),
(289,8,o),
(248,8,cs),
(186,8,o),
(155,48,o),
(155,149,cs),
(155,475,l),
(321,475,ls),
(326,475,o),
(329,479,o),
(329,484,cs),
(329,498,ls),
(329,503,o),
(326,506,o),
(321,506,cs),
(155,506,l),
(155,685,ls),
(155,691,o),
(152,694,o),
(147,694,cs),
(132,694,ls),
(127,694,o),
(123,691,o),
(123,685,cs),
(123,506,l),
(17,506,ls),
(12,506,o),
(8,503,o),
(8,498,cs),
(8,484,ls),
(8,479,o),
(12,475,o),
(17,475,cs)
);
}
);
vertWidth = 1000;
width = 385;
}
);
note = cid00085;
unicode = 116;
}
{
glyphname = x;
layers = (
{
hints = (
{
horizontal = 1;
place = (-13, 21);
target = up;
type = BottomGhost;
},
{
horizontal = 1;
place = (506, -20);
target = down;
type = TopGhost;
},
{
place = (31, 437);
place = (31, 437);
type = Stem;
}
);
layerId = m01;
shapes = (
{
closed = 1;
nodes = (
(248,234,l),
(429,-8,ls),
(431,-11,o),
(436,-13,o),
(440,-13,cs),
(461,-13,ls),
(468,-13,o),
(471,-9,o),
(466,-2,cs),
(270,258,l),
(448,496,ls),
(453,502,o),
(450,506,o),
(443,506,cs),
(422,506,ls),
(418,506,o),
(415,505,o),
(411,501,c),
(251,283,l),
(89,501,l),
(85,505,o),
(83,506,o),
(78,506,cs),
(57,506,ls),
(50,506,o),
(47,501,o),
(52,496,c),
(230,259,l),
(34,-2,ls),
(28,-9,o),
(33,-13,o),
(39,-13,cs),
(60,-13,ls),
(64,-13,o),
(68,-12,o),
(71,-8,cs)
);
}
);
vertWidth = 1000;
width = 500;
}
);
note = cid00089;
unicode = 120;
}
{
glyphname = y;
kernLeft = v;
kernRight = v;
layers = (
{
hints = (
{
horizontal = 1;
place = (-243, 21);
target = up;
type = BottomGhost;
},
{
horizontal = 1;
place = (506, -20);
target = down;
type = TopGhost;
},
{
place = (32, 462);
place = (32, 462);
type = Stem;
}
);
layerId = m01;
shapes = (
{
closed = 1;
nodes = (
(256,-11,l),
(166,-233,ls),
(164,-239,o),
(166,-243,o),
(172,-243,cs),
(188,-243,ls),
(192,-243,o),
(196,-242,o),
(198,-237,cs),
(493,497,ls),
(495,502,o),
(493,506,o),
(486,506,cs),
(469,506,ls),
(465,506,o),
(462,505,o),
(460,500,cs),
(272,30,l),
(68,500,l),
(65,505,o),
(61,506,o),
(57,506,cs),
(39,506,ls),
(33,506,o),
(31,503,o),
(33,497,cs)
);
}
);
vertWidth = 1000;
width = 525;
}
);
note = cid00090;
unicode = 121;
}
{
glyphname = z;
layers = (
{
hints = (
{
horizontal = 1;
place = (-13, 31);
place = (-13, 31);
type = Stem;
},
{
horizontal = 1;
place = (475, 31);
place = (475, 31);
type = Stem;
},
{
place = (68, 384);
place = (68, 384);
type = Stem;
}
);
layerId = m01;
shapes = (
{
closed = 1;
nodes = (
(117,18,l),
(443,486,ls),
(445,489,o),
(446,491,o),
(446,496,cs),
(446,499,ls),
(446,503,o),
(443,506,o),
(438,506,cs),
(82,506,ls),
(77,506,o),
(74,503,o),
(74,498,cs),
(74,484,ls),
(74,479,o),
(77,475,o),
(82,475,cs),
(397,475,l),
(71,7,ls),
(69,4,o),
(68,2,o),
(68,-2,cs),
(68,-5,ls),
(68,-9,o),
(71,-13,o),
(76,-13,cs),
(443,-13,ls),
(448,-13,o),
(452,-10,o),
(452,-5,cs),
(452,9,ls),
(452,14,o),
(448,18,o),
(443,18,cs)
);
}
);
vertWidth = 1000;
width = 519;
}
);
note = cid00091;
unicode = 122;
}
{
glyphname = braceleft;
layers = (
{
hints = (
{
horizontal = 1;
place = (-171, 31);
place = (-171, 31);
type = Stem;
},
{
horizontal = 1;
place = (325, 15);
place = (325, 15);
type = Stem;
},
{
horizontal = 1;
place = (789, 31);
place = (789, 31);
type = Stem;
},
{
place = (156, 32);
place = (156, 32);
type = Stem;
},
{
horizontal = 1;
place = (309, 31);
place = (309, 31);
type = Stem;
}
);
layerId = m01;
shapes = (
{
closed = 1;
nodes = (
(177,329,o),
(188,359,o),
(188,398,cs),
(188,625,ls),
(188,735,o),
(241,789,o),
(358,789,cs),
(365,789,ls),
(370,789,o),
(373,792,o),
(373,797,cs),
(373,812,ls),
(373,817,o),
(370,820,o),
(365,820,cs),
(360,820,ls),
(241,820,o),
(156,769,o),
(156,637,cs),
(156,405,ls),
(156,358,o),
(145,340,o),
(110,340,cs),
(76,340,ls),
(71,340,o),
(68,337,o),
(68,332,cs),
(68,317,ls),
(68,312,o),
(71,309,o),
(76,309,cs),
(110,309,ls),
(145,309,o),
(156,291,o),
(156,244,cs),
(156,12,ls),
(156,-120,o),
(241,-171,o),
(360,-171,cs),
(365,-171,ls),
(370,-171,o),
(373,-168,o),
(373,-163,cs),
(373,-148,ls),
(373,-143,o),
(370,-140,o),
(365,-140,cs),
(358,-140,ls),
(241,-140,o),
(188,-86,o),
(188,24,cs),
(188,251,ls),
(188,288,o),
(178,317,o),
(156,325,c)
);
}
);
vertWidth = 1000;
width = 395;
}
);
note = cid00092;
unicode = 123;
}
{
glyphname = bar;
layers = (
{
hints = (
{
horizontal = 1;
place = (-129, 907);
place = (-129, 907);
type = Stem;
},
{
place = (115, 32);
place = (115, 32);
type = Stem;
}
);
layerId = m01;
shapes = (
{
closed = 1;
nodes = (
(115,-121,ls),
(115,-125,o),
(119,-129,o),
(123,-129,cs),
(138,-129,ls),
(142,-129,o),
(147,-125,o),
(147,-121,cs),
(147,770,ls),
(147,774,o),
(142,778,o),
(138,778,cs),
(123,778,ls),
(119,778,o),
(115,774,o),
(115,770,cs)
);
}
);
vertWidth = 1000;
width = 262;
}
);
note = cid00099;
unicode = 124;
}
{
glyphname = braceright;
layers = (
{
hints = (
{
horizontal = 1;
place = (-171, 31);
place = (-171, 31);
type = Stem;
},
{
horizontal = 1;
place = (309, 31);
place = (309, 31);
type = Stem;
},
{
horizontal = 1;
place = (789, 31);
place = (789, 31);
type = Stem;
},
{
place = (207, 31);
place = (207, 31);
type = Stem;
}
);
layerId = m01;
shapes = (
{
closed = 1;
nodes = (
(217,320,o),
(207,290,o),
(207,251,cs),
(207,24,ls),
(207,-86,o),
(154,-140,o),
(37,-140,cs),
(30,-140,ls),
(24,-140,o),
(21,-143,o),
(21,-148,cs),
(21,-163,ls),
(21,-168,o),
(24,-171,o),
(30,-171,cs),
(35,-171,ls),
(154,-171,o),
(238,-120,o),
(238,12,cs),
(238,244,ls),
(238,291,o),
(250,309,o),
(285,309,cs),
(319,309,ls),
(324,309,o),
(327,312,o),
(327,317,cs),
(327,332,ls),
(327,337,o),
(324,340,o),
(319,340,cs),
(285,340,ls),
(250,340,o),
(238,358,o),
(238,405,cs),
(238,637,ls),
(238,769,o),
(154,820,o),
(35,820,cs),
(30,820,ls),
(24,820,o),
(21,817,o),
(21,812,cs),
(21,797,ls),
(21,792,o),
(24,789,o),
(30,789,cs),
(37,789,ls),
(154,789,o),
(207,735,o),
(207,625,cs),
(207,398,ls),
(207,362,o),
(216,332,o),
(238,325,c)
);
}
);
vertWidth = 1000;
width = 395;
}
);
note = cid00094;
unicode = 125;
}
{
glyphname = asciitilde;
layers = (
{
hints = (
{
horizontal = 1;
place = (229, 29);
place = (229, 29);
type = Stem;
},
{
horizontal = 1;
place = (405, 29);
place = (405, 29);
type = Stem;
},
{
place = (60, 29);
place = (60, 29);
type = Stem;
},
{
place = (544, 29);
place = (544, 29);
type = Stem;
}
);
layerId = m01;
shapes = (
{
closed = 1;
nodes = (
(80,251,ls),
(85,251,o),
(89,254,o),
(89,259,cs),
(94,349,o),
(136,405,o),
(198,405,cs),
(325,405,o),
(282,229,o),
(436,229,cs),
(516,229,o),
(569,296,o),
(573,401,cs),
(573,408,o),
(570,412,o),
(564,412,cs),
(553,412,ls),
(548,412,o),
(544,409,o),
(544,404,cs),
(539,314,o),
(497,258,o),
(435,258,cs),
(308,258,o),
(351,434,o),
(197,434,cs),
(116,434,o),
(63,366,o),
(60,259,cs),
(60,254,o),
(63,251,o),
(69,251,cs)
);
}
);
vertWidth = 1000;
width = 633;
}
);
note = cid00100;
unicode = (126,8764);
}
{
glyphname = exclamdown;
layers = (
{
hints = (
{
horizontal = 1;
place = (407, 98);
place = (407, 98);
type = Stem;
},
{
place = (70, 93);
place = (70, 93);
type = Stem;
},
{
place = (95.5, 43);
place = (95.5, 43);
type = Stem;
}
);
layerId = m01;
shapes = (
{
closed = 1;
nodes = (
(143,407,o),
(163,429,o),
(163,456,cs),
(163,483,o),
(143,505,o),
(117,505,cs),
(91,505,o),
(70,483,o),
(70,456,cs),
(70,429,o),
(91,407,o),
(117,407,cs)
);
},
{
closed = 1;
nodes = (
(105,264,l),
(97,79,l),
(94,-292,l),
(140,-292,l),
(137,78,l),
(129,264,l)
);
}
);
vertWidth = 1000;
width = 232;
}
);
note = cid00101;
unicode = 161;
}
{
glyphname = cent;
layers = (
{
hints = (
{
horizontal = 1;
place = (-13, 21);
target = up;
type = BottomGhost;
},
{
horizontal = 1;
place = (95, 31);
place = (95, 31);
type = Stem;
},
{
horizontal = 1;
place = (603, 32);
place = (603, 32);
type = Stem;
},
{
horizontal = 1;
place = (761, -20);
target = down;
type = TopGhost;
},
{
place = (47, 33);
place = (47, 33);
type = Stem;
},
{
place = (275, 33);
place = (275, 33);
type = Stem;
},
{
horizontal = 1;
place = (96, 31);
place = (96, 31);
type = Stem;
}
);
layerId = m01;
shapes = (
{
closed = 1;
nodes = (
(308,95,l),
(401,98,o),
(471,143,o),
(505,231,cs),
(507,236,o),
(506,240,o),
(501,242,cs),
(487,248,ls),
(482,250,o),
(479,248,o),
(477,243,cs),
(447,173,o),
(392,129,o),
(308,126,c),
(308,603,l),
(388,600,o),
(443,562,o),
(472,492,cs),
(474,487,o),
(477,485,o),
(482,487,cs),
(496,491,ls),
(502,493,o),
(503,497,o),
(501,502,cs),
(468,585,o),
(403,632,o),
(308,635,c),
(308,753,ls),
(308,758,o),
(305,761,o),
(300,761,cs),
(284,761,ls),
(279,761,o),
(275,758,o),
(275,753,cs),
(275,634,l),
(137,623,o),
(47,515,o),
(47,365,cs),
(47,215,o),
(136,106,o),
(275,96,c),
(275,-5,ls),
(275,-10,o),
(279,-13,o),
(284,-13,cs),
(300,-13,ls),
(305,-13,o),
(308,-10,o),
(308,-5,cs)
);
},
{
closed = 1;
nodes = (
(275,127,l),
(143,138,o),
(80,244,o),
(80,365,cs),
(80,484,o),
(142,592,o),
(275,602,c)
);
}
);
vertWidth = 1000;
width = 549;
}
);
note = cid00102;
unicode = 162;
}
{
glyphname = sterling;
layers = (
{
hints = (
{
horizontal = 1;
place = (-13, 33);
place = (-13, 33);
type = Stem;
},
{
horizontal = 1;
place = (340, 33);
place = (340, 33);
type = Stem;
},
{
horizontal = 1;
place = (742, 34);
place = (742, 34);
type = Stem;
},
{
place = (124, 35);
place = (124, 35);
type = Stem;
},
{
place = (162, 35);
place = (162, 35);
type = Stem;
}
);
layerId = m01;
shapes = (
{
closed = 1;
nodes = (
(129,20,l),
(183,117,o),
(197,173,o),
(197,261,cs),
(197,287,o),
(194,313,o),
(190,340,c),
(391,340,ls),
(397,340,o),
(400,344,o),
(400,349,cs),
(400,365,ls),
(400,370,o),
(397,373,o),
(391,373,cs),
(185,373,l),
(173,433,o),
(159,496,o),
(159,550,cs),
(159,671,o),
(227,742,o),
(343,742,cs),
(441,742,o),
(513,691,o),
(544,596,cs),
(545,592,o),
(550,589,o),
(555,590,cs),
(572,595,ls),
(577,596,o),
(579,600,o),
(578,605,cs),
(544,714,o),
(458,776,o),
(342,776,cs),
(208,776,o),
(124,688,o),
(124,550,cs),
(124,496,o),
(138,432,o),
(149,373,c),
(84,373,ls),
(79,373,o),
(76,370,o),
(76,365,cs),
(76,349,ls),
(76,344,o),
(79,340,o),
(84,340,cs),
(154,340,l),
(159,312,o),
(162,285,o),
(162,261,cs),
(162,160,o),
(147,108,o),
(90,11,cs),
(88,7,o),
(87,4,o),
(87,1,cs),
(87,-5,ls),
(87,-10,o),
(90,-13,o),
(95,-13,cs),
(565,-13,ls),
(571,-13,o),
(574,-10,o),
(574,-5,cs),
(574,11,ls),
(574,17,o),
(571,20,o),
(565,20,cs)
);
}
);
vertWidth = 1000;
width = 641;
}
);
note = cid00103;
unicode = 163;
}
{
glyphname = currency;
layers = (
{
hints = (
{
horizontal = 1;
place = (198, 33);
place = (198, 33);
type = Stem;
},
{
horizontal = 1;
place = (558, 32);
place = (558, 32);
type = Stem;
},
{
place = (88, 33);
place = (88, 33);
type = Stem;
},
{
place = (442, 34);
place = (442, 34);
type = Stem;
}
);
layerId = m01;
shapes = (
{
closed = 1;
nodes = (
(149,245,l),
(181,216,o),
(227,198,o),
(282,198,cs),
(337,198,o),
(382,216,o),
(415,245,c),
(492,172,ls),
(494,170,o),
(496,169,o),
(498,169,cs),
(500,169,o),
(502,170,o),
(504,172,cs),
(515,182,ls),
(518,185,o),
(518,192,o),
(515,195,cs),
(437,270,l),
(462,302,o),
(476,346,o),
(476,394,cs),
(476,443,o),
(462,486,o),
(437,519,c),
(515,594,ls),
(518,597,o),
(518,603,o),
(515,606,cs),
(504,617,ls),
(501,620,o),
(495,621,o),
(492,618,cs),
(415,543,l),
(382,573,o),
(337,590,o),
(282,590,cs),
(227,590,o),
(181,573,o),
(149,543,c),
(72,617,ls),
(69,620,o),
(62,620,o),
(59,617,cs),
(49,606,ls),
(47,604,o),
(46,602,o),
(46,600,cs),
(46,598,o),
(47,596,o),
(49,594,cs),
(127,519,l),
(101,486,o),
(88,443,o),
(88,394,cs),
(88,346,o),
(101,302,o),
(127,270,c),
(49,195,l),
(47,194,o),
(46,191,o),
(46,188,cs),
(46,186,o),
(47,184,o),
(49,182,cs),
(59,172,l),
(60,170,o),
(63,169,o),
(66,169,cs),
(68,169,o),
(70,170,o),
(72,172,cs)
);
},
{
closed = 1;
nodes = (
(188,231,o),
(121,296,o),
(121,394,cs),
(121,492,o),
(188,558,o),
(282,558,cs),
(376,558,o),
(442,492,o),
(442,394,cs),
(442,296,o),
(376,231,o),
(282,231,cs)
);
}
);
vertWidth = 1000;
width = 563;
}
);
note = cid00107;
unicode = 164;
}
{
glyphname = yen;
layers = (
{
hints = (
{
horizontal = 1;
place = (-13, 21);
target = up;
type = BottomGhost;
},
{
horizontal = 1;
place = (157, 33);
place = (157, 33);
type = Stem;
},
{
horizontal = 1;
place = (298, 33);
place = (298, 33);
type = Stem;
},
{
horizontal = 1;
place = (761, -20);
target = down;
type = TopGhost;
},
{
place = (324, 34);
place = (324, 34);
type = Stem;
}
);
layerId = m01;
shapes = (
{
closed = 1;
nodes = (
(324,157,l),
(324,-5,ls),
(324,-10,o),
(327,-13,o),
(332,-13,cs),
(349,-13,ls),
(354,-13,o),
(358,-10,o),
(358,-5,cs),
(358,157,l),
(543,157,ls),
(549,157,o),
(552,160,o),
(552,165,cs),
(552,181,ls),
(552,186,o),
(549,190,o),
(543,190,cs),
(358,190,l),
(358,298,l),
(543,298,ls),
(549,298,o),
(552,301,o),
(552,307,cs),
(552,322,ls),
(552,328,o),
(549,331,o),
(543,331,cs),
(376,331,l),
(648,751,ls),
(651,756,o),
(648,761,o),
(641,761,cs),
(626,761,ls),
(621,761,o),
(618,760,o),
(616,756,cs),
(341,332,l),
(65,756,ls),
(63,760,o),
(60,761,o),
(56,761,cs),
(39,761,ls),
(33,761,o),
(30,756,o),
(33,751,cs),
(305,331,l),
(138,331,ls),
(133,331,o),
(130,328,o),
(130,322,cs),
(130,307,ls),
(130,301,o),
(133,298,o),
(138,298,cs),
(324,298,l),
(324,190,l),
(138,190,ls),
(133,190,o),
(130,186,o),
(130,181,cs),
(130,165,ls),
(130,160,o),
(133,157,o),
(138,157,cs)
);
}
);
vertWidth = 1000;
width = 680;
}
);
note = cid00061;
unicode = 165;
}
{
glyphname = brokenbar;
layers = (
{
hints = (
{
horizontal = 1;
place = (-129, 907);
place = (-129, 907);
type = Stem;
},
{
place = (115, 32);
place = (115, 32);
type = Stem;
}
);
layerId = m01;
shapes = (
{
closed = 1;
nodes = (
(115,431,ls),
(115,425,o),
(118,422,o),
(124,422,cs),
(138,422,ls),
(144,422,o),
(147,425,o),
(147,431,cs),
(147,769,ls),
(147,775,o),
(144,778,o),
(138,778,cs),
(124,778,ls),
(118,778,o),
(115,775,o),
(115,769,cs)
);
},
{
closed = 1;
nodes = (
(115,-120,ls),
(115,-126,o),
(118,-129,o),
(124,-129,cs),
(138,-129,ls),
(144,-129,o),
(147,-126,o),
(147,-120,cs),
(147,218,ls),
(147,223,o),
(144,226,o),
(138,226,cs),
(124,226,ls),
(118,226,o),
(115,223,o),
(115,218,cs)
);
}
);
vertWidth = 1000;
width = 262;
}
);
note = cid00093;
unicode = 166;
}
{
glyphname = section.full;
layers = (
{
hints = (
{
horizontal = 1;
place = (-71, 32);
place = (-71, 32);
type = Stem;
},
{
horizontal = 1;
place = (188, 31);
place = (188, 31);
type = Stem;
},
{
horizontal = 1;
place = (540, 32);
place = (540, 32);
type = Stem;
},
{
horizontal = 1;
place = (798, 32);
place = (798, 32);
type = Stem;
},
{
place = (313, 33);
place = (313, 33);
type = Stem;
},
{
place = (587, 33);
place = (587, 33);
type = Stem;
},
{
place = (658, 33);
place = (658, 33);
type = Stem;
},
{
place = (370, 33);
place = (370, 33);
type = Stem;
}
);
layerId = m01;
shapes = (
{
closed = 1;
nodes = (
(574,155,o),
(587,116,o),
(587,69,cs),
(587,7,o),
(543,-39,o),
(469,-39,cs),
(410,-39,o),
(370,-9,o),
(340,60,cs),
(338,65,o),
(334,66,o),
(330,65,cs),
(315,60,ls),
(310,58,o),
(308,54,o),
(310,48,cs),
(343,-34,o),
(400,-71,o),
(469,-71,cs),
(562,-71,o),
(620,-8,o),
(620,69,cs),
(620,120,o),
(606,162,o),
(582,203,c),
(651,232,o),
(691,297,o),
(691,380,cs),
(691,490,o),
(618,572,o),
(502,572,cs),
(480,572,o),
(459,569,o),
(440,563,c),
(417,601,o),
(403,642,o),
(403,690,cs),
(403,752,o),
(447,798,o),
(521,798,cs),
(580,798,o),
(620,768,o),
(650,699,cs),
(652,694,o),
(656,693,o),
(660,694,cs),
(675,699,ls),
(680,701,o),
(682,706,o),
(680,711,cs),
(647,793,o),
(590,830,o),
(521,830,cs),
(428,830,o),
(370,767,o),
(370,690,cs),
(370,637,o),
(385,594,o),
(410,552,c),
(349,521,o),
(313,458,o),
(313,380,cs),
(313,269,o),
(386,188,o),
(502,188,cs),
(520,188,o),
(537,190,o),
(553,193,c)
);
},
{
closed = 1;
nodes = (
(411,219,o),
(346,284,o),
(346,380,cs),
(346,476,o),
(411,540,o),
(502,540,cs),
(593,540,o),
(658,476,o),
(658,380,cs),
(658,284,o),
(593,219,o),
(502,219,cs)
);
}
);
vertWidth = 1000;
width = 1000;
}
);
note = cid00720;
unicode = 167;
}
{
glyphname = dieresis;
layers = (
{
hints = (
{
horizontal = 1;
place = (624, 68);
place = (624, 68);
type = Stem;
},
{
place = (395, 69);
place = (395, 69);
type = Stem;
},
{
place = (537, 69);
place = (537, 69);
type = Stem;
}
);
layerId = m01;
shapes = (
{
closed = 1;
nodes = (
(537,640,o),
(552,624,o),
(572,624,cs),
(591,624,o),
(606,639,o),
(606,658,cs),
(606,676,o),
(592,692,o),
(572,692,cs),
(552,692,o),
(537,676,o),
(537,658,cs)
);
},
{
closed = 1;
nodes = (
(395,640,o),
(410,624,o),
(430,624,cs),
(449,624,o),
(464,639,o),
(464,658,cs),
(464,676,o),
(450,692,o),
(430,692,cs),
(410,692,o),
(395,676,o),
(395,658,cs)
);
}
);
vertWidth = 1000;
width = 1000;
}
);
note = cid00647;
unicode = 168;
}
{
glyphname = copyright;
layers = (
{
hints = (
{
horizontal = 1;
place = (-28, 34);
place = (-28, 34);
type = Stem;
},
{
horizontal = 1;
place = (157, 33);
place = (157, 33);
type = Stem;
},
{
horizontal = 1;
place = (559, 33);
place = (559, 33);
type = Stem;
},
{
horizontal = 1;
place = (742, 34);
place = (742, 34);
type = Stem;
},
{
place = (63, 35);
place = (63, 35);
type = Stem;
},
{
place = (255, 34);
place = (255, 34);
type = Stem;
},
{
place = (813, 35);
place = (813, 35);
type = Stem;
}
);
layerId = m01;
shapes = (
{
closed = 1;
nodes = (
(685,-28,o),
(848,137,o),
(848,374,cs),
(848,612,o),
(685,776,o),
(456,776,cs),
(227,776,o),
(63,612,o),
(63,374,cs),
(63,137,o),
(227,-28,o),
(456,-28,cs)
);
},
{
closed = 1;
nodes = (
(231,6,o),
(98,175,o),
(98,374,cs),
(98,574,o),
(231,742,o),
(456,742,cs),
(680,742,o),
(813,575,o),
(813,374,cs),
(813,174,o),
(680,6,o),
(456,6,cs)
);
},
{
closed = 1;
nodes = (
(596,472,o),
(600,471,o),
(605,472,cs),
(620,475,ls),
(626,477,o),
(628,481,o),
(626,486,cs),
(597,555,o),
(537,592,o),
(458,592,cs),
(338,592,o),
(255,501,o),
(255,374,cs),
(255,248,o),
(331,157,o),
(458,157,cs),
(536,157,o),
(600,193,o),
(629,266,cs),
(631,271,o),
(629,274,o),
(624,276,cs),
(609,281,ls),
(603,283,o),
(600,281,o),
(598,276,cs),
(575,221,o),
(525,190,o),
(458,190,cs),
(341,190,o),
(289,276,o),
(289,374,cs),
(289,471,o),
(344,559,o),
(458,559,cs),
(523,559,o),
(571,530,o),
(594,478,cs)
);
}
);
vertWidth = 1000;
width = 912;
}
);
note = cid00152;
unicode = 169;
}
{
glyphname = ordfeminine;
layers = (
{
hints = (
{
horizontal = 1;
place = (326, 28);
place = (326, 28);
type = Stem;
},
{
horizontal = 1;
place = (742, 28);
place = (742, 28);
type = Stem;
},
{
place = (60, 33);
place = (60, 33);
type = Stem;
},
{
place = (440, 28);
place = (440, 28);
type = Stem;
},
{
horizontal = 1;
place = (761, -20);
target = down;
type = TopGhost;
},
{
place = (437, 31);
place = (437, 31);
type = Stem;
}
);
layerId = m01;
shapes = (
{
closed = 1;
nodes = (
(439,659,l),
(413,725,o),
(349,770,o),
(269,770,cs),
(142,770,o),
(60,676,o),
(60,548,cs),
(60,420,o),
(142,326,o),
(269,326,cs),
(349,326,o),
(413,370,o),
(439,437,c),
(440,342,ls),
(440,337,o),
(442,335,o),
(447,335,cs),
(463,335,ls),
(466,335,o),
(468,338,o),
(468,342,cs),
(468,754,ls),
(468,758,o),
(466,761,o),
(463,761,cs),
(447,761,ls),
(442,761,o),
(440,759,o),
(440,754,cs)
);
},
{
closed = 1;
nodes = (
(164,354,o),
(93,432,o),
(93,548,cs),
(93,664,o),
(164,742,o),
(267,742,cs),
(368,742,o),
(437,664,o),
(437,548,cs),
(437,432,o),
(368,354,o),
(267,354,cs)
);
}
);
vertWidth = 1000;
width = 506;
}
);
note = cid00140;
unicode = 170;
}
{
glyphname = guillemetleft;
layers = (
{
hints = (
{
horizontal = 1;
place = (105, 452);
place = (105, 452);
type = Stem;
},
{
place = (58, 443);
place = (58, 443);
type = Stem;
}
);
layerId = m01;
shapes = (
{
closed = 1;
nodes = (
(92,331,l),
(316,517,ls),
(320,520,o),
(321,523,o),
(321,528,cs),
(321,549,ls),
(321,557,o),
(316,560,o),
(310,555,cs),
(63,346,ls),
(60,343,o),
(58,340,o),
(58,335,cs),
(58,326,ls),
(58,322,o),
(60,318,o),
(63,315,cs),
(310,107,ls),
(316,102,o),
(321,104,o),
(321,112,cs),
(321,134,ls),
(321,138,o),
(320,142,o),
(316,145,cs)
);
},
{
closed = 1;
nodes = (
(230,335,ls),
(226,332,o),
(226,328,o),
(230,325,cs),
(490,107,ls),
(496,102,o),
(501,104,o),
(501,112,cs),
(501,134,ls),
(501,138,o),
(500,142,o),
(496,145,cs),
(272,331,l),
(496,517,ls),
(500,520,o),
(501,523,o),
(501,528,cs),
(501,549,ls),
(501,557,o),
(496,560,o),
(490,555,cs)
);
}
);
vertWidth = 1000;
width = 574;
}
);
note = cid00109;
unicode = 171;
}
{
glyphname = logicalnot;
layers = (
{
hints = (
{
horizontal = 1;
place = (368, 32);
place = (368, 32);
type = Stem;
},
{
place = (467, 34);
place = (467, 34);
type = Stem;
}
);
layerId = m01;
shapes = (
{
closed = 1;
nodes = (
(467,368,l),
(467,164,ls),
(467,159,o),
(471,156,o),
(476,156,cs),
(493,156,ls),
(498,156,o),
(501,159,o),
(501,164,cs),
(501,391,ls),
(501,396,o),
(498,400,o),
(493,400,cs),
(75,400,ls),
(70,400,o),
(66,396,o),
(66,391,cs),
(66,376,ls),
(66,371,o),
(70,368,o),
(75,368,cs)
);
}
);
vertWidth = 1000;
width = 633;
}
);
note = cid00153;
unicode = 172;
}
{
glyphname = softhyphen;
layers = (
{
hints = (
{
horizontal = 1;
place = (315, 32);
place = (315, 32);
type = Stem;
},
{
place = (88, 321);
place = (88, 321);
type = Stem;
}
);
layerId = m01;
shapes = (
{
closed = 1;
nodes = (
(401,315,ls),
(406,315,o),
(409,318,o),
(409,324,cs),
(409,338,ls),
(409,344,o),
(406,347,o),
(401,347,cs),
(96,347,ls),
(91,347,o),
(88,344,o),
(88,338,cs),
(88,324,ls),
(88,318,o),
(91,315,o),
(96,315,cs)
);
}
);
vertWidth = 1000;
width = 497;
}
);
note = cid00151;
unicode = 173;
}
{
glyphname = registered;
layers = (
{
hints = (
{
horizontal = 1;
place = (235, 32);
place = (235, 32);
type = Stem;
},
{
horizontal = 1;
place = (485, 30);
place = (485, 30);
type = Stem;
},
{
horizontal = 1;
place = (618, 29);
place = (618, 29);
type = Stem;
},
{
horizontal = 1;
place = (750, 31);
place = (750, 31);
type = Stem;
},
{
place = (63, 33);
place = (63, 33);
type = Stem;
},
{
place = (251, 31);
place = (251, 31);
type = Stem;
},
{
place = (398, 31);
place = (398, 31);
type = Stem;
},
{
place = (573, 33);
place = (573, 33);
type = Stem;
}
);
layerId = m01;
shapes = (
{
closed = 1;
nodes = (
(493,235,o),
(606,347,o),
(606,508,cs),
(606,670,o),
(493,781,o),
(334,781,cs),
(176,781,o),
(63,670,o),
(63,508,cs),
(63,347,o),
(176,235,o),
(334,235,cs)
);
},
{
closed = 1;
nodes = (
(185,267,o),
(96,377,o),
(96,508,cs),
(96,639,o),
(185,750,o),
(334,750,cs),
(484,750,o),
(573,639,o),
(573,508,cs),
(573,377,o),
(484,267,o),
(334,267,cs)
);
},
{
closed = 1;
nodes = (
(282,485,l),
(345,485,l),
(400,393,ls),
(402,390,o),
(405,388,o),
(409,388,cs),
(426,388,ls),
(433,388,o),
(435,392,o),
(431,398,cs),
(376,490,l),
(414,502,o),
(429,530,o),
(429,567,cs),
(429,614,o),
(402,647,o),
(331,647,cs),
(260,647,ls),
(254,647,o),
(251,644,o),
(251,639,cs),
(251,396,ls),
(251,391,o),
(254,388,o),
(260,388,cs),
(273,388,ls),
(279,388,o),
(282,391,o),
(282,396,cs)
);
},
{
closed = 1;
nodes = (
(282,515,l),
(282,618,l),
(330,618,ls),
(379,618,o),
(398,601,o),
(398,567,cs),
(398,531,o),
(379,515,o),
(330,515,cs)
);
}
);
vertWidth = 1000;
width = 669;
}
);
note = cid00154;
unicode = 174;
}
{
glyphname = macroncomb;
layers = (
{
hints = (
{
horizontal = 1;
place = (644, 31);
place = (644, 31);
type = Stem;
},
{
place = (89, 242);
place = (89, 242);
type = Stem;
}
);
layerId = m01;
shapes = (
{
closed = 1;
nodes = (
(97,675,ls),
(92,675,o),
(89,672,o),
(89,667,cs),
(89,652,ls),
(89,647,o),
(92,644,o),
(97,644,cs),
(323,644,ls),
(328,644,o),
(331,647,o),
(331,652,cs),
(331,667,ls),
(331,672,o),
(328,675,o),
(323,675,cs)
);
}
);
vertWidth = 1000;
width = 420;
}
);
note = cid00129;
unicode = (175,772);
}
{
glyphname = degree.full;
layers = (
{
hints = (
{
horizontal = 1;
place = (571, 29);
place = (571, 29);
type = Stem;
},
{
horizontal = 1;
place = (808, 30);
place = (808, 30);
type = Stem;
},
{
place = (2, 30);
place = (2, 30);
type = Stem;
},
{
place = (239, 30);
place = (239, 30);
type = Stem;
}
);
layerId = m01;
shapes = (
{
closed = 1;
nodes = (
(61,838,o),
(2,778,o),
(2,705,cs),
(2,630,o),
(61,571,o),
(135,571,cs),
(210,571,o),
(269,631,o),
(269,705,cs),
(269,779,o),
(209,838,o),
(135,838,cs)
);
},
{
closed = 1;
nodes = (
(192,808,o),
(239,763,o),
(239,705,cs),
(239,648,o),
(193,600,o),
(134,600,cs),
(77,600,o),
(32,648,o),
(32,705,cs),
(32,762,o),
(77,808,o),
(134,808,cs)
);
}
);
vertWidth = 1000;
width = 1000;
}
);
note = cid00707;
unicode = 176;
}
{
glyphname = plusminus.full;
layers = (
{
hints = (
{
horizontal = 1;
place = (16, 32);
place = (16, 32);
type = Stem;
},
{
horizontal = 1;
place = (426, 32);
place = (426, 32);
type = Stem;
},
{
place = (484, 32);
place = (484, 32);
type = Stem;
}
);
layerId = m01;
shapes = (
{
closed = 1;
nodes = (
(484,426,l),
(484,180,ls),
(484,174,o),
(487,171,o),
(492,171,cs),
(508,171,ls),
(513,171,o),
(516,174,o),
(516,180,cs),
(516,426,l),
(791,426,ls),
(797,426,o),
(800,429,o),
(800,435,cs),
(800,449,ls),
(800,455,o),
(797,458,o),
(791,458,cs),
(516,458,l),
(516,704,ls),
(516,710,o),
(513,713,o),
(508,713,cs),
(492,713,ls),
(487,713,o),
(484,710,o),
(484,704,cs),
(484,458,l),
(209,458,ls),
(203,458,o),
(200,455,o),
(200,449,cs),
(200,435,ls),
(200,429,o),
(203,426,o),
(209,426,cs)
);
},
{
closed = 1;
nodes = (
(200,25,ls),
(200,19,o),
(203,16,o),
(209,16,cs),
(791,16,ls),
(797,16,o),
(800,19,o),
(800,25,cs),
(800,39,ls),
(800,45,o),
(797,48,o),
(791,48,cs),
(209,48,ls),
(203,48,o),
(200,45,o),
(200,39,cs)
);
}
);
vertWidth = 1000;
width = 1000;
}
);
note = cid00694;
unicode = 177;
}
{
glyphname = twosuperior;
layers = (
{
hints = (
{
horizontal = 1;
place = (337, 31);
place = (337, 31);
type = Stem;
},
{
horizontal = 1;
place = (740, 32);
place = (740, 32);
type = Stem;
},
{
place = (296, 34);
place = (296, 34);
type = Stem;
}
);
layerId = m01;
shapes = (
{
closed = 1;
nodes = (
(110,368,l),
(192,447,ls),
(314,566,o),
(330,609,o),
(330,661,cs),
(330,727,o),
(272,772,o),
(202,772,cs),
(132,772,o),
(78,734,o),
(56,672,c),
(56,668,o),
(56,664,o),
(60,664,c),
(78,660,ls),
(82,659,o),
(84,659,o),
(88,664,c),
(108,716,o),
(148,740,o),
(202,740,cs),
(258,740,o),
(296,708,o),
(296,661,cs),
(296,614,o),
(281,577,o),
(170,467,cs),
(58,356,ls),
(56,354,o),
(54,352,o),
(54,349,cs),
(54,343,ls),
(54,339,o),
(58,337,o),
(60,337,cs),
(346,337,ls),
(350,337,o),
(352,340,o),
(352,343,cs),
(352,361,ls),
(352,365,o),
(350,368,o),
(346,368,cs)
);
}
);
vertWidth = 1000;
width = 411;
}
);
note = cid00157;
unicode = 178;
}
{
glyphname = threesuperior;
layers = (
{
hints = (
{
horizontal = 1;
place = (327, 31);
place = (327, 31);
type = Stem;
},
{
horizontal = 1;
place = (545, 31);
place = (545, 31);
type = Stem;
},
{
horizontal = 1;
place = (740, 32);
place = (740, 32);
type = Stem;
},
{
place = (328, 33);
place = (328, 33);
type = Stem;
},
{
place = (314, 33);
place = (314, 33);
type = Stem;
}
);
layerId = m01;
shapes = (
{
closed = 1;
nodes = (
(55,437,ls),
(51,435,o),
(49,432,o),
(51,427,cs),
(74,365,o),
(138,327,o),
(205,327,cs),
(291,327,o),
(361,378,o),
(361,452,cs),
(361,506,o),
(326,546,o),
(272,561,c),
(320,578,o),
(347,618,o),
(347,661,cs),
(347,724,o),
(291,772,o),
(210,772,cs),
(139,772,o),
(84,734,o),
(65,676,cs),
(64,671,o),
(66,666,o),
(72,665,cs),
(85,662,ls),
(91,661,o),
(94,662,o),
(96,667,cs),
(112,712,o),
(154,740,o),
(210,740,cs),
(273,740,o),
(314,710,o),
(314,657,cs),
(314,613,o),
(276,576,o),
(212,576,cs),
(189,576,ls),
(184,576,o),
(180,573,o),
(180,567,cs),
(180,554,ls),
(180,548,o),
(184,545,o),
(189,545,cs),
(212,545,ls),
(285,545,o),
(328,505,o),
(328,454,cs),
(328,398,o),
(276,358,o),
(205,358,cs),
(143,358,o),
(97,393,o),
(78,439,cs),
(76,444,o),
(71,445,o),
(66,443,cs)
);
}
);
vertWidth = 1000;
width = 411;
}
);
note = cid00158;
unicode = 179;
}
{
glyphname = acute.full;
layers = (
{
hints = (
{
horizontal = 1;
place = (592, 139);
place = (592, 139);
type = Stem;
},
{
place = (435, 131);
place = (435, 131);
type = Stem;
}
);
layerId = m01;
shapes = (
{
closed = 1;
nodes = (
(531,731,ls),
(526,731,o),
(522,729,o),
(519,724,cs),
(436,599,ls),
(433,594,o),
(435,592,o),
(440,592,cs),
(461,592,ls),
(466,592,o),
(471,594,o),
(474,598,cs),
(564,725,ls),
(567,729,o),
(566,731,o),
(561,731,cs)
);
}
);
vertWidth = 1000;
width = 1000;
}
);
note = cid00645;
unicode = 180;
}
{
glyphname = micro;
layers = (
{
hints = (
{
horizontal = 1;
place = (-243, 21);
target = up;
type = BottomGhost;
},
{
horizontal = 1;
place = (-15, 27);
place = (-15, 27);
type = Stem;
},
{
horizontal = 1;
place = (506, -20);
target = down;
type = TopGhost;
},
{
place = (90, 31);
place = (90, 31);
type = Stem;
},
{
place = (461, 31);
place = (461, 31);
type = Stem;
},
{
horizontal = 1;
place = (-24, 32);
place = (-24, 32);
type = Stem;
},
{
place = (467, 25);
place = (467, 25);
type = Stem;
}
);
layerId = m01;
shapes = (
{
closed = 1;
nodes = (
(615,-6,o),
(618,-2,o),
(618,3,cs),
(618,16,ls),
(618,21,o),
(616,23,o),
(611,21,cs),
(591,14,o),
(577,12,o),
(566,12,cs),
(524,12,o),
(492,44,o),
(492,116,cs),
(492,498,ls),
(492,503,o),
(489,506,o),
(484,506,cs),
(469,506,ls),
(464,506,o),
(461,503,o),
(461,498,cs),
(461,201,ls),
(461,66,o),
(369,8,o),
(293,8,cs),
(192,8,o),
(121,67,o),
(121,174,cs),
(121,498,ls),
(121,500,o),
(121,501,o),
(120,503,cs),
(119,504,o),
(118,505,o),
(113,506,c),
(98,506,ls),
(96,506,o),
(95,506,o),
(90,498,c),
(90,-235,ls),
(90,-240,o),
(93,-243,o),
(98,-243,cs),
(113,-243,ls),
(118,-243,o),
(121,-240,o),
(121,-235,cs),
(121,78,l),
(143,17,o),
(209,-24,o),
(290,-24,cs),
(360,-24,o),
(444,21,o),
(467,108,c),
(470,26,o),
(513,-15,o),
(564,-15,cs),
(578,-15,o),
(594,-13,o),
(610,-8,cs)
);
}
);
vertWidth = 1000;
width = 711;
}
);
note = cid00159;
unicode = 181;
}
{
glyphname = paragraph.full;
layers = (
{
hints = (
{
horizontal = 1;
place = (769, 29);
place = (769, 29);
type = Stem;
},
{
place = (463, 32);
place = (463, 32);
type = Stem;
},
{
place = (637, 32);
place = (637, 32);
type = Stem;
}
);
layerId = m01;
shapes = (
{
closed = 1;
nodes = (
(495,769,l),
(637,769,l),
(637,-53,ls),
(637,-59,o),
(640,-62,o),
(646,-62,cs),
(660,-62,ls),
(666,-62,o),
(669,-59,o),
(669,-53,cs),
(669,789,ls),
(669,795,o),
(666,798,o),
(660,798,cs),
(441,798,ls),
(297,798,o),
(204,704,o),
(204,561,cs),
(204,412,o),
(300,323,o),
(443,323,cs),
(463,324,l),
(463,-53,ls),
(463,-59,o),
(466,-62,o),
(472,-62,cs),
(486,-62,ls),
(492,-62,o),
(495,-59,o),
(495,-53,cs)
);
}
);
vertWidth = 1000;
width = 1000;
}
);
note = cid00778;
unicode = 182;
}
{
glyphname = periodcentered;
layers = (
{
hints = (
{
horizontal = 1;
place = (294, 73);
place = (294, 73);
type = Stem;
},
{
place = (126, 73);
place = (126, 73);
type = Stem;
}
);
layerId = m01;
shapes = (
{
closed = 1;
nodes = (
(184,294,o),
(199,309,o),
(199,331,cs),
(199,352,o),
(184,367,o),
(162,367,cs),
(141,367,o),
(126,352,o),
(126,331,cs),
(126,309,o),
(141,294,o),
(162,294,cs)
);
}
);
vertWidth = 1000;
width = 325;
}
);
note = cid00117;
unicode = (183,8729);
}
{
glyphname = cedillacomb;
layers = (
{
hints = (
{
horizontal = 1;
place = (-239, 30);
place = (-239, 30);
type = Stem;
},
{
horizontal = 1;
place = (-115, 31);
place = (-115, 31);
type = Stem;
},
{
place = (333, 33);
place = (333, 33);
type = Stem;
}
);
layerId = m01;
shapes = (
{
closed = 1;
nodes = (
(174,-194,o),
(171,-196,o),
(171,-201,cs),
(171,-216,ls),
(171,-237,o),
(240,-239,o),
(254,-239,cs),
(322,-239,o),
(366,-206,o),
(366,-162,cs),
(366,-115,o),
(318,-84,o),
(249,-84,c),
(275,-8,ls),
(277,-3,o),
(275,0,o),
(270,0,cs),
(251,0,ls),
(246,0,o),
(242,-3,o),
(240,-8,cs),
(206,-108,ls),
(204,-113,o),
(206,-116,o),
(211,-116,cs),
(250,-115,ls),
(293,-115,o),
(333,-133,o),
(333,-162,cs),
(333,-190,o),
(305,-209,o),
(258,-209,cs),
(229,-209,o),
(204,-204,o),
(179,-196,cs)
);
}
);
vertWidth = 1000;
width = 500;
}
);
note = cid00134;
unicode = (184,807);
}
{
glyphname = onesuperior;
layers = (
{
hints = (
{
horizontal = 1;
place = (761, -20);
target = down;
type = TopGhost;
},
{
place = (223, 31);
place = (223, 31);
type = Stem;
}
);
layerId = m01;
shapes = (
{
closed = 1;
nodes = (
(223,714,l),
(223,344,ls),
(223,339,o),
(225,337,o),
(229,337,cs),
(248,337,ls),
(252,337,o),
(254,339,o),
(254,344,cs),
(254,755,ls),
(254,759,o),
(252,761,o),
(248,761,cs),
(235,761,ls),
(232,761,o),
(231,761,o),
(228,759,cs),
(119,684,ls),
(116,682,o),
(115,680,o),
(117,676,cs),
(120,670,ls),
(122,665,o),
(124,665,o),
(129,667,cs)
);
}
);
vertWidth = 1000;
width = 411;
}
);
note = cid00160;
unicode = 185;
}
{
glyphname = ordmasculine;
layers = (
{
hints = (
{
horizontal = 1;
place = (326, 29);
place = (326, 29);
type = Stem;
},
{
horizontal = 1;
place = (741, 28);
place = (741, 28);
type = Stem;
},
{
place = (52, 32);
place = (52, 32);
type = Stem;
},
{
place = (434, 32);
place = (434, 32);
type = Stem;
}
);
layerId = m01;
shapes = (
{
closed = 1;
nodes = (
(384,326,o),
(466,420,o),
(466,548,cs),
(466,675,o),
(384,769,o),
(259,769,cs),
(135,769,o),
(52,675,o),
(52,548,cs),
(52,420,o),
(135,326,o),
(259,326,cs)
);
},
{
closed = 1;
nodes = (
(156,355,o),
(84,432,o),
(84,548,cs),
(84,663,o),
(156,741,o),
(259,741,cs),
(362,741,o),
(434,663,o),
(434,548,cs),
(434,432,o),
(362,355,o),
(259,355,cs)
);
}
);
vertWidth = 1000;
width = 518;
}
);
note = cid00144;
unicode = 186;
}
{
glyphname = guillemetright;
layers = (
{
hints = (
{
horizontal = 1;
place = (105, 452);
place = (105, 452);
type = Stem;
},
{
place = (73, 443);
place = (73, 443);
type = Stem;
}
);
layerId = m01;
shapes = (
{
closed = 1;
nodes = (
(84,555,ls),
(78,560,o),
(73,557,o),
(73,549,cs),
(73,528,ls),
(73,523,o),
(74,520,o),
(78,517,cs),
(302,331,l),
(78,145,ls),
(74,142,o),
(73,138,o),
(73,134,cs),
(73,112,ls),
(73,104,o),
(78,102,o),
(84,107,cs),
(344,325,ls),
(348,328,o),
(348,332,o),
(344,335,cs)
);
},
{
closed = 1;
nodes = (
(482,331,l),
(258,145,ls),
(254,142,o),
(253,138,o),
(253,134,cs),
(253,112,ls),
(253,104,o),
(258,102,o),
(264,107,cs),
(511,315,ls),
(514,318,o),
(516,322,o),
(516,326,cs),
(516,335,ls),
(516,340,o),
(514,343,o),
(511,346,cs),
(264,555,ls),
(258,560,o),
(253,557,o),
(253,549,cs),
(253,528,ls),
(253,523,o),
(254,520,o),
(258,517,cs)
);
}
);
vertWidth = 1000;
width = 574;
}
);
note = cid00123;
unicode = 187;
}
{
glyphname = onequarter;
layers = (
{
hints = (
{
horizontal = 1;
place = (86, 31);
place = (86, 31);
type = Stem;
},
{
horizontal = 1;
place = (761, -20);
target = down;
type = TopGhost;
},
{
place = (223, 31);
place = (223, 31);
type = Stem;
},
{
place = (782, 31);
place = (782, 31);
type = Stem;
},
{
horizontal = 1;
place = (-13, 130);
place = (-13, 130);
type = Stem;
}
);
layerId = m01;
shapes = (
{
closed = 1;
nodes = (
(223,714,l),
(223,344,ls),
(223,339,o),
(225,337,o),
(229,337,cs),
(248,337,ls),
(252,337,o),
(254,339,o),
(254,344,cs),
(254,755,ls),
(254,759,o),
(252,761,o),
(248,761,cs),
(235,761,ls),
(232,761,o),
(231,761,o),
(228,759,cs),
(119,684,ls),
(116,682,o),
(115,680,o),
(117,676,cs),
(120,670,ls),
(122,665,o),
(124,665,o),
(129,667,cs)
);
},
{
closed = 1;
nodes = (
(217,-2,l),
(214,-8,o),
(216,-13,o),
(223,-13,cs),
(241,-13,ls),
(245,-13,o),
(247,-12,o),
(250,-8,cs),
(732,751,ls),
(735,756,o),
(733,761,o),
(727,761,cs),
(709,761,ls),
(704,761,o),
(703,760,o),
(699,756,c)
);
},
{
closed = 1;
nodes = (
(782,86,l),
(782,-7,ls),
(782,-11,o),
(784,-13,o),
(788,-13,cs),
(807,-13,ls),
(811,-13,o),
(813,-11,o),
(813,-7,cs),
(813,86,l),
(880,86,ls),
(884,86,o),
(886,89,o),
(886,93,cs),
(886,110,ls),
(886,115,o),
(883,117,o),
(880,117,cs),
(813,117,l),
(813,405,ls),
(813,409,o),
(811,411,o),
(807,411,cs),
(795,411,ls),
(792,411,o),
(789,409,o),
(787,407,cs),
(559,105,ls),
(557,102,o),
(556,101,o),
(556,98,cs),
(556,93,ls),
(556,88,o),
(559,86,o),
(562,86,cs)
);
},
{
closed = 1;
nodes = (
(782,353,l),
(782,117,l),
(603,117,l)
);
}
);
vertWidth = 1000;
width = 928;
}
);
note = cid00161;
unicode = 188;
}
{
glyphname = onehalf;
layers = (
{
hints = (
{
horizontal = 1;
place = (-13, 31);
place = (-13, 31);
type = Stem;
},
{
horizontal = 1;
place = (390, 32);
place = (390, 32);
type = Stem;
},
{
horizontal = 1;
place = (761, -20);
target = down;
type = TopGhost;
},
{
place = (223, 31);
place = (223, 31);
type = Stem;
},
{
place = (814, 33);
place = (814, 33);
type = Stem;
}
);
layerId = m01;
shapes = (
{
closed = 1;
nodes = (
(628,18,l),
(709,97,ls),
(831,216,o),
(847,259,o),
(847,311,cs),
(847,377,o),
(790,422,o),
(720,422,cs),
(650,422,o),
(595,384,o),
(574,322,cs),
(573,318,o),
(574,315,o),
(578,314,cs),
(596,310,ls),
(599,309,o),
(602,309,o),
(605,314,c),
(625,366,o),
(666,390,o),
(720,390,cs),
(775,390,o),
(814,358,o),
(814,311,cs),
(814,264,o),
(798,228,o),
(687,117,cs),
(575,6,ls),
(573,4,o),
(572,2,o),
(572,-1,cs),
(572,-7,ls),
(572,-11,o),
(575,-13,o),
(578,-13,cs),
(864,-13,ls),
(868,-13,o),
(870,-10,o),
(870,-7,cs),
(870,11,ls),
(870,15,o),
(868,18,o),
(864,18,cs)
);
},
{
closed = 1;
nodes = (
(223,714,l),
(223,344,ls),
(223,339,o),
(225,337,o),
(229,337,cs),
(248,337,ls),
(252,337,o),
(254,339,o),
(254,344,cs),
(254,755,ls),
(254,759,o),
(252,761,o),
(248,761,cs),
(235,761,ls),
(232,761,o),
(231,761,o),
(228,759,cs),
(119,684,ls),
(116,682,o),
(115,680,o),
(117,676,cs),
(120,670,ls),
(122,665,o),
(124,665,o),
(129,667,cs)
);
},
{
closed = 1;
nodes = (
(191,-2,l),
(188,-8,o),
(190,-13,o),
(196,-13,cs),
(214,-13,ls),
(218,-13,o),
(220,-12,o),
(224,-8,c),
(706,751,ls),
(709,756,o),
(707,761,o),
(701,761,cs),
(683,761,ls),
(677,761,o),
(676,760,o),
(673,756,cs)
);
}
);
vertWidth = 1000;
width = 928;
}
);
note = cid00162;
unicode = 189;
}
{
glyphname = threequarters;
layers = (
{
hints = (
{
horizontal = 1;
place = (86, 31);
place = (86, 31);
type = Stem;
},
{
horizontal = 1;
place = (327, 31);
place = (327, 31);
type = Stem;
},
{
horizontal = 1;
place = (545, 31);
place = (545, 31);
type = Stem;
},
{
horizontal = 1;
place = (740, 32);
place = (740, 32);
type = Stem;
},
{
place = (328, 33);
place = (328, 33);
type = Stem;
},
{
place = (782, 31);
place = (782, 31);
type = Stem;
},
{
horizontal = 1;
place = (-13, 130);
place = (-13, 130);
type = Stem;
},
{
horizontal = 1;
place = (761, -20);
target = down;
type = TopGhost;
},
{
place = (314, 33);
place = (314, 33);
type = Stem;
}
);
layerId = m01;
shapes = (
{
closed = 1;
nodes = (
(249,-2,l),
(246,-8,o),
(248,-13,o),
(254,-13,cs),
(272,-13,ls),
(276,-13,o),
(279,-12,o),
(282,-8,cs),
(764,751,ls),
(767,756,o),
(765,761,o),
(759,761,cs),
(741,761,ls),
(735,761,o),
(734,760,o),
(731,756,cs)
);
},
{
closed = 1;
nodes = (
(782,86,l),
(782,-7,ls),
(782,-11,o),
(784,-13,o),
(788,-13,cs),
(807,-13,ls),
(811,-13,o),
(813,-11,o),
(813,-7,cs),
(813,86,l),
(880,86,ls),
(884,86,o),
(886,89,o),
(886,93,cs),
(886,110,ls),
(886,115,o),
(883,117,o),
(880,117,cs),
(813,117,l),
(813,405,ls),
(813,409,o),
(811,411,o),
(807,411,cs),
(795,411,ls),
(792,411,o),
(789,409,o),
(787,407,cs),
(559,105,ls),
(557,102,o),
(556,101,o),
(556,98,cs),
(556,93,ls),
(556,88,o),
(559,86,o),
(562,86,cs)
);
},
{
closed = 1;
nodes = (
(55,437,ls),
(51,435,o),
(49,432,o),
(51,427,cs),
(74,365,o),
(138,327,o),
(205,327,cs),
(291,327,o),
(361,378,o),
(361,452,cs),
(361,506,o),
(326,546,o),
(272,561,c),
(320,578,o),
(347,618,o),
(347,661,cs),
(347,724,o),
(291,772,o),
(210,772,cs),
(139,772,o),
(84,734,o),
(65,676,cs),
(64,671,o),
(66,666,o),
(72,665,cs),
(85,662,ls),
(91,661,o),
(94,662,o),
(96,667,cs),
(112,712,o),
(154,740,o),
(210,740,cs),
(273,740,o),
(314,710,o),
(314,657,cs),
(314,613,o),
(276,576,o),
(212,576,cs),
(189,576,ls),
(184,576,o),
(180,573,o),
(180,567,cs),
(180,554,ls),
(180,548,o),
(184,545,o),
(189,545,cs),
(212,545,ls),
(285,545,o),
(328,505,o),
(328,454,cs),
(328,398,o),
(276,358,o),
(205,358,cs),
(143,358,o),
(97,393,o),
(78,439,cs),
(76,444,o),
(71,445,o),
(66,443,cs)
);
},
{
closed = 1;
nodes = (
(782,353,l),
(782,117,l),
(603,117,l)
);
}
);
vertWidth = 1000;
width = 928;
}
);
note = cid00163;
unicode = 190;
}
{
glyphname = questiondown;
layers = (
{
hints = (
{
horizontal = 1;
place = (-298, 34);
place = (-298, 34);
type = Stem;
},
{
horizontal = 1;
place = (102, 30);
place = (102, 30);
type = Stem;
},
{
place = (51, 35);
place = (51, 35);
type = Stem;
},
{
place = (301, 30);
place = (301, 30);
type = Stem;
},
{
horizontal = 1;
place = (429, 73);
place = (429, 73);
type = Stem;
},
{
place = (279, 74);
place = (279, 74);
type = Stem;
}
);
layerId = m01;
shapes = (
{
closed = 1;
nodes = (
(300,132,l),
(279,132,ls),
(139,132,o),
(51,35,o),
(51,-96,cs),
(51,-207,o),
(138,-298,o),
(268,-298,cs),
(384,-298,o),
(469,-233,o),
(506,-117,cs),
(507,-112,o),
(506,-108,o),
(501,-106,cs),
(486,-101,ls),
(480,-99,o),
(476,-101,o),
(474,-106,cs),
(438,-213,o),
(370,-264,o),
(268,-264,cs),
(154,-264,o),
(86,-191,o),
(86,-96,cs),
(86,20,o),
(156,102,o),
(277,102,cs),
(323,102,ls),
(329,102,o),
(332,104,o),
(332,110,cs),
(331,354,ls),
(331,360,o),
(328,362,o),
(322,362,cs),
(310,362,ls),
(304,362,o),
(301,360,o),
(301,354,cs)
);
},
{
closed = 1;
nodes = (
(295,502,o),
(279,487,o),
(279,465,cs),
(279,444,o),
(295,429,o),
(316,429,cs),
(337,429,o),
(353,444,o),
(353,465,cs),
(353,487,o),
(337,502,o),
(316,502,cs)
);
}
);
vertWidth = 1000;
width = 548;
}
);
note = cid00126;
unicode = 191;
}
{
glyphname = Agrave;
layers = (
{
hints = (
{
horizontal = 1;
place = (-13, 21);
target = up;
type = BottomGhost;
},
{
horizontal = 1;
place = (220, 33);
place = (220, 33);
type = Stem;
},
{
horizontal = 1;
place = (730, 31);
place = (730, 31);
type = Stem;
},
{
place = (32, 661);
place = (32, 661);
type = Stem;
}
);
layerId = m01;
shapes = (
{
closed = 1;
nodes = (
(157,220,l),
(567,220,l),
(657,-7,ls),
(659,-12,o),
(664,-13,o),
(668,-13,cs),
(686,-13,ls),
(692,-13,o),
(694,-9,o),
(692,-4,cs),
(386,755,ls),
(384,760,o),
(380,761,o),
(376,761,cs),
(349,761,ls),
(345,761,o),
(341,760,o),
(339,755,cs),
(33,-4,ls),
(31,-9,o),
(33,-13,o),
(39,-13,cs),
(55,-13,ls),
(59,-13,o),
(63,-12,o),
(65,-7,cs)
);
},
{
closed = 1;
nodes = (
(284,986,ls),
(279,986,o),
(278,984,o),
(281,980,cs),
(371,853,ls),
(374,849,o),
(379,847,o),
(384,847,cs),
(405,847,ls),
(410,847,o),
(412,849,o),
(409,854,cs),
(326,979,ls),
(323,984,o),
(319,986,o),
(314,986,cs)
);
},
{
closed = 1;
nodes = (
(362,730,l),
(553,253,l),
(170,253,l)
);
}
);
vertWidth = 1000;
width = 725;
}
);
note = cid00164;
unicode = 192;
}
{
glyphname = Acircumflex;
layers = (
{
hints = (
{
horizontal = 1;
place = (-13, 21);
target = up;
type = BottomGhost;
},
{
horizontal = 1;
place = (220, 33);
place = (220, 33);
type = Stem;
},
{
horizontal = 1;
place = (730, 31);
place = (730, 31);
type = Stem;
},
{
horizontal = 1;
place = (960, 26);
place = (960, 26);
type = Stem;
},
{
place = (32, 661);
place = (32, 661);
type = Stem;
},
{
horizontal = 1;
place = (847, 139);
place = (847, 139);
type = Stem;
}
);
layerId = m01;
shapes = (
{
closed = 1;
nodes = (
(157,220,l),
(567,220,l),
(657,-7,ls),
(659,-12,o),
(664,-13,o),
(668,-13,cs),
(686,-13,ls),
(692,-13,o),
(694,-9,o),
(692,-4,cs),
(386,755,ls),
(384,760,o),
(380,761,o),
(376,761,cs),
(349,761,ls),
(345,761,o),
(341,760,o),
(339,755,cs),
(33,-4,ls),
(31,-9,o),
(33,-13,o),
(39,-13,cs),
(55,-13,ls),
(59,-13,o),
(63,-12,o),
(65,-7,cs)
);
},
{
closed = 1;
nodes = (
(386,980,ls),
(383,984,o),
(378,986,o),
(373,986,cs),
(352,986,ls),
(347,986,o),
(342,984,o),
(339,980,cs),
(238,853,ls),
(235,849,o),
(236,847,o),
(241,847,cs),
(266,847,ls),
(271,847,o),
(276,849,o),
(279,853,cs),
(363,960,l),
(446,853,ls),
(449,849,o),
(454,847,o),
(459,847,cs),
(484,847,ls),
(489,847,o),
(490,849,o),
(487,853,cs)
);
},
{
closed = 1;
nodes = (
(362,730,l),
(553,253,l),
(170,253,l)
);
}
);
vertWidth = 1000;
width = 725;
}
);
note = cid00166;
unicode = 194;
}
{
glyphname = Atilde;
layers = (
{
hints = (
{
horizontal = 1;
place = (-13, 21);
target = up;
type = BottomGhost;
},
{
horizontal = 1;
place = (220, 33);
place = (220, 33);
type = Stem;
},
{
horizontal = 1;
place = (730, 31);
place = (730, 31);
type = Stem;
},
{
horizontal = 1;
place = (869, 30);
place = (869, 30);
type = Stem;
},
{
horizontal = 1;
place = (935, 30);
place = (935, 30);
type = Stem;
},
{
place = (32, 661);
place = (32, 661);
type = Stem;
},
{
place = (225, 35);
place = (225, 35);
type = Stem;
},
{
place = (463, 35);
place = (463, 35);
type = Stem;
}
);
layerId = m01;
shapes = (
{
closed = 1;
nodes = (
(157,220,l),
(567,220,l),
(657,-7,ls),
(659,-12,o),
(664,-13,o),
(668,-13,cs),
(686,-13,ls),
(692,-13,o),
(694,-9,o),
(692,-4,cs),
(386,755,ls),
(384,760,o),
(380,761,o),
(376,761,cs),
(349,761,ls),
(345,761,o),
(341,760,o),
(339,755,cs),
(33,-4,ls),
(31,-9,o),
(33,-13,o),
(39,-13,cs),
(55,-13,ls),
(59,-13,o),
(63,-12,o),
(65,-7,cs)
);
},
{
closed = 1;
nodes = (
(225,877,o),
(228,874,o),
(233,874,cs),
(252,874,ls),
(257,874,o),
(260,877,o),
(260,882,cs),
(263,919,o),
(281,935,o),
(301,935,cs),
(341,935,o),
(359,869,o),
(421,869,cs),
(464,869,o),
(495,900,o),
(498,952,cs),
(498,957,o),
(495,960,o),
(490,960,cs),
(471,960,ls),
(466,960,o),
(463,957,o),
(463,952,cs),
(460,915,o),
(442,899,o),
(422,899,cs),
(382,899,o),
(364,965,o),
(302,965,cs),
(259,965,o),
(228,934,o),
(225,882,cs)
);
},
{
closed = 1;
nodes = (
(362,730,l),
(553,253,l),
(170,253,l)
);
}
);
vertWidth = 1000;
width = 725;
}
);
note = cid00167;
unicode = 195;
}
{
glyphname = Adieresis;
layers = (
{
hints = (
{
horizontal = 1;
place = (-13, 21);
target = up;
type = BottomGhost;
},
{
horizontal = 1;
place = (220, 33);
place = (220, 33);
type = Stem;
},
{
horizontal = 1;
place = (730, 31);
place = (730, 31);
type = Stem;
},
{
horizontal = 1;
place = (879, 68);
place = (879, 68);
type = Stem;
},
{
place = (256, 69);
place = (256, 69);
type = Stem;
},
{
place = (398, 69);
place = (398, 69);
type = Stem;
}
);
layerId = m01;
shapes = (
{
closed = 1;
nodes = (
(157,220,l),
(567,220,l),
(657,-7,ls),
(659,-12,o),
(664,-13,o),
(668,-13,cs),
(686,-13,ls),
(692,-13,o),
(694,-9,o),
(692,-4,cs),
(386,755,ls),
(384,760,o),
(380,761,o),
(376,761,cs),
(349,761,ls),
(345,761,o),
(341,760,o),
(339,755,cs),
(33,-4,ls),
(31,-9,o),
(33,-13,o),
(39,-13,cs),
(55,-13,ls),
(59,-13,o),
(63,-12,o),
(65,-7,cs)
);
},
{
closed = 1;
nodes = (
(362,730,l),
(553,253,l),
(170,253,l)
);
},
{
closed = 1;
nodes = (
(398,895,o),
(413,879,o),
(433,879,cs),
(452,879,o),
(467,894,o),
(467,913,cs),
(467,931,o),
(453,947,o),
(433,947,cs),
(413,947,o),
(398,931,o),
(398,913,cs)
);
},
{
closed = 1;
nodes = (
(256,895,o),
(271,879,o),
(291,879,cs),
(310,879,o),
(325,894,o),
(325,913,cs),
(325,931,o),
(311,947,o),
(291,947,cs),
(271,947,o),
(256,931,o),
(256,913,cs)
);
}
);
vertWidth = 1000;
width = 725;
}
);
note = cid00168;
unicode = 196;
}
{
glyphname = AE;
layers = (
{
hints = (
{
horizontal = 1;
place = (-13, 33);
place = (-13, 33);
type = Stem;
},
{
horizontal = 1;
place = (220, 33);
place = (220, 33);
type = Stem;
},
{
horizontal = 1;
place = (373, 33);
place = (373, 33);
type = Stem;
},
{
horizontal = 1;
place = (729, 32);
place = (729, 32);
type = Stem;
},
{
place = (533, 33);
place = (533, 33);
type = Stem;
},
{
horizontal = 1;
place = (728, 33);
place = (728, 33);
type = Stem;
}
);
layerId = m01;
shapes = (
{
closed = 1;
nodes = (
(521,761,ls),
(516,761,o),
(512,759,o),
(509,754,cs),
(34,-6,ls),
(31,-11,o),
(33,-13,o),
(38,-13,cs),
(56,-13,ls),
(61,-13,o),
(65,-11,o),
(68,-6,cs),
(211,220,l),
(533,220,l),
(533,-5,ls),
(533,-10,o),
(536,-13,o),
(541,-13,cs),
(997,-13,ls),
(1002,-13,o),
(1005,-10,o),
(1005,-5,cs),
(1005,11,ls),
(1005,17,o),
(1002,20,o),
(997,20,cs),
(566,20,l),
(566,373,l),
(951,373,ls),
(957,373,o),
(960,376,o),
(960,382,cs),
(960,397,ls),
(960,403,o),
(957,406,o),
(951,406,cs),
(566,406,l),
(566,729,l),
(985,729,ls),
(990,729,o),
(994,732,o),
(994,737,cs),
(994,753,ls),
(994,758,o),
(990,761,o),
(985,761,cs)
);
},
{
closed = 1;
nodes = (
(533,253,l),
(232,253,l),
(533,728,l)
);
}
);
vertWidth = 1000;
width = 1047;
}
);
note = cid00139;
unicode = 198;
}
{
glyphname = Ccedilla;
layers = (
{
hints = (
{
horizontal = 1;
place = (-239, 30);
place = (-239, 30);
type = Stem;
},
{
horizontal = 1;
place = (-115, 31);
place = (-115, 31);
type = Stem;
},
{
horizontal = 1;
place = (-28, 34);
place = (-28, 34);
type = Stem;
},
{
horizontal = 1;
place = (742, 34);
place = (742, 34);
type = Stem;
},
{
place = (63, 35);
place = (63, 35);
type = Stem;
},
{
place = (505, 33);
place = (505, 33);
type = Stem;
}
);
layerId = m01;
shapes = (
{
closed = 1;
nodes = (
(725,219,ls),
(720,221,o),
(715,219,o),
(713,214,cs),
(668,83,o),
(567,6,o),
(420,6,cs),
(209,6,o),
(98,162,o),
(98,374,cs),
(98,585,o),
(209,742,o),
(420,742,cs),
(561,742,o),
(648,679,o),
(698,563,c),
(701,559,o),
(705,557,o),
(709,559,cs),
(726,565,ls),
(731,567,o),
(733,571,o),
(731,576,cs),
(678,702,o),
(573,776,o),
(420,776,cs),
(206,776,o),
(63,623,o),
(63,374,cs),
(63,131,o),
(199,-21,o),
(405,-28,c),
(378,-108,ls),
(376,-113,o),
(378,-116,o),
(383,-116,cs),
(422,-115,ls),
(465,-115,o),
(505,-133,o),
(505,-162,cs),
(505,-190,o),
(477,-209,o),
(430,-209,cs),
(401,-209,o),
(376,-204,o),
(351,-196,cs),
(346,-194,o),
(343,-196,o),
(343,-201,cs),
(343,-216,ls),
(343,-237,o),
(412,-239,o),
(426,-239,cs),
(494,-239,o),
(538,-206,o),
(538,-162,cs),
(538,-115,o),
(490,-84,o),
(421,-84,c),
(440,-28,l),
(599,-20,o),
(700,72,o),
(746,203,c),
(747,209,o),
(745,212,o),
(741,214,c)
);
}
);
vertWidth = 1000;
width = 738;
}
);
note = cid00170;
unicode = 199;
}
{
glyphname = Ecircumflex;
layers = (
{
hints = (
{
horizontal = 1;
place = (-13, 33);
place = (-13, 33);
type = Stem;
},
{
horizontal = 1;
place = (373, 33);
place = (373, 33);
type = Stem;
},
{
horizontal = 1;
place = (729, 32);
place = (729, 32);
type = Stem;
},
{
horizontal = 1;
place = (960, 26);
place = (960, 26);
type = Stem;
},
{
place = (106, 33);
place = (106, 33);
type = Stem;
},
{
horizontal = 1;
place = (847, 139);
place = (847, 139);
type = Stem;
}
);
layerId = m01;
shapes = (
{
closed = 1;
nodes = (
(139,20,l),
(139,373,l),
(524,373,ls),
(530,373,o),
(533,376,o),
(533,382,cs),
(533,397,ls),
(533,403,o),
(530,406,o),
(524,406,cs),
(139,406,l),
(139,729,l),
(558,729,ls),
(563,729,o),
(567,732,o),
(567,737,cs),
(567,753,ls),
(567,758,o),
(563,761,o),
(558,761,cs),
(114,761,ls),
(109,761,o),
(106,758,o),
(106,753,cs),
(106,-5,ls),
(106,-10,o),
(109,-13,o),
(114,-13,cs),
(570,-13,ls),
(575,-13,o),
(578,-10,o),
(578,-5,cs),
(578,11,ls),
(578,17,o),
(575,20,o),
(570,20,cs)
);
},
{
closed = 1;
nodes = (
(366,980,ls),
(363,984,o),
(358,986,o),
(353,986,cs),
(332,986,ls),
(327,986,o),
(322,984,o),
(319,980,cs),
(218,853,ls),
(215,849,o),
(216,847,o),
(221,847,cs),
(246,847,ls),
(251,847,o),
(256,849,o),
(259,853,cs),
(343,960,l),
(426,853,ls),
(429,849,o),
(434,847,o),
(439,847,cs),
(464,847,ls),
(469,847,o),
(470,849,o),
(467,853,cs)
);
}
);
vertWidth = 1000;
width = 620;
}
);
note = cid00173;
unicode = 202;
}
{
glyphname = Igrave;
layers = (
{
hints = (
{
horizontal = 1;
place = (-13, 21);
target = up;
type = BottomGhost;
},
{
horizontal = 1;
place = (761, -20);
target = down;
type = TopGhost;
},
{
place = (106, 33);
place = (106, 33);
type = Stem;
}
);
layerId = m01;
shapes = (
{
closed = 1;
nodes = (
(106,-5,ls),
(106,-10,o),
(109,-13,o),
(114,-13,cs),
(131,-13,ls),
(136,-13,o),
(139,-10,o),
(139,-5,cs),
(139,753,ls),
(139,758,o),
(136,761,o),
(131,761,cs),
(114,761,ls),
(109,761,o),
(106,758,o),
(106,753,cs)
);
},
{
closed = 1;
nodes = (
(45,986,ls),
(40,986,o),
(39,984,o),
(42,980,cs),
(132,853,ls),
(135,849,o),
(140,847,o),
(145,847,cs),
(166,847,ls),
(171,847,o),
(173,849,o),
(170,854,cs),
(87,979,ls),
(84,984,o),
(80,986,o),
(75,986,cs)
);
}
);
vertWidth = 1000;
width = 245;
}
);
note = cid00175;
unicode = 204;
}
{
glyphname = Iacute;
layers = (
{
hints = (
{
horizontal = 1;
place = (-13, 21);
target = up;
type = BottomGhost;
},
{
horizontal = 1;
place = (761, -20);
target = down;
type = TopGhost;
},
{
place = (106, 33);
place = (106, 33);
type = Stem;
}
);
layerId = m01;
shapes = (
{
closed = 1;
nodes = (
(106,-5,ls),
(106,-10,o),
(109,-13,o),
(114,-13,cs),
(131,-13,ls),
(136,-13,o),
(139,-10,o),
(139,-5,cs),
(139,753,ls),
(139,758,o),
(136,761,o),
(131,761,cs),
(114,761,ls),
(109,761,o),
(106,758,o),
(106,753,cs)
);
},
{
closed = 1;
nodes = (
(171,986,ls),
(166,986,o),
(162,984,o),
(159,979,cs),
(76,854,ls),
(73,849,o),
(75,847,o),
(80,847,cs),
(101,847,ls),
(106,847,o),
(111,849,o),
(114,853,cs),
(204,980,ls),
(207,984,o),
(206,986,o),
(201,986,cs)
);
}
);
vertWidth = 1000;
width = 245;
}
);
note = cid00176;
unicode = 205;
}
{
glyphname = Icircumflex;
layers = (
{
hints = (
{
horizontal = 1;
place = (-13, 21);
target = up;
type = BottomGhost;
},
{
horizontal = 1;
place = (761, -20);
target = down;
type = TopGhost;
},
{
horizontal = 1;
place = (960, 26);
place = (960, 26);
type = Stem;
},
{
place = (106, 33);
place = (106, 33);
type = Stem;
},
{
horizontal = 1;
place = (847, 139);
place = (847, 139);
type = Stem;
}
);
layerId = m01;
shapes = (
{
closed = 1;
nodes = (
(106,-5,ls),
(106,-10,o),
(109,-13,o),
(114,-13,cs),
(131,-13,ls),
(136,-13,o),
(139,-10,o),
(139,-5,cs),
(139,753,ls),
(139,758,o),
(136,761,o),
(131,761,cs),
(114,761,ls),
(109,761,o),
(106,758,o),
(106,753,cs)
);
},
{
closed = 1;
nodes = (
(147,980,ls),
(144,984,o),
(139,986,o),
(134,986,cs),
(113,986,ls),
(108,986,o),
(103,984,o),
(100,980,cs),
(-1,853,ls),
(-4,849,o),
(-3,847,o),
(2,847,cs),
(27,847,ls),
(32,847,o),
(37,849,o),
(40,853,cs),
(124,960,l),
(207,853,ls),
(210,849,o),
(215,847,o),
(220,847,cs),
(245,847,ls),
(250,847,o),
(251,849,o),
(248,853,cs)
);
}
);
vertWidth = 1000;
width = 245;
}
);
note = cid00177;
unicode = 206;
}
{
glyphname = Idieresis;
layers = (
{
hints = (
{
horizontal = 1;
place = (-13, 21);
target = up;
type = BottomGhost;
},
{
horizontal = 1;
place = (761, -20);
target = down;
type = TopGhost;
},
{
horizontal = 1;
place = (879, 68);
place = (879, 68);
type = Stem;
},
{
place = (106, 33);
place = (106, 33);
type = Stem;
},
{
place = (17, 69);
place = (17, 69);
type = Stem;
},
{
place = (159, 69);
place = (159, 69);
type = Stem;
}
);
layerId = m01;
shapes = (
{
closed = 1;
nodes = (
(106,-5,ls),
(106,-10,o),
(109,-13,o),
(114,-13,cs),
(131,-13,ls),
(136,-13,o),
(139,-10,o),
(139,-5,cs),
(139,753,ls),
(139,758,o),
(136,761,o),
(131,761,cs),
(114,761,ls),
(109,761,o),
(106,758,o),
(106,753,cs)
);
},
{
closed = 1;
nodes = (
(159,895,o),
(174,879,o),
(194,879,cs),
(213,879,o),
(228,894,o),
(228,913,cs),
(228,931,o),
(214,947,o),
(194,947,cs),
(174,947,o),
(159,931,o),
(159,913,cs)
);
},
{
closed = 1;
nodes = (
(17,895,o),
(32,879,o),
(52,879,cs),
(71,879,o),
(86,894,o),
(86,913,cs),
(86,931,o),
(72,947,o),
(52,947,cs),
(32,947,o),
(17,931,o),
(17,913,cs)
);
}
);
vertWidth = 1000;
width = 245;
}
);
note = cid00178;
unicode = 207;
}
{
glyphname = Eth;
layers = (
{
hints = (
{
horizontal = 1;
place = (-13, 33);
place = (-13, 33);
type = Stem;
},
{
horizontal = 1;
place = (359, 31);
place = (359, 31);
type = Stem;
},
{
horizontal = 1;
place = (729, 32);
place = (729, 32);
type = Stem;
},
{
place = (106, 33);
place = (106, 33);
type = Stem;
},
{
place = (673, 35);
place = (673, 35);
type = Stem;
}
);
layerId = m01;
shapes = (
{
closed = 1;
nodes = (
(106,390,l),
(-9,390,ls),
(-14,390,o),
(-17,387,o),
(-17,382,cs),
(-17,367,ls),
(-17,362,o),
(-14,359,o),
(-9,359,cs),
(106,359,l),
(106,-5,ls),
(106,-10,o),
(109,-13,o),
(114,-13,cs),
(319,-13,ls),
(589,-13,o),
(708,145,o),
(708,374,cs),
(708,603,o),
(589,761,o),
(319,761,cs),
(114,761,ls),
(109,761,o),
(106,758,o),
(106,753,cs)
);
},
{
closed = 1;
nodes = (
(139,20,l),
(139,359,l),
(426,359,ls),
(431,359,o),
(434,362,o),
(434,367,cs),
(434,382,ls),
(434,387,o),
(431,390,o),
(426,390,cs),
(139,390,l),
(139,729,l),
(313,729,ls),
(558,729,o),
(673,593,o),
(673,374,cs),
(673,156,o),
(558,20,o),
(313,20,cs)
);
}
);
vertWidth = 1000;
width = 771;
}
);
note = cid00179;
unicode = 208;
}
{
glyphname = Ntilde;
layers = (
{
hints = (
{
horizontal = 1;
place = (-13, 21);
target = up;
type = BottomGhost;
},
{
horizontal = 1;
place = (761, -20);
target = down;
type = TopGhost;
},
{
horizontal = 1;
place = (869, 30);
place = (869, 30);
type = Stem;
},
{
horizontal = 1;
place = (935, 30);
place = (935, 30);
type = Stem;
},
{
place = (106, 33);
place = (106, 33);
type = Stem;
},
{
place = (251, 35);
place = (251, 35);
type = Stem;
},
{
place = (489, 35);
place = (489, 35);
type = Stem;
},
{
place = (635, 34);
place = (635, 34);
type = Stem;
}
);
layerId = m01;
shapes = (
{
closed = 1;
nodes = (
(635,44,l),
(145,756,l),
(141,760,o),
(139,761,o),
(135,761,cs),
(114,761,ls),
(109,761,o),
(106,758,o),
(106,753,cs),
(106,-5,ls),
(106,-10,o),
(109,-13,o),
(114,-13,cs),
(131,-13,ls),
(136,-13,o),
(139,-10,o),
(139,-5,cs),
(139,704,l),
(630,-8,ls),
(633,-12,o),
(635,-13,o),
(639,-13,cs),
(660,-13,ls),
(666,-13,o),
(669,-10,o),
(669,-5,cs),
(669,753,ls),
(669,758,o),
(666,761,o),
(660,761,cs),
(644,761,ls),
(638,761,o),
(635,758,o),
(635,753,cs)
);
},
{
closed = 1;
nodes = (
(251,877,o),
(254,874,o),
(259,874,cs),
(278,874,ls),
(283,874,o),
(286,877,o),
(286,882,cs),
(289,919,o),
(307,935,o),
(327,935,cs),
(367,935,o),
(385,869,o),
(447,869,cs),
(490,869,o),
(521,900,o),
(524,952,cs),
(524,957,o),
(521,960,o),
(516,960,cs),
(497,960,ls),
(492,960,o),
(489,957,o),
(489,952,cs),
(486,915,o),
(468,899,o),
(448,899,cs),
(408,899,o),
(390,965,o),
(328,965,cs),
(285,965,o),
(254,934,o),
(251,882,cs)
);
}
);
vertWidth = 1000;
width = 774;
}
);
note = cid00180;
unicode = 209;
}
{
glyphname = Ograve;
layers = (
{
hints = (
{
horizontal = 1;
place = (-28, 34);
place = (-28, 34);
type = Stem;
},
{
horizontal = 1;
place = (742, 34);
place = (742, 34);
type = Stem;
},
{
place = (63, 35);
place = (63, 35);
type = Stem;
},
{
place = (750, 35);
place = (750, 35);
type = Stem;
}
);
layerId = m01;
shapes = (
{
closed = 1;
nodes = (
(638,-28,o),
(785,126,o),
(785,374,cs),
(785,622,o),
(638,776,o),
(424,776,cs),
(210,776,o),
(63,622,o),
(63,374,cs),
(63,126,o),
(210,-28,o),
(424,-28,cs)
);
},
{
closed = 1;
nodes = (
(346,984,ls),
(341,984,o),
(340,982,o),
(343,978,cs),
(433,851,ls),
(436,847,o),
(441,845,o),
(446,845,cs),
(467,845,ls),
(472,845,o),
(474,847,o),
(471,852,cs),
(388,977,ls),
(385,982,o),
(381,984,o),
(376,984,cs)
);
},
{
closed = 1;
nodes = (
(213,6,o),
(98,163,o),
(98,374,cs),
(98,584,o),
(213,742,o),
(424,742,cs),
(635,742,o),
(750,585,o),
(750,374,cs),
(750,164,o),
(635,6,o),
(424,6,cs)
);
}
);
vertWidth = 1000;
width = 848;
}
);
note = cid00181;
unicode = 210;
}
{
glyphname = Ocircumflex;
layers = (
{
hints = (
{
horizontal = 1;
place = (-28, 34);
place = (-28, 34);
type = Stem;
},
{
horizontal = 1;
place = (742, 34);
place = (742, 34);
type = Stem;
},
{
horizontal = 1;
place = (958, 26);
place = (958, 26);
type = Stem;
},
{
place = (63, 35);
place = (63, 35);
type = Stem;
},
{
place = (750, 35);
place = (750, 35);
type = Stem;
},
{
horizontal = 1;
place = (845, 139);
place = (845, 139);
type = Stem;
}
);
layerId = m01;
shapes = (
{
closed = 1;
nodes = (
(638,-28,o),
(785,126,o),
(785,374,cs),
(785,622,o),
(638,776,o),
(424,776,cs),
(210,776,o),
(63,622,o),
(63,374,cs),
(63,126,o),
(210,-28,o),
(424,-28,cs)
);
},
{
closed = 1;
nodes = (
(448,978,ls),
(445,982,o),
(440,984,o),
(435,984,cs),
(414,984,ls),
(409,984,o),
(404,982,o),
(401,978,cs),
(300,851,ls),
(297,847,o),
(298,845,o),
(303,845,cs),
(328,845,ls),
(333,845,o),
(338,847,o),
(341,851,cs),
(425,958,l),
(508,851,ls),
(511,847,o),
(516,845,o),
(521,845,cs),
(546,845,ls),
(551,845,o),
(552,847,o),
(549,851,cs)
);
},
{
closed = 1;
nodes = (
(213,6,o),
(98,163,o),
(98,374,cs),
(98,584,o),
(213,742,o),
(424,742,cs),
(635,742,o),
(750,585,o),
(750,374,cs),
(750,164,o),
(635,6,o),
(424,6,cs)
);
}
);
vertWidth = 1000;
width = 848;
}
);
note = cid00183;
unicode = 212;
}
{
glyphname = Otilde;
layers = (
{
hints = (
{
horizontal = 1;
place = (-28, 34);
place = (-28, 34);
type = Stem;
},
{
horizontal = 1;
place = (742, 34);
place = (742, 34);
type = Stem;
},
{
horizontal = 1;
place = (867, 30);
place = (867, 30);
type = Stem;
},
{
horizontal = 1;
place = (933, 30);
place = (933, 30);
type = Stem;
},
{
place = (63, 35);
place = (63, 35);
type = Stem;
},
{
place = (287, 35);
place = (287, 35);
type = Stem;
},
{
place = (525, 35);
place = (525, 35);
type = Stem;
},
{
place = (750, 35);
place = (750, 35);
type = Stem;
}
);
layerId = m01;
shapes = (
{
closed = 1;
nodes = (
(638,-28,o),
(785,126,o),
(785,374,cs),
(785,622,o),
(638,776,o),
(424,776,cs),
(210,776,o),
(63,622,o),
(63,374,cs),
(63,126,o),
(210,-28,o),
(424,-28,cs)
);
},
{
closed = 1;
nodes = (
(287,875,o),
(290,872,o),
(295,872,cs),
(314,872,ls),
(319,872,o),
(322,875,o),
(322,880,cs),
(325,917,o),
(343,933,o),
(363,933,cs),
(403,933,o),
(421,867,o),
(483,867,cs),
(526,867,o),
(557,898,o),
(560,950,cs),
(560,955,o),
(557,958,o),
(552,958,cs),
(533,958,ls),
(528,958,o),
(525,955,o),
(525,950,cs),
(522,913,o),
(504,897,o),
(484,897,cs),
(444,897,o),
(426,963,o),
(364,963,cs),
(321,963,o),
(290,932,o),
(287,880,cs)
);
},
{
closed = 1;
nodes = (
(213,6,o),
(98,163,o),
(98,374,cs),
(98,584,o),
(213,742,o),
(424,742,cs),
(635,742,o),
(750,585,o),
(750,374,cs),
(750,164,o),
(635,6,o),
(424,6,cs)
);
}
);
vertWidth = 1000;
width = 848;
}
);
note = cid00184;
unicode = 213;
}
{
glyphname = Odieresis;
layers = (
{
hints = (
{
horizontal = 1;
place = (-28, 34);
place = (-28, 34);
type = Stem;
},
{
horizontal = 1;
place = (742, 34);
place = (742, 34);
type = Stem;
},
{
horizontal = 1;
place = (877, 68);
place = (877, 68);
type = Stem;
},
{
place = (63, 35);
place = (63, 35);
type = Stem;
},
{
place = (318, 69);
place = (318, 69);
type = Stem;
},
{
place = (460, 69);
place = (460, 69);
type = Stem;
},
{
place = (750, 35);
place = (750, 35);
type = Stem;
}
);
layerId = m01;
shapes = (
{
closed = 1;
nodes = (
(638,-28,o),
(785,126,o),
(785,374,cs),
(785,622,o),
(638,776,o),
(424,776,cs),
(210,776,o),
(63,622,o),
(63,374,cs),
(63,126,o),
(210,-28,o),
(424,-28,cs)
);
},
{
closed = 1;
nodes = (
(213,6,o),
(98,163,o),
(98,374,cs),
(98,584,o),
(213,742,o),
(424,742,cs),
(635,742,o),
(750,585,o),
(750,374,cs),
(750,164,o),
(635,6,o),
(424,6,cs)
);
},
{
closed = 1;
nodes = (
(460,893,o),
(475,877,o),
(495,877,cs),
(514,877,o),
(529,892,o),
(529,911,cs),
(529,929,o),
(515,945,o),
(495,945,cs),
(475,945,o),
(460,929,o),
(460,911,cs)
);
},
{
closed = 1;
nodes = (
(318,893,o),
(333,877,o),
(353,877,cs),
(372,877,o),
(387,892,o),
(387,911,cs),
(387,929,o),
(373,945,o),
(353,945,cs),
(333,945,o),
(318,929,o),
(318,911,cs)
);
}
);
vertWidth = 1000;
width = 848;
}
);
note = cid00185;
unicode = 214;
}
{
glyphname = multiply.full;
layers = (
{
hints = (
{
horizontal = 1;
place = (130, 500);
place = (130, 500);
type = Stem;
},
{
place = (250, 500);
place = (250, 500);
type = Stem;
}
);
layerId = m01;
shapes = (
{
closed = 1;
nodes = (
(500,357,l),
(724,133,ls),
(726,131,o),
(728,130,o),
(731,130,cs),
(733,130,o),
(735,131,o),
(737,133,cs),
(747,143,ls),
(749,145,o),
(750,147,o),
(750,149,cs),
(750,151,o),
(749,154,o),
(747,156,cs),
(523,380,l),
(747,604,ls),
(749,606,o),
(750,608,o),
(750,610,cs),
(750,612,o),
(749,615,o),
(747,617,cs),
(737,627,ls),
(735,629,o),
(733,630,o),
(731,630,cs),
(728,630,o),
(726,629,o),
(724,627,cs),
(500,402,l),
(276,627,ls),
(274,629,o),
(272,630,o),
(269,630,cs),
(267,630,o),
(265,629,o),
(263,627,cs),
(253,617,ls),
(251,615,o),
(250,612,o),
(250,610,cs),
(250,608,o),
(251,606,o),
(253,604,cs),
(477,380,l),
(253,156,ls),
(251,154,o),
(250,151,o),
(250,149,cs),
(250,147,o),
(251,145,o),
(253,143,cs),
(263,133,ls),
(265,131,o),
(267,130,o),
(269,130,cs),
(272,130,o),
(274,131,o),
(276,133,cs)
);
}
);
vertWidth = 1000;
width = 1000;
}
);
note = cid00695;
unicode = 215;
}
{
glyphname = Oslash;
layers = (
{
hints = (
{
horizontal = 1;
place = (-28, 34);
place = (-28, 34);
type = Stem;
},
{
horizontal = 1;
place = (742, 34);
place = (742, 34);
type = Stem;
},
{
place = (63, 35);
place = (63, 35);
type = Stem;
},
{
place = (750, 35);
place = (750, 35);
type = Stem;
}
);
layerId = m01;
shapes = (
{
closed = 1;
nodes = (
(521,742,o),
(598,709,o),
(653,652,c),
(182,111,l),
(127,177,o),
(98,269,o),
(98,374,cs),
(98,584,o),
(213,742,o),
(424,742,cs)
);
},
{
closed = 1;
nodes = (
(332,6,o),
(258,36,o),
(204,87,c),
(674,627,l),
(724,562,o),
(750,474,o),
(750,374,cs),
(750,164,o),
(635,6,o),
(424,6,cs)
);
},
{
closed = 1;
nodes = (
(638,-28,o),
(785,126,o),
(785,374,cs),
(785,490,o),
(753,585,o),
(697,654,c),
(790,760,ls),
(793,764,o),
(793,768,o),
(789,771,cs),
(776,782,ls),
(772,785,o),
(768,785,o),
(765,781,cs),
(675,678,l),
(612,741,o),
(526,776,o),
(424,776,cs),
(210,776,o),
(63,622,o),
(63,374,cs),
(63,253,o),
(98,154,o),
(159,85,c),
(66,-22,ls),
(63,-26,o),
(63,-30,o),
(67,-33,cs),
(80,-44,ls),
(84,-47,o),
(88,-47,o),
(91,-43,cs),
(182,61,l),
(244,4,o),
(327,-28,o),
(424,-28,cs)
);
}
);
vertWidth = 1000;
width = 848;
}
);
note = cid00142;
unicode = 216;
}
{
glyphname = Udieresis;
layers = (
{
hints = (
{
horizontal = 1;
place = (-28, 34);
place = (-28, 34);
type = Stem;
},
{
horizontal = 1;
place = (761, -20);
target = down;
type = TopGhost;
},
{
horizontal = 1;
place = (879, 68);
place = (879, 68);
type = Stem;
},
{
place = (92, 34);
place = (92, 34);
type = Stem;
},
{
place = (272, 69);
place = (272, 69);
type = Stem;
},
{
place = (414, 69);
place = (414, 69);
type = Stem;
},
{
place = (626, 33);
place = (626, 33);
type = Stem;
}
);
layerId = m01;
shapes = (
{
closed = 1;
nodes = (
(515,-28,o),
(659,57,o),
(659,302,cs),
(659,753,ls),
(659,758,o),
(656,761,o),
(651,761,cs),
(634,761,ls),
(629,761,o),
(626,758,o),
(626,753,cs),
(626,302,ls),
(626,90,o),
(511,6,o),
(376,6,cs),
(238,6,o),
(126,90,o),
(126,302,cs),
(126,753,ls),
(126,758,o),
(122,761,o),
(117,761,cs),
(100,761,ls),
(95,761,o),
(92,758,o),
(92,753,cs),
(92,302,ls),
(92,57,o),
(234,-28,o),
(376,-28,cs)
);
},
{
closed = 1;
nodes = (
(414,895,o),
(429,879,o),
(449,879,cs),
(468,879,o),
(483,894,o),
(483,913,cs),
(483,931,o),
(469,947,o),
(449,947,cs),
(429,947,o),
(414,931,o),
(414,913,cs)
);
},
{
closed = 1;
nodes = (
(272,895,o),
(287,879,o),
(307,879,cs),
(326,879,o),
(341,894,o),
(341,913,cs),
(341,931,o),
(327,947,o),
(307,947,cs),
(287,947,o),
(272,931,o),
(272,913,cs)
);
}
);
vertWidth = 1000;
width = 751;
}
);
note = cid00190;
unicode = 220;
}
{
glyphname = Yacute;
layers = (
{
hints = (
{
horizontal = 1;
place = (-13, 21);
target = up;
type = BottomGhost;
},
{
horizontal = 1;
place = (761, -20);
target = down;
type = TopGhost;
},
{
place = (324, 34);
place = (324, 34);
type = Stem;
}
);
layerId = m01;
shapes = (
{
closed = 1;
nodes = (
(324,302,l),
(324,-5,ls),
(324,-10,o),
(327,-13,o),
(332,-13,cs),
(349,-13,ls),
(354,-13,o),
(358,-10,o),
(358,-5,cs),
(358,304,l),
(648,751,ls),
(651,756,o),
(648,761,o),
(641,761,cs),
(624,761,ls),
(619,761,o),
(616,760,o),
(614,756,cs),
(341,334,l),
(68,756,ls),
(65,760,o),
(62,761,o),
(58,761,cs),
(39,761,ls),
(33,761,o),
(30,756,o),
(33,751,cs)
);
},
{
closed = 1;
nodes = (
(394,986,ls),
(389,986,o),
(385,984,o),
(382,979,cs),
(299,854,ls),
(296,849,o),
(298,847,o),
(303,847,cs),
(324,847,ls),
(329,847,o),
(334,849,o),
(337,853,cs),
(427,980,ls),
(430,984,o),
(429,986,o),
(424,986,cs)
);
}
);
vertWidth = 1000;
width = 680;
}
);
note = cid00191;
unicode = 221;
}
{
glyphname = Thorn;
layers = (
{
hints = (
{
horizontal = 1;
place = (-13, 21);
target = up;
type = BottomGhost;
},
{
horizontal = 1;
place = (141, 33);
place = (141, 33);
type = Stem;
},
{
horizontal = 1;
place = (594, 32);
place = (594, 32);
type = Stem;
},
{
horizontal = 1;
place = (761, -20);
target = down;
type = TopGhost;
},
{
place = (106, 33);
place = (106, 33);
type = Stem;
},
{
place = (568, 34);
place = (568, 34);
type = Stem;
}
);
layerId = m01;
shapes = (
{
closed = 1;
nodes = (
(139,626,l),
(139,753,ls),
(139,758,o),
(136,761,o),
(131,761,cs),
(114,761,ls),
(109,761,o),
(106,758,o),
(106,753,cs),
(106,-5,ls),
(106,-10,o),
(109,-13,o),
(114,-13,cs),
(131,-13,ls),
(136,-13,o),
(139,-10,o),
(139,-5,cs),
(139,141,l),
(329,141,ls),
(525,141,o),
(602,232,o),
(602,384,cs),
(602,531,o),
(523,626,o),
(329,626,cs)
);
},
{
closed = 1;
nodes = (
(139,174,l),
(139,594,l),
(324,594,ls),
(499,594,o),
(568,518,o),
(568,384,cs),
(568,246,o),
(499,174,o),
(324,174,cs)
);
}
);
vertWidth = 1000;
width = 655;
}
);
note = cid00192;
unicode = 222;
}
{
glyphname = germandbls;
layers = (
{
hints = (
{
horizontal = 1;
place = (-27, 31);
place = (-27, 31);
type = Stem;
},
{
horizontal = 1;
place = (394, 34);
place = (394, 34);
type = Stem;
},
{
horizontal = 1;
place = (758, 30);
place = (758, 30);
type = Stem;
},
{
place = (72, 33);
place = (72, 33);
type = Stem;
},
{
place = (485, 35);
place = (485, 35);
type = Stem;
},
{
horizontal = 1;
place = (-13, 21);
target = up;
type = BottomGhost;
},
{
place = (432, 34);
place = (432, 34);
type = Stem;
}
);
layerId = m01;
shapes = (
{
closed = 1;
nodes = (
(72,-5,ls),
(72,-10,o),
(75,-13,o),
(80,-13,cs),
(97,-13,ls),
(102,-13,o),
(105,-10,o),
(105,-5,cs),
(105,562,ls),
(105,669,o),
(152,758,o),
(273,758,cs),
(369,758,o),
(432,687,o),
(432,598,cs),
(432,505,o),
(367,432,o),
(279,428,cs),
(274,428,o),
(271,425,o),
(271,420,cs),
(271,402,ls),
(271,397,o),
(274,394,o),
(279,394,cs),
(397,391,o),
(485,313,o),
(485,205,cs),
(485,82,o),
(379,4,o),
(222,4,cs),
(207,4,ls),
(202,4,o),
(199,1,o),
(199,-4,cs),
(199,-19,ls),
(199,-24,o),
(202,-27,o),
(207,-27,cs),
(219,-27,ls),
(405,-27,o),
(520,61,o),
(520,205,cs),
(520,319,o),
(447,392,o),
(334,416,c),
(413,438,o),
(466,508,o),
(466,600,cs),
(466,710,o),
(388,788,o),
(275,788,cs),
(130,788,o),
(72,683,o),
(72,563,cs)
);
}
);
vertWidth = 1000;
width = 569;
}
);
note = cid00150;
unicode = 223;
}
{
glyphname = aacute;
layers = (
{
hints = (
{
horizontal = 1;
place = (-24, 32);
place = (-24, 32);
type = Stem;
},
{
horizontal = 1;
place = (485, 32);
place = (485, 32);
type = Stem;
},
{
place = (47, 33);
place = (47, 33);
type = Stem;
},
{
place = (519, 26);
place = (519, 26);
type = Stem;
},
{
horizontal = 1;
place = (-13, 21);
target = up;
type = BottomGhost;
},
{
horizontal = 1;
place = (506, -20);
target = down;
type = TopGhost;
}
);
layerId = m01;
shapes = (
{
closed = 1;
nodes = (
(514,382,l),
(482,463,o),
(395,517,o),
(302,517,cs),
(147,517,o),
(47,403,o),
(47,247,cs),
(47,90,o),
(147,-24,o),
(302,-24,cs),
(395,-24,o),
(482,30,o),
(514,111,c),
(519,-5,ls),
(519,-11,o),
(522,-13,o),
(528,-13,cs),
(537,-13,ls),
(542,-13,o),
(545,-10,o),
(545,-5,cs),
(545,498,ls),
(545,503,o),
(542,506,o),
(537,506,cs),
(528,506,ls),
(522,506,o),
(519,504,o),
(519,498,cs)
);
},
{
closed = 1;
nodes = (
(360,731,ls),
(355,731,o),
(351,729,o),
(348,724,cs),
(265,599,ls),
(262,594,o),
(264,592,o),
(269,592,cs),
(290,592,ls),
(295,592,o),
(300,594,o),
(303,598,cs),
(393,725,ls),
(396,729,o),
(395,731,o),
(390,731,cs)
);
},
{
closed = 1;
nodes = (
(170,8,o),
(80,103,o),
(80,247,cs),
(80,390,o),
(170,485,o),
(300,485,cs),
(429,485,o),
(519,390,o),
(519,247,cs),
(519,103,o),
(429,8,o),
(300,8,cs)
);
}
);
vertWidth = 1000;
width = 638;
}
);
note = cid00194;
unicode = 225;
}
{
glyphname = atilde;
layers = (
{
hints = (
{
horizontal = 1;
place = (-24, 32);
place = (-24, 32);
type = Stem;
},
{
horizontal = 1;
place = (485, 32);
place = (485, 32);
type = Stem;
},
{
horizontal = 1;
place = (614, 30);
place = (614, 30);
type = Stem;
},
{
horizontal = 1;
place = (680, 30);
place = (680, 30);
type = Stem;
},
{
place = (47, 33);
place = (47, 33);
type = Stem;
},
{
place = (519, 26);
place = (519, 26);
type = Stem;
},
{
horizontal = 1;
place = (-13, 21);
target = up;
type = BottomGhost;
},
{
horizontal = 1;
place = (506, -20);
target = down;
type = TopGhost;
},
{
place = (175, 35);
place = (175, 35);
type = Stem;
},
{
place = (413, 35);
place = (413, 35);
type = Stem;
}
);
layerId = m01;
shapes = (
{
closed = 1;
nodes = (
(514,382,l),
(482,463,o),
(395,517,o),
(302,517,cs),
(147,517,o),
(47,403,o),
(47,247,cs),
(47,90,o),
(147,-24,o),
(302,-24,cs),
(395,-24,o),
(482,30,o),
(514,111,c),
(519,-5,ls),
(519,-11,o),
(522,-13,o),
(528,-13,cs),
(537,-13,ls),
(542,-13,o),
(545,-10,o),
(545,-5,cs),
(545,498,ls),
(545,503,o),
(542,506,o),
(537,506,cs),
(528,506,ls),
(522,506,o),
(519,504,o),
(519,498,cs)
);
},
{
closed = 1;
nodes = (
(175,622,o),
(178,619,o),
(183,619,cs),
(202,619,ls),
(207,619,o),
(210,622,o),
(210,627,cs),
(213,664,o),
(231,680,o),
(251,680,cs),
(291,680,o),
(309,614,o),
(371,614,cs),
(414,614,o),
(445,645,o),
(448,697,cs),
(448,702,o),
(445,705,o),
(440,705,cs),
(421,705,ls),
(416,705,o),
(413,702,o),
(413,697,cs),
(410,660,o),
(392,644,o),
(372,644,cs),
(332,644,o),
(314,710,o),
(252,710,cs),
(209,710,o),
(178,679,o),
(175,627,cs)
);
},
{
closed = 1;
nodes = (
(170,8,o),
(80,103,o),
(80,247,cs),
(80,390,o),
(170,485,o),
(300,485,cs),
(429,485,o),
(519,390,o),
(519,247,cs),
(519,103,o),
(429,8,o),
(300,8,cs)
);
}
);
vertWidth = 1000;
width = 638;
}
);
note = cid00196;
unicode = 227;
}
{
glyphname = adieresis;
layers = (
{
hints = (
{
horizontal = 1;
place = (-24, 32);
place = (-24, 32);
type = Stem;
},
{
horizontal = 1;
place = (485, 32);
place = (485, 32);
type = Stem;
},
{
place = (47, 33);
place = (47, 33);
type = Stem;
},
{
place = (519, 26);
place = (519, 26);
type = Stem;
},
{
horizontal = 1;
place = (-13, 21);
target = up;
type = BottomGhost;
},
{
horizontal = 1;
place = (506, -20);
target = down;
type = TopGhost;
},
{
horizontal = 1;
place = (624, 68);
place = (624, 68);
type = Stem;
},
{
place = (206, 69);
place = (206, 69);
type = Stem;
},
{
place = (348, 69);
place = (348, 69);
type = Stem;
}
);
layerId = m01;
shapes = (
{
closed = 1;
nodes = (
(514,382,l),
(482,463,o),
(395,517,o),
(302,517,cs),
(147,517,o),
(47,403,o),
(47,247,cs),
(47,90,o),
(147,-24,o),
(302,-24,cs),
(395,-24,o),
(482,30,o),
(514,111,c),
(519,-5,ls),
(519,-11,o),
(522,-13,o),
(528,-13,cs),
(537,-13,ls),
(542,-13,o),
(545,-10,o),
(545,-5,cs),
(545,498,ls),
(545,503,o),
(542,506,o),
(537,506,cs),
(528,506,ls),
(522,506,o),
(519,504,o),
(519,498,cs)
);
},
{
closed = 1;
nodes = (
(170,8,o),
(80,103,o),
(80,247,cs),
(80,390,o),
(170,485,o),
(300,485,cs),
(429,485,o),
(519,390,o),
(519,247,cs),
(519,103,o),
(429,8,o),
(300,8,cs)
);
},
{
closed = 1;
nodes = (
(348,640,o),
(363,624,o),
(383,624,cs),
(402,624,o),
(417,639,o),
(417,658,cs),
(417,676,o),
(403,692,o),
(383,692,cs),
(363,692,o),
(348,676,o),
(348,658,cs)
);
},
{
closed = 1;
nodes = (
(206,640,o),
(221,624,o),
(241,624,cs),
(260,624,o),
(275,639,o),
(275,658,cs),
(275,676,o),
(261,692,o),
(241,692,cs),
(221,692,o),
(206,676,o),
(206,658,cs)
);
}
);
vertWidth = 1000;
width = 638;
}
);
note = cid00197;
unicode = 228;
}
{
glyphname = aring;
layers = (
{
hints = (
{
horizontal = 1;
place = (-24, 32);
place = (-24, 32);
type = Stem;
},
{
horizontal = 1;
place = (485, 32);
place = (485, 32);
type = Stem;
},
{
horizontal = 1;
place = (574, 28);
place = (574, 28);
type = Stem;
},
{
horizontal = 1;
place = (719, 28);
place = (719, 28);
type = Stem;
},
{
place = (47, 33);
place = (47, 33);
type = Stem;
},
{
place = (223, 31);
place = (223, 31);
type = Stem;
},
{
place = (370, 31);
place = (370, 31);
type = Stem;
},
{
place = (519, 26);
place = (519, 26);
type = Stem;
},
{
horizontal = 1;
place = (-13, 21);
target = up;
type = BottomGhost;
},
{
horizontal = 1;
place = (506, -20);
target = down;
type = TopGhost;
}
);
layerId = m01;
shapes = (
{
closed = 1;
nodes = (
(514,382,l),
(482,463,o),
(395,517,o),
(302,517,cs),
(147,517,o),
(47,403,o),
(47,247,cs),
(47,90,o),
(147,-24,o),
(302,-24,cs),
(395,-24,o),
(482,30,o),
(514,111,c),
(519,-5,ls),
(519,-11,o),
(522,-13,o),
(528,-13,cs),
(537,-13,ls),
(542,-13,o),
(545,-10,o),
(545,-5,cs),
(545,498,ls),
(545,503,o),
(542,506,o),
(537,506,cs),
(528,506,ls),
(522,506,o),
(519,504,o),
(519,498,cs)
);
},
{
closed = 1;
nodes = (
(170,8,o),
(80,103,o),
(80,247,cs),
(80,390,o),
(170,485,o),
(300,485,cs),
(429,485,o),
(519,390,o),
(519,247,cs),
(519,103,o),
(429,8,o),
(300,8,cs)
);
},
{
closed = 1;
nodes = (
(223,612,o),
(263,574,o),
(312,574,cs),
(361,574,o),
(401,612,o),
(401,661,cs),
(401,709,o),
(361,747,o),
(312,747,cs),
(263,747,o),
(223,709,o),
(223,661,cs)
);
},
{
closed = 1;
nodes = (
(254,693,o),
(280,719,o),
(312,719,cs),
(344,719,o),
(370,693,o),
(370,660,cs),
(370,627,o),
(344,602,o),
(312,602,cs),
(280,602,o),
(254,627,o),
(254,660,cs)
);
}
);
vertWidth = 1000;
width = 638;
}
);
note = cid00198;
unicode = 229;
}
{
glyphname = ae;
layers = (
{
hints = (
{
horizontal = 1;
place = (-33, 31);
place = (-33, 31);
type = Stem;
},
{
horizontal = 1;
place = (255, 31);
place = (255, 31);
type = Stem;
},
{
horizontal = 1;
place = (482, 30);
place = (482, 30);
type = Stem;
},
{
place = (47, 33);
place = (47, 33);
type = Stem;
},
{
place = (474, 33);
place = (474, 33);
type = Stem;
},
{
place = (910, 35);
place = (910, 35);
type = Stem;
},
{
horizontal = 1;
place = (-24, 32);
place = (-24, 32);
type = Stem;
},
{
horizontal = 1;
place = (235, 29);
place = (235, 29);
type = Stem;
},
{
horizontal = 1;
place = (485, 32);
place = (485, 32);
type = Stem;
}
);
layerId = m01;
shapes = (
{
closed = 1;
nodes = (
(58,373,o),
(59,370,o),
(64,367,cs),
(77,361,ls),
(82,358,o),
(85,359,o),
(87,364,cs),
(123,434,o),
(190,482,o),
(293,482,cs),
(397,482,o),
(474,404,o),
(474,308,cs),
(474,255,l),
(423,271,o),
(357,286,o),
(293,286,cs),
(178,286,o),
(47,247,o),
(47,131,cs),
(47,39,o),
(129,-33,o),
(244,-33,cs),
(339,-33,o),
(452,12,o),
(495,127,c),
(530,38,o),
(611,-24,o),
(725,-24,cs),
(824,-24,o),
(895,23,o),
(929,98,cs),
(939,119,o),
(937,123,o),
(931,125,cs),
(920,129,l),
(915,132,o),
(911,130,o),
(903,112,cs),
(874,51,o),
(817,8,o),
(727,8,cs),
(596,8,o),
(512,98,o),
(507,235,c),
(937,235,ls),
(942,235,o),
(945,238,o),
(945,265,cs),
(944,403,o),
(867,517,o),
(721,517,cs),
(615,517,o),
(533,457,o),
(497,365,c),
(481,445,o),
(395,512,o),
(292,512,cs),
(176,512,o),
(102,460,o),
(61,378,cs)
);
},
{
closed = 1;
nodes = (
(458,56,o),
(345,-2,o),
(246,-2,cs),
(156,-2,o),
(80,52,o),
(80,131,cs),
(80,225,o),
(197,255,o),
(296,255,cs),
(362,255,o),
(428,240,o),
(474,225,c),
(475,209,o),
(477,194,o),
(480,179,c)
);
},
{
closed = 1;
nodes = (
(507,264,l),
(515,398,o),
(601,485,o),
(719,485,cs),
(840,485,o),
(909,392,o),
(910,264,c)
);
}
);
vertWidth = 1000;
width = 986;
}
);
note = cid00145;
unicode = 230;
}
{
glyphname = ccedilla;
layers = (
{
hints = (
{
horizontal = 1;
place = (-239, 30);
place = (-239, 30);
type = Stem;
},
{
horizontal = 1;
place = (-115, 31);
place = (-115, 31);
type = Stem;
},
{
horizontal = 1;
place = (-24, 32);
place = (-24, 32);
type = Stem;
},
{
horizontal = 1;
place = (485, 32);
place = (485, 32);
type = Stem;
},
{
place = (47, 33);
place = (47, 33);
type = Stem;
},
{
place = (362, 33);
place = (362, 33);
type = Stem;
},
{
horizontal = 1;
place = (-22, 30);
place = (-22, 30);
type = Stem;
}
);
layerId = m01;
shapes = (
{
closed = 1;
nodes = (
(487,129,l),
(482,132,o),
(479,129,o),
(477,125,cs),
(446,51,o),
(388,8,o),
(298,8,cs),
(151,8,o),
(80,120,o),
(80,247,cs),
(80,372,o),
(149,485,o),
(298,485,cs),
(384,485,o),
(442,447,o),
(472,374,cs),
(474,369,o),
(476,367,o),
(482,369,cs),
(496,373,ls),
(502,375,o),
(503,378,o),
(501,384,cs),
(467,470,o),
(398,517,o),
(298,517,cs),
(147,517,o),
(47,404,o),
(47,247,cs),
(47,101,o),
(132,-7,o),
(264,-22,c),
(235,-108,ls),
(233,-113,o),
(235,-116,o),
(240,-116,cs),
(279,-115,ls),
(322,-115,o),
(362,-133,o),
(362,-162,cs),
(362,-190,o),
(334,-209,o),
(287,-209,cs),
(258,-209,o),
(233,-204,o),
(208,-196,cs),
(203,-194,o),
(200,-196,o),
(200,-201,cs),
(200,-216,ls),
(200,-237,o),
(269,-239,o),
(283,-239,cs),
(351,-239,o),
(395,-206,o),
(395,-162,cs),
(395,-115,o),
(347,-84,o),
(278,-84,c),
(299,-24,l),
(396,-24,o),
(469,22,o),
(505,113,cs),
(507,118,o),
(506,122,o),
(501,124,cs)
);
}
);
vertWidth = 1000;
width = 549;
}
);
note = cid00199;
unicode = 231;
}
{
glyphname = egrave;
layers = (
{
hints = (
{
horizontal = 1;
place = (-24, 32);
place = (-24, 32);
type = Stem;
},
{
horizontal = 1;
place = (235, 29);
place = (235, 29);
type = Stem;
},
{
horizontal = 1;
place = (485, 32);
place = (485, 32);
type = Stem;
},
{
place = (47, 33);
place = (47, 33);
type = Stem;
},
{
place = (483, 35);
place = (483, 35);
type = Stem;
}
);
layerId = m01;
shapes = (
{
closed = 1;
nodes = (
(493,129,l),
(488,132,o),
(484,130,o),
(482,125,cs),
(447,51,o),
(390,8,o),
(292,8,cs),
(169,8,o),
(85,98,o),
(80,235,c),
(510,235,ls),
(515,235,o),
(518,238,o),
(518,243,cs),
(517,403,o),
(440,517,o),
(293,517,cs),
(147,517,o),
(47,402,o),
(47,247,cs),
(47,91,o),
(143,-24,o),
(292,-24,cs),
(397,-24,o),
(468,23,o),
(510,115,cs),
(512,119,o),
(510,123,o),
(504,125,cs)
);
},
{
closed = 1;
nodes = (
(214,731,ls),
(209,731,o),
(208,729,o),
(211,725,cs),
(301,598,ls),
(304,594,o),
(309,592,o),
(314,592,cs),
(335,592,ls),
(340,592,o),
(342,594,o),
(339,599,cs),
(256,724,ls),
(253,729,o),
(249,731,o),
(244,731,cs)
);
},
{
closed = 1;
nodes = (
(80,264,l),
(88,398,o),
(174,485,o),
(293,485,cs),
(413,485,o),
(482,392,o),
(483,264,c)
);
}
);
vertWidth = 1000;
width = 559;
}
);
note = cid00200;
unicode = 232;
}
{
glyphname = eacute;
layers = (
{
hints = (
{
horizontal = 1;
place = (-24, 32);
place = (-24, 32);
type = Stem;
},
{
horizontal = 1;
place = (235, 29);
place = (235, 29);
type = Stem;
},
{
horizontal = 1;
place = (485, 32);
place = (485, 32);
type = Stem;
},
{
place = (47, 33);
place = (47, 33);
type = Stem;
},
{
place = (483, 35);
place = (483, 35);
type = Stem;
}
);
layerId = m01;
shapes = (
{
closed = 1;
nodes = (
(493,129,l),
(488,132,o),
(484,130,o),
(482,125,cs),
(447,51,o),
(390,8,o),
(292,8,cs),
(169,8,o),
(85,98,o),
(80,235,c),
(510,235,ls),
(515,235,o),
(518,238,o),
(518,243,cs),
(517,403,o),
(440,517,o),
(293,517,cs),
(147,517,o),
(47,402,o),
(47,247,cs),
(47,91,o),
(143,-24,o),
(292,-24,cs),
(397,-24,o),
(468,23,o),
(510,115,cs),
(512,119,o),
(510,123,o),
(504,125,cs)
);
},
{
closed = 1;
nodes = (
(340,731,ls),
(335,731,o),
(331,729,o),
(328,724,cs),
(245,599,ls),
(242,594,o),
(244,592,o),
(249,592,cs),
(270,592,ls),
(275,592,o),
(280,594,o),
(283,598,cs),
(373,725,ls),
(376,729,o),
(375,731,o),
(370,731,cs)
);
},
{
closed = 1;
nodes = (
(80,264,l),
(88,398,o),
(174,485,o),
(293,485,cs),
(413,485,o),
(482,392,o),
(483,264,c)
);
}
);
vertWidth = 1000;
width = 559;
}
);
note = cid00201;
unicode = 233;
}
{
glyphname = ecircumflex;
layers = (
{
hints = (
{
horizontal = 1;
place = (-24, 32);
place = (-24, 32);
type = Stem;
},
{
horizontal = 1;
place = (235, 29);
place = (235, 29);
type = Stem;
},
{
horizontal = 1;
place = (485, 32);
place = (485, 32);
type = Stem;
},
{
horizontal = 1;
place = (705, 26);
place = (705, 26);
type = Stem;
},
{
place = (47, 33);
place = (47, 33);
type = Stem;
},
{
place = (483, 35);
place = (483, 35);
type = Stem;
},
{
horizontal = 1;
place = (592, 139);
place = (592, 139);
type = Stem;
}
);
layerId = m01;
shapes = (
{
closed = 1;
nodes = (
(493,129,l),
(488,132,o),
(484,130,o),
(482,125,cs),
(447,51,o),
(390,8,o),
(292,8,cs),
(169,8,o),
(85,98,o),
(80,235,c),
(510,235,ls),
(515,235,o),
(518,238,o),
(518,243,cs),
(517,403,o),
(440,517,o),
(293,517,cs),
(147,517,o),
(47,402,o),
(47,247,cs),
(47,91,o),
(143,-24,o),
(292,-24,cs),
(397,-24,o),
(468,23,o),
(510,115,cs),
(512,119,o),
(510,123,o),
(504,125,cs)
);
},
{
closed = 1;
nodes = (
(316,725,ls),
(313,729,o),
(308,731,o),
(303,731,cs),
(282,731,ls),
(277,731,o),
(272,729,o),
(269,725,cs),
(168,598,ls),
(165,594,o),
(166,592,o),
(171,592,cs),
(196,592,ls),
(201,592,o),
(206,594,o),
(209,598,cs),
(293,705,l),
(376,598,ls),
(379,594,o),
(384,592,o),
(389,592,cs),
(414,592,ls),
(419,592,o),
(420,594,o),
(417,598,cs)
);
},
{
closed = 1;
nodes = (
(80,264,l),
(88,398,o),
(174,485,o),
(293,485,cs),
(413,485,o),
(482,392,o),
(483,264,c)
);
}
);
vertWidth = 1000;
width = 559;
}
);
note = cid00202;
unicode = 234;
}
{
glyphname = igrave;
layers = (
{
hints = (
{
horizontal = 1;
place = (-13, 21);
target = up;
type = BottomGhost;
},
{
horizontal = 1;
place = (506, -20);
target = down;
type = TopGhost;
},
{
place = (93, 31);
place = (93, 31);
type = Stem;
}
);
layerId = m01;
shapes = (
{
closed = 1;
nodes = (
(93,-5,ls),
(93,-10,o),
(96,-13,o),
(101,-13,cs),
(116,-13,ls),
(121,-13,o),
(124,-10,o),
(124,-5,cs),
(124,498,ls),
(124,503,o),
(121,506,o),
(116,506,cs),
(101,506,ls),
(96,506,o),
(93,503,o),
(93,498,cs)
);
},
{
closed = 1;
nodes = (
(30,731,ls),
(25,731,o),
(24,729,o),
(27,725,cs),
(117,598,ls),
(120,594,o),
(125,592,o),
(130,592,cs),
(151,592,ls),
(156,592,o),
(158,594,o),
(155,599,cs),
(72,724,ls),
(69,729,o),
(65,731,o),
(60,731,cs)
);
}
);
vertWidth = 1000;
width = 217;
}
);
note = cid00204;
unicode = 236;
}
{
glyphname = iacute;
layers = (
{
hints = (
{
horizontal = 1;
place = (-13, 21);
target = up;
type = BottomGhost;
},
{
horizontal = 1;
place = (506, -20);
target = down;
type = TopGhost;
},
{
place = (93, 31);
place = (93, 31);
type = Stem;
}
);
layerId = m01;
shapes = (
{
closed = 1;
nodes = (
(93,-5,ls),
(93,-10,o),
(96,-13,o),
(101,-13,cs),
(116,-13,ls),
(121,-13,o),
(124,-10,o),
(124,-5,cs),
(124,498,ls),
(124,503,o),
(121,506,o),
(116,506,cs),
(101,506,ls),
(96,506,o),
(93,503,o),
(93,498,cs)
);
},
{
closed = 1;
nodes = (
(156,731,ls),
(151,731,o),
(147,729,o),
(144,724,cs),
(61,599,ls),
(58,594,o),
(60,592,o),
(65,592,cs),
(86,592,ls),
(91,592,o),
(96,594,o),
(99,598,cs),
(189,725,ls),
(192,729,o),
(191,731,o),
(186,731,cs)
);
}
);
vertWidth = 1000;
width = 217;
}
);
note = cid00205;
unicode = 237;
}
{
glyphname = icircumflex;
layers = (
{
hints = (
{
horizontal = 1;
place = (-13, 21);
target = up;
type = BottomGhost;
},
{
horizontal = 1;
place = (506, -20);
target = down;
type = TopGhost;
},
{
horizontal = 1;
place = (705, 26);
place = (705, 26);
type = Stem;
},
{
place = (93, 31);
place = (93, 31);
type = Stem;
},
{
horizontal = 1;
place = (592, 139);
place = (592, 139);
type = Stem;
}
);
layerId = m01;
shapes = (
{
closed = 1;
nodes = (
(93,-5,ls),
(93,-10,o),
(96,-13,o),
(101,-13,cs),
(116,-13,ls),
(121,-13,o),
(124,-10,o),
(124,-5,cs),
(124,498,ls),
(124,503,o),
(121,506,o),
(116,506,cs),
(101,506,ls),
(96,506,o),
(93,503,o),
(93,498,cs)
);
},
{
closed = 1;
nodes = (
(132,725,ls),
(129,729,o),
(124,731,o),
(119,731,cs),
(98,731,ls),
(93,731,o),
(88,729,o),
(85,725,cs),
(-16,598,ls),
(-19,594,o),
(-18,592,o),
(-13,592,cs),
(12,592,ls),
(17,592,o),
(22,594,o),
(25,598,cs),
(109,705,l),
(192,598,ls),
(195,594,o),
(200,592,o),
(205,592,cs),
(230,592,ls),
(235,592,o),
(236,594,o),
(233,598,cs)
);
}
);
vertWidth = 1000;
width = 217;
}
);
note = cid00206;
unicode = 238;
}
{
glyphname = idieresis;
layers = (
{
hints = (
{
horizontal = 1;
place = (-13, 21);
target = up;
type = BottomGhost;
},
{
horizontal = 1;
place = (506, -20);
target = down;
type = TopGhost;
},
{
horizontal = 1;
place = (624, 68);
place = (624, 68);
type = Stem;
},
{
place = (93, 31);
place = (93, 31);
type = Stem;
},
{
place = (2, 69);
place = (2, 69);
type = Stem;
},
{
place = (144, 69);
place = (144, 69);
type = Stem;
}
);
layerId = m01;
shapes = (
{
closed = 1;
nodes = (
(93,-5,ls),
(93,-10,o),
(96,-13,o),
(101,-13,cs),
(116,-13,ls),
(121,-13,o),
(124,-10,o),
(124,-5,cs),
(124,498,ls),
(124,503,o),
(121,506,o),
(116,506,cs),
(101,506,ls),
(96,506,o),
(93,503,o),
(93,498,cs)
);
},
{
closed = 1;
nodes = (
(144,640,o),
(159,624,o),
(179,624,cs),
(198,624,o),
(213,639,o),
(213,658,cs),
(213,676,o),
(199,692,o),
(179,692,cs),
(159,692,o),
(144,676,o),
(144,658,cs)
);
},
{
closed = 1;
nodes = (
(2,640,o),
(17,624,o),
(37,624,cs),
(56,624,o),
(71,639,o),
(71,658,cs),
(71,676,o),
(57,692,o),
(37,692,cs),
(17,692,o),
(2,676,o),
(2,658,cs)
);
}
);
vertWidth = 1000;
width = 217;
}
);
note = cid00207;
unicode = 239;
}
{
glyphname = eth;
layers = (
{
hints = (
{
horizontal = 1;
place = (-32, 31);
place = (-32, 31);
type = Stem;
},
{
horizontal = 1;
place = (465, 28);
place = (465, 28);
type = Stem;
},
{
horizontal = 1;
place = (740, 30);
place = (740, 30);
type = Stem;
},
{
place = (47, 33);
place = (47, 33);
type = Stem;
},
{
place = (529, 37);
place = (529, 37);
type = Stem;
},
{
place = (536, 30);
place = (536, 30);
type = Stem;
}
);
layerId = m01;
shapes = (
{
closed = 1;
nodes = (
(191,531,ls),
(194,527,o),
(198,527,o),
(202,530,cs),
(386,666,l),
(494,586,o),
(529,465,o),
(536,334,c),
(505,431,o),
(419,493,o),
(305,493,cs),
(144,493,o),
(47,377,o),
(47,236,cs),
(47,86,o),
(154,-32,o),
(306,-32,cs),
(566,-32,o),
(566,236,o),
(566,322,cs),
(566,496,o),
(510,615,o),
(413,686,c),
(526,769,ls),
(530,772,o),
(530,776,o),
(527,780,cs),
(518,793,ls),
(515,797,o),
(511,797,o),
(507,794,cs),
(385,704,l),
(313,747,o),
(221,768,o),
(116,770,cs),
(111,770,o),
(108,767,o),
(108,762,cs),
(108,748,ls),
(108,743,o),
(111,740,o),
(116,740,cs),
(209,737,o),
(291,720,o),
(357,683,c),
(183,555,ls),
(179,552,o),
(179,548,o),
(182,544,cs)
);
},
{
closed = 1;
nodes = (
(167,-1,o),
(80,104,o),
(80,236,cs),
(80,362,o),
(167,465,o),
(304,465,cs),
(421,465,o),
(529,386,o),
(529,247,cs),
(529,106,o),
(445,-1,o),
(305,-1,cs)
);
}
);
vertWidth = 1000;
width = 629;
}
);
note = cid00208;
unicode = 240;
}
{
glyphname = ntilde;
layers = (
{
hints = (
{
horizontal = 1;
place = (-13, 21);
target = up;
type = BottomGhost;
},
{
horizontal = 1;
place = (485, 32);
place = (485, 32);
type = Stem;
},
{
horizontal = 1;
place = (614, 30);
place = (614, 30);
type = Stem;
},
{
horizontal = 1;
place = (680, 30);
place = (680, 30);
type = Stem;
},
{
place = (93, 26);
place = (93, 26);
type = Stem;
},
{
place = (479, 32);
place = (479, 32);
type = Stem;
},
{
horizontal = 1;
place = (506, -20);
target = down;
type = TopGhost;
},
{
place = (93, 31);
place = (93, 31);
type = Stem;
},
{
place = (165, 35);
place = (165, 35);
type = Stem;
},
{
place = (403, 35);
place = (403, 35);
type = Stem;
}
);
layerId = m01;
shapes = (
{
closed = 1;
nodes = (
(119,498,ls),
(119,504,o),
(116,506,o),
(111,506,cs),
(101,506,ls),
(96,506,o),
(93,503,o),
(93,498,cs),
(93,-5,ls),
(93,-10,o),
(96,-13,o),
(101,-13,cs),
(116,-13,ls),
(121,-13,o),
(124,-10,o),
(124,-5,cs),
(124,272,ls),
(124,421,o),
(241,485,o),
(325,485,cs),
(430,485,o),
(479,423,o),
(479,309,cs),
(479,-5,ls),
(479,-10,o),
(482,-13,o),
(487,-13,cs),
(502,-13,ls),
(507,-13,o),
(511,-10,o),
(511,-5,cs),
(511,324,ls),
(511,444,o),
(442,517,o),
(328,517,cs),
(250,517,o),
(159,472,o),
(123,385,c)
);
},
{
closed = 1;
nodes = (
(165,622,o),
(168,619,o),
(173,619,cs),
(192,619,ls),
(197,619,o),
(200,622,o),
(200,627,cs),
(203,664,o),
(221,680,o),
(241,680,cs),
(281,680,o),
(299,614,o),
(361,614,cs),
(404,614,o),
(435,645,o),
(438,697,cs),
(438,702,o),
(435,705,o),
(430,705,cs),
(411,705,ls),
(406,705,o),
(403,702,o),
(403,697,cs),
(400,660,o),
(382,644,o),
(362,644,cs),
(322,644,o),
(304,710,o),
(242,710,cs),
(199,710,o),
(168,679,o),
(165,627,cs)
);
}
);
vertWidth = 1000;
width = 600;
}
);
note = cid00209;
unicode = 241;
}
{
glyphname = ograve;
layers = (
{
hints = (
{
horizontal = 1;
place = (-24, 32);
place = (-24, 32);
type = Stem;
},
{
horizontal = 1;
place = (485, 32);
place = (485, 32);
type = Stem;
},
{
place = (47, 33);
place = (47, 33);
type = Stem;
},
{
place = (519, 33);
place = (519, 33);
type = Stem;
}
);
layerId = m01;
shapes = (
{
closed = 1;
nodes = (
(452,-24,o),
(552,91,o),
(552,247,cs),
(552,402,o),
(452,517,o),
(300,517,cs),
(148,517,o),
(47,402,o),
(47,247,cs),
(47,91,o),
(148,-24,o),
(300,-24,cs)
);
},
{
closed = 1;
nodes = (
(222,731,ls),
(217,731,o),
(216,729,o),
(219,725,cs),
(309,598,ls),
(312,594,o),
(317,592,o),
(322,592,cs),
(343,592,ls),
(348,592,o),
(350,594,o),
(347,599,cs),
(264,724,ls),
(261,729,o),
(257,731,o),
(252,731,cs)
);
},
{
closed = 1;
nodes = (
(170,8,o),
(80,103,o),
(80,247,cs),
(80,390,o),
(170,485,o),
(300,485,cs),
(429,485,o),
(519,390,o),
(519,247,cs),
(519,103,o),
(429,8,o),
(300,8,cs)
);
}
);
vertWidth = 1000;
width = 599;
}
);
note = cid00210;
unicode = 242;
}
{
glyphname = ocircumflex;
layers = (
{
hints = (
{
horizontal = 1;
place = (-24, 32);
place = (-24, 32);
type = Stem;
},
{
horizontal = 1;
place = (485, 32);
place = (485, 32);
type = Stem;
},
{
horizontal = 1;
place = (705, 26);
place = (705, 26);
type = Stem;
},
{
place = (47, 33);
place = (47, 33);
type = Stem;
},
{
place = (519, 33);
place = (519, 33);
type = Stem;
},
{
horizontal = 1;
place = (592, 139);
place = (592, 139);
type = Stem;
}
);
layerId = m01;
shapes = (
{
closed = 1;
nodes = (
(452,-24,o),
(552,91,o),
(552,247,cs),
(552,402,o),
(452,517,o),
(300,517,cs),
(148,517,o),
(47,402,o),
(47,247,cs),
(47,91,o),
(148,-24,o),
(300,-24,cs)
);
},
{
closed = 1;
nodes = (
(324,725,ls),
(321,729,o),
(316,731,o),
(311,731,cs),
(290,731,ls),
(285,731,o),
(280,729,o),
(277,725,cs),
(176,598,ls),
(173,594,o),
(174,592,o),
(179,592,cs),
(204,592,ls),
(209,592,o),
(214,594,o),
(217,598,cs),
(301,705,l),
(384,598,ls),
(387,594,o),
(392,592,o),
(397,592,cs),
(422,592,ls),
(427,592,o),
(428,594,o),
(425,598,cs)
);
},
{
closed = 1;
nodes = (
(170,8,o),
(80,103,o),
(80,247,cs),
(80,390,o),
(170,485,o),
(300,485,cs),
(429,485,o),
(519,390,o),
(519,247,cs),
(519,103,o),
(429,8,o),
(300,8,cs)
);
}
);
vertWidth = 1000;
width = 599;
}
);
note = cid00212;
unicode = 244;
}
{
glyphname = otilde;
layers = (
{
hints = (
{
horizontal = 1;
place = (-24, 32);
place = (-24, 32);
type = Stem;
},
{
horizontal = 1;
place = (485, 32);
place = (485, 32);
type = Stem;
},
{
horizontal = 1;
place = (614, 30);
place = (614, 30);
type = Stem;
},
{
horizontal = 1;
place = (680, 30);
place = (680, 30);
type = Stem;
},
{
place = (47, 33);
place = (47, 33);
type = Stem;
},
{
place = (163, 35);
place = (163, 35);
type = Stem;
},
{
place = (401, 35);
place = (401, 35);
type = Stem;
},
{
place = (519, 33);
place = (519, 33);
type = Stem;
}
);
layerId = m01;
shapes = (
{
closed = 1;
nodes = (
(452,-24,o),
(552,91,o),
(552,247,cs),
(552,402,o),
(452,517,o),
(300,517,cs),
(148,517,o),
(47,402,o),
(47,247,cs),
(47,91,o),
(148,-24,o),
(300,-24,cs)
);
},
{
closed = 1;
nodes = (
(163,622,o),
(166,619,o),
(171,619,cs),
(190,619,ls),
(195,619,o),
(198,622,o),
(198,627,cs),
(201,664,o),
(219,680,o),
(239,680,cs),
(279,680,o),
(297,614,o),
(359,614,cs),
(402,614,o),
(433,645,o),
(436,697,cs),
(436,702,o),
(433,705,o),
(428,705,cs),
(409,705,ls),
(404,705,o),
(401,702,o),
(401,697,cs),
(398,660,o),
(380,644,o),
(360,644,cs),
(320,644,o),
(302,710,o),
(240,710,cs),
(197,710,o),
(166,679,o),
(163,627,cs)
);
},
{
closed = 1;
nodes = (
(170,8,o),
(80,103,o),
(80,247,cs),
(80,390,o),
(170,485,o),
(300,485,cs),
(429,485,o),
(519,390,o),
(519,247,cs),
(519,103,o),
(429,8,o),
(300,8,cs)
);
}
);
vertWidth = 1000;
width = 599;
}
);
note = cid00213;
unicode = 245;
}
{
glyphname = odieresis;
layers = (
{
hints = (
{
horizontal = 1;
place = (-24, 32);
place = (-24, 32);
type = Stem;
},
{
horizontal = 1;
place = (485, 32);
place = (485, 32);
type = Stem;
},
{
horizontal = 1;
place = (624, 68);
place = (624, 68);
type = Stem;
},
{
place = (47, 33);
place = (47, 33);
type = Stem;
},
{
place = (194, 69);
place = (194, 69);
type = Stem;
},
{
place = (336, 69);
place = (336, 69);
type = Stem;
},
{
place = (519, 33);
place = (519, 33);
type = Stem;
}
);
layerId = m01;
shapes = (
{
closed = 1;
nodes = (
(452,-24,o),
(552,91,o),
(552,247,cs),
(552,402,o),
(452,517,o),
(300,517,cs),
(148,517,o),
(47,402,o),
(47,247,cs),
(47,91,o),
(148,-24,o),
(300,-24,cs)
);
},
{
closed = 1;
nodes = (
(170,8,o),
(80,103,o),
(80,247,cs),
(80,390,o),
(170,485,o),
(300,485,cs),
(429,485,o),
(519,390,o),
(519,247,cs),
(519,103,o),
(429,8,o),
(300,8,cs)
);
},
{
closed = 1;
nodes = (
(336,640,o),
(351,624,o),
(371,624,cs),
(390,624,o),
(405,639,o),
(405,658,cs),
(405,676,o),
(391,692,o),
(371,692,cs),
(351,692,o),
(336,676,o),
(336,658,cs)
);
},
{
closed = 1;
nodes = (
(194,640,o),
(209,624,o),
(229,624,cs),
(248,624,o),
(263,639,o),
(263,658,cs),
(263,676,o),
(249,692,o),
(229,692,cs),
(209,692,o),
(194,676,o),
(194,658,cs)
);
}
);
vertWidth = 1000;
width = 599;
}
);
note = cid00214;
unicode = 246;
}
{
glyphname = divide.full;
layers = (
{
hints = (
{
horizontal = 1;
place = (112, 71);
place = (112, 71);
type = Stem;
},
{
horizontal = 1;
place = (364, 32);
place = (364, 32);
type = Stem;
},
{
horizontal = 1;
place = (576, 71);
place = (576, 71);
type = Stem;
},
{
place = (464, 72);
place = (464, 72);
type = Stem;
}
);
layerId = m01;
shapes = (
{
closed = 1;
nodes = (
(464,588,o),
(482,576,o),
(500,576,cs),
(518,576,o),
(536,588,o),
(536,612,cs),
(536,636,o),
(518,647,o),
(500,647,cs),
(482,647,o),
(464,636,o),
(464,612,cs)
);
},
{
closed = 1;
nodes = (
(200,373,ls),
(200,367,o),
(203,364,o),
(209,364,cs),
(791,364,ls),
(797,364,o),
(800,367,o),
(800,373,cs),
(800,387,ls),
(800,393,o),
(797,396,o),
(791,396,cs),
(209,396,ls),
(203,396,o),
(200,393,o),
(200,387,cs)
);
},
{
closed = 1;
nodes = (
(464,124,o),
(482,112,o),
(500,112,cs),
(518,112,o),
(536,124,o),
(536,147,cs),
(536,171,o),
(518,183,o),
(500,183,cs),
(482,183,o),
(464,171,o),
(464,147,cs)
);
}
);
vertWidth = 1000;
width = 1000;
}
);
note = cid00696;
unicode = 247;
}
{
glyphname = oslash;
layers = (
{
hints = (
{
horizontal = 1;
place = (-24, 32);
place = (-24, 32);
type = Stem;
},
{
horizontal = 1;
place = (485, 32);
place = (485, 32);
type = Stem;
},
{
place = (47, 33);
place = (47, 33);
type = Stem;
},
{
place = (519, 33);
place = (519, 33);
type = Stem;
}
);
layerId = m01;
shapes = (
{
closed = 1;
nodes = (
(558,496,ls),
(561,500,o),
(561,504,o),
(557,507,cs),
(545,518,ls),
(541,521,o),
(537,521,o),
(534,517,cs),
(473,450,l),
(430,492,o),
(370,517,o),
(300,517,cs),
(148,517,o),
(47,402,o),
(47,247,cs),
(47,170,o),
(71,103,o),
(114,55,c),
(51,-14,ls),
(48,-18,o),
(48,-22,o),
(52,-25,cs),
(64,-36,ls),
(68,-39,o),
(72,-39,o),
(75,-35,cs),
(137,33,l),
(180,-3,o),
(235,-24,o),
(300,-24,cs),
(452,-24,o),
(552,91,o),
(552,247,cs),
(552,317,o),
(531,380,o),
(494,427,c)
);
},
{
closed = 1;
nodes = (
(80,390,o),
(170,485,o),
(300,485,cs),
(361,485,o),
(413,464,o),
(451,426,c),
(136,79,l),
(101,121,o),
(80,178,o),
(80,247,cs)
);
},
{
closed = 1;
nodes = (
(244,8,o),
(196,25,o),
(159,57,c),
(472,402,l),
(502,362,o),
(519,309,o),
(519,247,cs),
(519,103,o),
(429,8,o),
(300,8,cs)
);
}
);
vertWidth = 1000;
width = 599;
}
);
note = cid00148;
unicode = 248;
}
{
glyphname = ugrave;
layers = (
{
hints = (
{
horizontal = 1;
place = (-24, 32);
place = (-24, 32);
type = Stem;
},
{
horizontal = 1;
place = (506, -20);
target = down;
type = TopGhost;
},
{
place = (90, 31);
place = (90, 31);
type = Stem;
},
{
place = (476, 26);
place = (476, 26);
type = Stem;
},
{
horizontal = 1;
place = (-13, 21);
target = up;
type = BottomGhost;
},
{
place = (471, 31);
place = (471, 31);
type = Stem;
}
);
layerId = m01;
shapes = (
{
closed = 1;
nodes = (
(476,-5,ls),
(476,-11,o),
(479,-13,o),
(484,-13,cs),
(494,-13,ls),
(499,-13,o),
(502,-10,o),
(502,-5,cs),
(502,498,ls),
(502,503,o),
(499,506,o),
(494,506,cs),
(479,506,ls),
(474,506,o),
(471,503,o),
(471,498,cs),
(471,221,ls),
(471,72,o),
(357,8,o),
(273,8,cs),
(170,8,o),
(121,70,o),
(121,184,cs),
(121,498,ls),
(121,503,o),
(118,506,o),
(113,506,cs),
(98,506,ls),
(93,506,o),
(90,503,o),
(90,498,cs),
(90,170,ls),
(90,49,o),
(158,-24,o),
(270,-24,cs),
(347,-24,o),
(436,21,o),
(472,108,c)
);
},
{
closed = 1;
nodes = (
(220,731,ls),
(215,731,o),
(214,729,o),
(217,725,cs),
(307,598,ls),
(310,594,o),
(315,592,o),
(320,592,cs),
(341,592,ls),
(346,592,o),
(348,594,o),
(345,599,cs),
(262,724,ls),
(259,729,o),
(255,731,o),
(250,731,cs)
);
}
);
vertWidth = 1000;
width = 595;
}
);
note = cid00216;
unicode = 249;
}
{
glyphname = udieresis;
layers = (
{
hints = (
{
horizontal = 1;
place = (-24, 32);
place = (-24, 32);
type = Stem;
},
{
horizontal = 1;
place = (506, -20);
target = down;
type = TopGhost;
},
{
horizontal = 1;
place = (624, 68);
place = (624, 68);
type = Stem;
},
{
place = (90, 31);
place = (90, 31);
type = Stem;
},
{
place = (476, 26);
place = (476, 26);
type = Stem;
},
{
horizontal = 1;
place = (-13, 21);
target = up;
type = BottomGhost;
},
{
place = (471, 31);
place = (471, 31);
type = Stem;
},
{
place = (192, 69);
place = (192, 69);
type = Stem;
},
{
place = (334, 69);
place = (334, 69);
type = Stem;
}
);
layerId = m01;
shapes = (
{
closed = 1;
nodes = (
(476,-5,ls),
(476,-11,o),
(479,-13,o),
(484,-13,cs),
(494,-13,ls),
(499,-13,o),
(502,-10,o),
(502,-5,cs),
(502,498,ls),
(502,503,o),
(499,506,o),
(494,506,cs),
(479,506,ls),
(474,506,o),
(471,503,o),
(471,498,cs),
(471,221,ls),
(471,72,o),
(357,8,o),
(273,8,cs),
(170,8,o),
(121,70,o),
(121,184,cs),
(121,498,ls),
(121,503,o),
(118,506,o),
(113,506,cs),
(98,506,ls),
(93,506,o),
(90,503,o),
(90,498,cs),
(90,170,ls),
(90,49,o),
(158,-24,o),
(270,-24,cs),
(347,-24,o),
(436,21,o),
(472,108,c)
);
},
{
closed = 1;
nodes = (
(334,640,o),
(349,624,o),
(369,624,cs),
(388,624,o),
(403,639,o),
(403,658,cs),
(403,676,o),
(389,692,o),
(369,692,cs),
(349,692,o),
(334,676,o),
(334,658,cs)
);
},
{
closed = 1;
nodes = (
(192,640,o),
(207,624,o),
(227,624,cs),
(246,624,o),
(261,639,o),
(261,658,cs),
(261,676,o),
(247,692,o),
(227,692,cs),
(207,692,o),
(192,676,o),
(192,658,cs)
);
}
);
vertWidth = 1000;
width = 595;
}
);
note = cid00219;
unicode = 252;
}
{
glyphname = yacute;
layers = (
{
hints = (
{
horizontal = 1;
place = (-243, 21);
target = up;
type = BottomGhost;
},
{
horizontal = 1;
place = (506, -20);
target = down;
type = TopGhost;
},
{
place = (32, 462);
place = (32, 462);
type = Stem;
}
);
layerId = m01;
shapes = (
{
closed = 1;
nodes = (
(256,-11,l),
(166,-233,ls),
(164,-239,o),
(166,-243,o),
(172,-243,cs),
(188,-243,ls),
(192,-243,o),
(196,-242,o),
(198,-237,cs),
(493,497,ls),
(495,502,o),
(493,506,o),
(486,506,cs),
(469,506,ls),
(465,506,o),
(462,505,o),
(460,500,cs),
(272,30,l),
(68,500,l),
(65,505,o),
(61,506,o),
(57,506,cs),
(39,506,ls),
(33,506,o),
(31,503,o),
(33,497,cs)
);
},
{
closed = 1;
nodes = (
(314,731,ls),
(309,731,o),
(305,729,o),
(302,724,cs),
(219,599,ls),
(216,594,o),
(218,592,o),
(223,592,cs),
(244,592,ls),
(249,592,o),
(254,594,o),
(257,598,cs),
(347,725,ls),
(350,729,o),
(349,731,o),
(344,731,cs)
);
}
);
vertWidth = 1000;
width = 525;
}
);
note = cid00220;
unicode = 253;
}
{
glyphname = ydieresis;
layers = (
{
hints = (
{
horizontal = 1;
place = (-243, 21);
target = up;
type = BottomGhost;
},
{
horizontal = 1;
place = (506, -20);
target = down;
type = TopGhost;
},
{
horizontal = 1;
place = (624, 68);
place = (624, 68);
type = Stem;
},
{
place = (160, 69);
place = (160, 69);
type = Stem;
},
{
place = (302, 69);
place = (302, 69);
type = Stem;
}
);
layerId = m01;
shapes = (
{
closed = 1;
nodes = (
(256,-11,l),
(166,-233,ls),
(164,-239,o),
(166,-243,o),
(172,-243,cs),
(188,-243,ls),
(192,-243,o),
(196,-242,o),
(198,-237,cs),
(493,497,ls),
(495,502,o),
(493,506,o),
(486,506,cs),
(469,506,ls),
(465,506,o),
(462,505,o),
(460,500,cs),
(272,30,l),
(68,500,l),
(65,505,o),
(61,506,o),
(57,506,cs),
(39,506,ls),
(33,506,o),
(31,503,o),
(33,497,cs)
);
},
{
closed = 1;
nodes = (
(302,640,o),
(317,624,o),
(337,624,cs),
(356,624,o),
(371,639,o),
(371,658,cs),
(371,676,o),
(357,692,o),
(337,692,cs),
(317,692,o),
(302,676,o),
(302,658,cs)
);
},
{
closed = 1;
nodes = (
(160,640,o),
(175,624,o),
(195,624,cs),
(214,624,o),
(229,639,o),
(229,658,cs),
(229,676,o),
(215,692,o),
(195,692,cs),
(175,692,o),
(160,676,o),
(160,658,cs)
);
}
);
vertWidth = 1000;
width = 525;
}
);
note = cid00222;
unicode = 255;
}
{
glyphname = Amacron;
layers = (
{
hints = (
{
horizontal = 1;
place = (-13, 21);
target = up;
type = BottomGhost;
},
{
horizontal = 1;
place = (220, 33);
place = (220, 33);
type = Stem;
},
{
horizontal = 1;
place = (730, 31);
place = (730, 31);
type = Stem;
},
{
horizontal = 1;
place = (899, 31);
place = (899, 31);
type = Stem;
},
{
place = (32, 661);
place = (32, 661);
type = Stem;
}
);
layerId = m01;
shapes = (
{
closed = 1;
nodes = (
(157,220,l),
(567,220,l),
(657,-7,ls),
(659,-12,o),
(664,-13,o),
(668,-13,cs),
(686,-13,ls),
(692,-13,o),
(694,-9,o),
(692,-4,cs),
(386,755,ls),
(384,760,o),
(380,761,o),
(376,761,cs),
(349,761,ls),
(345,761,o),
(341,760,o),
(339,755,cs),
(33,-4,ls),
(31,-9,o),
(33,-13,o),
(39,-13,cs),
(55,-13,ls),
(59,-13,o),
(63,-12,o),
(65,-7,cs)
);
},
{
closed = 1;
nodes = (
(249,930,ls),
(244,930,o),
(241,927,o),
(241,922,cs),
(241,907,ls),
(241,902,o),
(244,899,o),
(249,899,cs),
(475,899,ls),
(480,899,o),
(483,902,o),
(483,907,cs),
(483,922,ls),
(483,927,o),
(480,930,o),
(475,930,cs)
);
},
{
closed = 1;
nodes = (
(362,730,l),
(553,253,l),
(170,253,l)
);
}
);
vertWidth = 1000;
width = 725;
}
);
note = cid25718;
unicode = 256;
}
{
glyphname = Abreve;
layers = (
{
hints = (
{
horizontal = 1;
place = (-13, 21);
target = up;
type = BottomGhost;
},
{
horizontal = 1;
place = (220, 33);
place = (220, 33);
type = Stem;
},
{
horizontal = 1;
place = (730, 31);
place = (730, 31);
type = Stem;
},
{
horizontal = 1;
place = (857, 31);
place = (857, 31);
type = Stem;
},
{
place = (32, 661);
place = (32, 661);
type = Stem;
}
);
layerId = m01;
shapes = (
{
closed = 1;
nodes = (
(157,220,l),
(567,220,l),
(657,-7,ls),
(659,-12,o),
(664,-13,o),
(668,-13,cs),
(686,-13,ls),
(692,-13,o),
(694,-9,o),
(692,-4,cs),
(386,755,ls),
(384,760,o),
(380,761,o),
(376,761,cs),
(349,761,ls),
(345,761,o),
(341,760,o),
(339,755,cs),
(33,-4,ls),
(31,-9,o),
(33,-13,o),
(39,-13,cs),
(55,-13,ls),
(59,-13,o),
(63,-12,o),
(65,-7,cs)
);
},
{
closed = 1;
nodes = (
(272,969,o),
(269,972,o),
(264,972,cs),
(244,972,ls),
(239,972,o),
(236,969,o),
(237,964,cs),
(247,899,o),
(299,857,o),
(362,857,cs),
(425,857,o),
(477,899,o),
(487,964,cs),
(488,969,o),
(485,972,o),
(480,972,cs),
(460,972,ls),
(455,972,o),
(452,969,o),
(451,964,cs),
(443,919,o),
(414,888,o),
(362,888,cs),
(310,888,o),
(281,919,o),
(273,964,cs)
);
},
{
closed = 1;
nodes = (
(362,730,l),
(553,253,l),
(170,253,l)
);
}
);
vertWidth = 1000;
width = 725;
}
);
note = cid25720;
unicode = 258;
}
{
glyphname = Aogonek;
layers = (
{
hints = (
{
horizontal = 1;
place = (-184, 30);
place = (-184, 30);
type = Stem;
},
{
horizontal = 1;
place = (-2, 21);
target = up;
type = BottomGhost;
},
{
horizontal = 1;
place = (220, 33);
place = (220, 33);
type = Stem;
},
{
horizontal = 1;
place = (730, 31);
place = (730, 31);
type = Stem;
},
{
place = (590, 35);
place = (590, 35);
type = Stem;
},
{
horizontal = 1;
place = (-13, 21);
target = up;
type = BottomGhost;
}
);
layerId = m01;
shapes = (
{
closed = 1;
nodes = (
(157,220,l),
(567,220,l),
(655,-2,l),
(620,-23,o),
(590,-67,o),
(590,-102,cs),
(590,-138,o),
(619,-184,o),
(695,-184,cs),
(708,-184,o),
(764,-183,o),
(764,-163,cs),
(764,-150,ls),
(764,-145,o),
(762,-143,o),
(757,-145,cs),
(739,-151,o),
(717,-154,o),
(702,-154,cs),
(658,-154,o),
(625,-136,o),
(625,-100,cs),
(625,-74,o),
(640,-38,o),
(681,-13,c),
(686,-13,ls),
(692,-13,o),
(694,-9,o),
(692,-4,cs),
(386,755,ls),
(384,760,o),
(380,761,o),
(376,761,cs),
(349,761,ls),
(345,761,o),
(341,760,o),
(339,755,cs),
(33,-4,ls),
(31,-9,o),
(33,-13,o),
(39,-13,cs),
(55,-13,ls),
(59,-13,o),
(63,-12,o),
(65,-7,cs)
);
},
{
closed = 1;
nodes = (
(362,730,l),
(553,253,l),
(170,253,l)
);
}
);
vertWidth = 1000;
width = 725;
}
);
note = cid25722;
unicode = 260;
}
{
glyphname = aogonek;
layers = (
{
hints = (
{
horizontal = 1;
place = (-184, 30);
place = (-184, 30);
type = Stem;
},
{
horizontal = 1;
place = (-24, 32);
place = (-24, 32);
type = Stem;
},
{
horizontal = 1;
place = (485, 32);
place = (485, 32);
type = Stem;
},
{
place = (47, 33);
place = (47, 33);
type = Stem;
},
{
place = (443, 35);
place = (443, 35);
type = Stem;
},
{
place = (519, 26);
place = (519, 26);
type = Stem;
},
{
horizontal = 1;
place = (-13, 16);
place = (-13, 16);
type = Stem;
},
{
horizontal = 1;
place = (506, -20);
target = down;
type = TopGhost;
}
);
layerId = m01;
shapes = (
{
closed = 1;
nodes = (
(514,382,l),
(482,463,o),
(395,517,o),
(302,517,cs),
(147,517,o),
(47,403,o),
(47,247,cs),
(47,90,o),
(147,-24,o),
(302,-24,cs),
(395,-24,o),
(482,30,o),
(514,111,c),
(519,3,l),
(517,3,o),
(516,2,o),
(515,2,c),
(477,-17,o),
(443,-64,o),
(443,-102,cs),
(443,-138,o),
(472,-184,o),
(548,-184,cs),
(561,-184,o),
(617,-183,o),
(617,-163,cs),
(617,-150,ls),
(617,-145,o),
(615,-143,o),
(610,-145,cs),
(592,-151,o),
(570,-154,o),
(555,-154,cs),
(511,-154,o),
(478,-136,o),
(478,-100,cs),
(478,-74,o),
(493,-38,o),
(534,-13,c),
(537,-13,ls),
(542,-13,o),
(545,-10,o),
(545,-5,cs),
(545,498,ls),
(545,503,o),
(542,506,o),
(537,506,cs),
(528,506,ls),
(522,506,o),
(519,504,o),
(519,498,cs)
);
},
{
closed = 1;
nodes = (
(170,8,o),
(80,103,o),
(80,247,cs),
(80,390,o),
(170,485,o),
(300,485,cs),
(429,485,o),
(519,390,o),
(519,247,cs),
(519,103,o),
(429,8,o),
(300,8,cs)
);
}
);
vertWidth = 1000;
width = 638;
}
);
note = cid25723;
unicode = 261;
}
{
glyphname = cacute;
layers = (
{
hints = (
{
horizontal = 1;
place = (-24, 32);
place = (-24, 32);
type = Stem;
},
{
horizontal = 1;
place = (485, 32);
place = (485, 32);
type = Stem;
},
{
place = (47, 33);
place = (47, 33);
type = Stem;
}
);
layerId = m01;
shapes = (
{
closed = 1;
nodes = (
(487,129,l),
(482,132,o),
(479,129,o),
(477,125,cs),
(446,51,o),
(388,8,o),
(298,8,cs),
(151,8,o),
(80,120,o),
(80,247,cs),
(80,372,o),
(149,485,o),
(298,485,cs),
(384,485,o),
(442,447,o),
(472,374,cs),
(474,369,o),
(476,367,o),
(482,369,cs),
(496,373,ls),
(502,375,o),
(503,378,o),
(501,384,cs),
(467,470,o),
(398,517,o),
(298,517,cs),
(147,517,o),
(47,404,o),
(47,247,cs),
(47,89,o),
(146,-24,o),
(298,-24,cs),
(396,-24,o),
(469,22,o),
(505,113,cs),
(507,118,o),
(506,122,o),
(501,124,cs)
);
},
{
closed = 1;
nodes = (
(346,731,ls),
(341,731,o),
(337,729,o),
(334,724,cs),
(251,599,ls),
(248,594,o),
(250,592,o),
(255,592,cs),
(276,592,ls),
(281,592,o),
(286,594,o),
(289,598,cs),
(379,725,ls),
(382,729,o),
(381,731,o),
(376,731,cs)
);
}
);
vertWidth = 1000;
width = 549;
}
);
note = cid25725;
unicode = 263;
}
{
glyphname = Cdotaccent;
layers = (
{
hints = (
{
horizontal = 1;
place = (-28, 34);
place = (-28, 34);
type = Stem;
},
{
horizontal = 1;
place = (742, 34);
place = (742, 34);
type = Stem;
},
{
horizontal = 1;
place = (878, 72);
place = (878, 72);
type = Stem;
},
{
place = (63, 35);
place = (63, 35);
type = Stem;
},
{
place = (383, 74);
place = (383, 74);
type = Stem;
}
);
layerId = m01;
shapes = (
{
closed = 1;
nodes = (
(725,219,ls),
(720,221,o),
(715,219,o),
(713,214,cs),
(668,83,o),
(567,6,o),
(420,6,cs),
(209,6,o),
(98,162,o),
(98,374,cs),
(98,585,o),
(209,742,o),
(420,742,cs),
(561,742,o),
(648,679,o),
(698,563,c),
(701,559,o),
(705,557,o),
(709,559,cs),
(726,565,ls),
(731,567,o),
(733,571,o),
(731,576,cs),
(678,702,o),
(573,776,o),
(420,776,cs),
(206,776,o),
(63,623,o),
(63,374,cs),
(63,125,o),
(206,-28,o),
(420,-28,cs),
(590,-28,o),
(698,66,o),
(746,203,c),
(747,209,o),
(745,212,o),
(741,214,c)
);
},
{
closed = 1;
nodes = (
(383,896,o),
(398,878,o),
(420,878,cs),
(441,878,o),
(457,896,o),
(457,913,cs),
(457,933,o),
(441,950,o),
(420,950,cs),
(399,950,o),
(383,933,o),
(383,913,cs)
);
}
);
vertWidth = 1000;
width = 803;
}
);
note = cid25726;
unicode = 266;
}
{
glyphname = cdotaccent;
layers = (
{
hints = (
{
horizontal = 1;
place = (-24, 32);
place = (-24, 32);
type = Stem;
},
{
horizontal = 1;
place = (485, 32);
place = (485, 32);
type = Stem;
},
{
horizontal = 1;
place = (623, 72);
place = (623, 72);
type = Stem;
},
{
place = (47, 33);
place = (47, 33);
type = Stem;
},
{
place = (261, 74);
place = (261, 74);
type = Stem;
}
);
layerId = m01;
shapes = (
{
closed = 1;
nodes = (
(487,129,l),
(482,132,o),
(479,129,o),
(477,125,cs),
(446,51,o),
(388,8,o),
(298,8,cs),
(151,8,o),
(80,120,o),
(80,247,cs),
(80,372,o),
(149,485,o),
(298,485,cs),
(384,485,o),
(442,447,o),
(472,374,cs),
(474,369,o),
(476,367,o),
(482,369,cs),
(496,373,ls),
(502,375,o),
(503,378,o),
(501,384,cs),
(467,470,o),
(398,517,o),
(298,517,cs),
(147,517,o),
(47,404,o),
(47,247,cs),
(47,89,o),
(146,-24,o),
(298,-24,cs),
(396,-24,o),
(469,22,o),
(505,113,cs),
(507,118,o),
(506,122,o),
(501,124,cs)
);
},
{
closed = 1;
nodes = (
(261,641,o),
(276,623,o),
(298,623,cs),
(319,623,o),
(335,641,o),
(335,658,cs),
(335,678,o),
(319,695,o),
(298,695,cs),
(277,695,o),
(261,678,o),
(261,658,cs)
);
}
);
vertWidth = 1000;
width = 549;
}
);
note = cid25727;
unicode = 267;
}
{
glyphname = Ccaron;
layers = (
{
hints = (
{
horizontal = 1;
place = (-28, 34);
place = (-28, 34);
type = Stem;
},
{
horizontal = 1;
place = (742, 34);
place = (742, 34);
type = Stem;
},
{
horizontal = 1;
place = (847, 26);
place = (847, 26);
type = Stem;
},
{
place = (63, 35);
place = (63, 35);
type = Stem;
},
{
horizontal = 1;
place = (847, 139);
place = (847, 139);
type = Stem;
}
);
layerId = m01;
shapes = (
{
closed = 1;
nodes = (
(725,219,ls),
(720,221,o),
(715,219,o),
(713,214,cs),
(668,83,o),
(567,6,o),
(420,6,cs),
(209,6,o),
(98,162,o),
(98,374,cs),
(98,585,o),
(209,742,o),
(420,742,cs),
(561,742,o),
(648,679,o),
(698,563,c),
(701,559,o),
(705,557,o),
(709,559,cs),
(726,565,ls),
(731,567,o),
(733,571,o),
(731,576,cs),
(678,702,o),
(573,776,o),
(420,776,cs),
(206,776,o),
(63,623,o),
(63,374,cs),
(63,125,o),
(206,-28,o),
(420,-28,cs),
(590,-28,o),
(698,66,o),
(746,203,c),
(747,209,o),
(745,212,o),
(741,214,c)
);
},
{
closed = 1;
nodes = (
(397,853,ls),
(400,849,o),
(405,847,o),
(410,847,cs),
(431,847,ls),
(436,847,o),
(441,849,o),
(444,853,cs),
(545,980,ls),
(548,984,o),
(547,986,o),
(542,986,cs),
(517,986,ls),
(512,986,o),
(507,984,o),
(504,980,cs),
(420,873,l),
(337,980,ls),
(334,984,o),
(329,986,o),
(324,986,cs),
(299,986,ls),
(294,986,o),
(293,984,o),
(296,980,cs)
);
}
);
vertWidth = 1000;
width = 803;
}
);
note = cid25728;
unicode = 268;
}
{
glyphname = ccaron;
layers = (
{
hints = (
{
horizontal = 1;
place = (-24, 32);
place = (-24, 32);
type = Stem;
},
{
horizontal = 1;
place = (485, 32);
place = (485, 32);
type = Stem;
},
{
horizontal = 1;
place = (592, 26);
place = (592, 26);
type = Stem;
},
{
place = (47, 33);
place = (47, 33);
type = Stem;
},
{
horizontal = 1;
place = (592, 139);
place = (592, 139);
type = Stem;
}
);
layerId = m01;
shapes = (
{
closed = 1;
nodes = (
(487,129,l),
(482,132,o),
(479,129,o),
(477,125,cs),
(446,51,o),
(388,8,o),
(298,8,cs),
(151,8,o),
(80,120,o),
(80,247,cs),
(80,372,o),
(149,485,o),
(298,485,cs),
(384,485,o),
(442,447,o),
(472,374,cs),
(474,369,o),
(476,367,o),
(482,369,cs),
(496,373,ls),
(502,375,o),
(503,378,o),
(501,384,cs),
(467,470,o),
(398,517,o),
(298,517,cs),
(147,517,o),
(47,404,o),
(47,247,cs),
(47,89,o),
(146,-24,o),
(298,-24,cs),
(396,-24,o),
(469,22,o),
(505,113,cs),
(507,118,o),
(506,122,o),
(501,124,cs)
);
},
{
closed = 1;
nodes = (
(275,598,ls),
(278,594,o),
(283,592,o),
(288,592,cs),
(309,592,ls),
(314,592,o),
(319,594,o),
(322,598,cs),
(423,725,ls),
(426,729,o),
(425,731,o),
(420,731,cs),
(395,731,ls),
(390,731,o),
(385,729,o),
(382,725,cs),
(298,618,l),
(215,725,ls),
(212,729,o),
(207,731,o),
(202,731,cs),
(177,731,ls),
(172,731,o),
(171,729,o),
(174,725,cs)
);
}
);
vertWidth = 1000;
width = 549;
}
);
note = cid25729;
unicode = 269;
}
{
glyphname = Dcaron;
layers = (
{
hints = (
{
horizontal = 1;
place = (-13, 33);
place = (-13, 33);
type = Stem;
},
{
horizontal = 1;
place = (729, 32);
place = (729, 32);
type = Stem;
},
{
horizontal = 1;
place = (847, 26);
place = (847, 26);
type = Stem;
},
{
place = (106, 33);
place = (106, 33);
type = Stem;
},
{
place = (673, 35);
place = (673, 35);
type = Stem;
},
{
horizontal = 1;
place = (847, 139);
place = (847, 139);
type = Stem;
}
);
layerId = m01;
shapes = (
{
closed = 1;
nodes = (
(106,-5,ls),
(106,-10,o),
(109,-13,o),
(114,-13,cs),
(319,-13,ls),
(589,-13,o),
(708,145,o),
(708,374,cs),
(708,603,o),
(589,761,o),
(319,761,cs),
(114,761,ls),
(109,761,o),
(106,758,o),
(106,753,cs)
);
},
{
closed = 1;
nodes = (
(362,853,ls),
(365,849,o),
(370,847,o),
(375,847,cs),
(396,847,ls),
(401,847,o),
(406,849,o),
(409,853,cs),
(510,980,ls),
(513,984,o),
(512,986,o),
(507,986,cs),
(482,986,ls),
(477,986,o),
(472,984,o),
(469,980,cs),
(385,873,l),
(302,980,ls),
(299,984,o),
(294,986,o),
(289,986,cs),
(264,986,ls),
(259,986,o),
(258,984,o),
(261,980,cs)
);
},
{
closed = 1;
nodes = (
(139,20,l),
(139,729,l),
(313,729,ls),
(558,729,o),
(673,593,o),
(673,374,cs),
(673,156,o),
(558,20,o),
(313,20,cs)
);
}
);
vertWidth = 1000;
width = 771;
}
);
note = cid25730;
unicode = 270;
}
{
glyphname = dcaron;
layers = (
{
hints = (
{
horizontal = 1;
place = (-24, 32);
place = (-24, 32);
type = Stem;
},
{
horizontal = 1;
place = (485, 32);
place = (485, 32);
type = Stem;
},
{
place = (47, 33);
place = (47, 33);
type = Stem;
},
{
place = (514, 31);
place = (514, 31);
type = Stem;
},
{
horizontal = 1;
place = (-13, 21);
target = up;
type = BottomGhost;
},
{
place = (519, 26);
place = (519, 26);
type = Stem;
},
{
horizontal = 1;
place = (714, 71);
place = (714, 71);
type = Stem;
},
{
place = (660, 74);
place = (660, 74);
type = Stem;
}
);
layerId = m01;
shapes = (
{
closed = 1;
nodes = (
(514,383,l),
(481,464,o),
(395,517,o),
(302,517,cs),
(147,517,o),
(47,403,o),
(47,247,cs),
(47,90,o),
(147,-24,o),
(302,-24,cs),
(395,-24,o),
(482,30,o),
(514,111,c),
(519,-5,ls),
(519,-11,o),
(522,-13,o),
(528,-13,cs),
(537,-13,ls),
(542,-13,o),
(545,-10,o),
(545,-5,cs),
(545,770,ls),
(545,775,o),
(542,778,o),
(537,778,cs),
(522,778,ls),
(517,778,o),
(514,775,o),
(514,770,cs)
);
},
{
closed = 1;
nodes = (
(170,8,o),
(80,103,o),
(80,247,cs),
(80,390,o),
(170,485,o),
(300,485,cs),
(429,485,o),
(519,390,o),
(519,247,cs),
(519,103,o),
(429,8,o),
(300,8,cs)
);
},
{
closed = 1;
nodes = (
(651,604,l),
(674,604,l),
(720,701,ls),
(729,721,o),
(734,732,o),
(734,749,cs),
(734,770,o),
(718,785,o),
(697,785,cs),
(677,785,o),
(660,770,o),
(660,749,cs),
(660,730,o),
(674,717,o),
(694,714,c)
);
}
);
vertWidth = 1000;
width = 668;
}
);
note = cid25731;
unicode = 271;
}
{
glyphname = dcroat;
layers = (
{
hints = (
{
horizontal = 1;
place = (-24, 32);
place = (-24, 32);
type = Stem;
},
{
horizontal = 1;
place = (485, 32);
place = (485, 32);
type = Stem;
},
{
horizontal = 1;
place = (624, 31);
place = (624, 31);
type = Stem;
},
{
place = (47, 33);
place = (47, 33);
type = Stem;
},
{
place = (514, 31);
place = (514, 31);
type = Stem;
},
{
horizontal = 1;
place = (-13, 21);
target = up;
type = BottomGhost;
},
{
place = (519, 26);
place = (519, 26);
type = Stem;
}
);
layerId = m01;
shapes = (
{
closed = 1;
nodes = (
(514,655,l),
(371,655,ls),
(366,655,o),
(363,652,o),
(363,647,cs),
(363,632,ls),
(363,627,o),
(366,624,o),
(371,624,cs),
(514,624,l),
(514,383,l),
(481,464,o),
(395,517,o),
(302,517,cs),
(147,517,o),
(47,403,o),
(47,247,cs),
(47,90,o),
(147,-24,o),
(302,-24,cs),
(395,-24,o),
(482,30,o),
(514,111,c),
(519,-5,ls),
(519,-11,o),
(522,-13,o),
(528,-13,cs),
(537,-13,ls),
(542,-13,o),
(545,-10,o),
(545,-5,cs),
(545,624,l),
(627,624,ls),
(632,624,o),
(635,627,o),
(635,632,cs),
(635,647,ls),
(635,652,o),
(632,655,o),
(627,655,cs),
(545,655,l),
(545,770,ls),
(545,775,o),
(542,778,o),
(537,778,cs),
(522,778,ls),
(517,778,o),
(514,775,o),
(514,770,cs)
);
},
{
closed = 1;
nodes = (
(170,8,o),
(80,103,o),
(80,247,cs),
(80,390,o),
(170,485,o),
(300,485,cs),
(429,485,o),
(519,390,o),
(519,247,cs),
(519,103,o),
(429,8,o),
(300,8,cs)
);
}
);
vertWidth = 1000;
width = 638;
}
);
note = cid25733;
unicode = 273;
}
{
glyphname = emacron;
layers = (
{
hints = (
{
horizontal = 1;
place = (-24, 32);
place = (-24, 32);
type = Stem;
},
{
horizontal = 1;
place = (235, 29);
place = (235, 29);
type = Stem;
},
{
horizontal = 1;
place = (485, 32);
place = (485, 32);
type = Stem;
},
{
horizontal = 1;
place = (644, 31);
place = (644, 31);
type = Stem;
},
{
place = (47, 33);
place = (47, 33);
type = Stem;
},
{
place = (483, 35);
place = (483, 35);
type = Stem;
}
);
layerId = m01;
shapes = (
{
closed = 1;
nodes = (
(493,129,l),
(488,132,o),
(484,130,o),
(482,125,cs),
(447,51,o),
(390,8,o),
(292,8,cs),
(169,8,o),
(85,98,o),
(80,235,c),
(510,235,ls),
(515,235,o),
(518,238,o),
(518,243,cs),
(517,403,o),
(440,517,o),
(293,517,cs),
(147,517,o),
(47,402,o),
(47,247,cs),
(47,91,o),
(143,-24,o),
(292,-24,cs),
(397,-24,o),
(468,23,o),
(510,115,cs),
(512,119,o),
(510,123,o),
(504,125,cs)
);
},
{
closed = 1;
nodes = (
(179,675,ls),
(174,675,o),
(171,672,o),
(171,667,cs),
(171,652,ls),
(171,647,o),
(174,644,o),
(179,644,cs),
(405,644,ls),
(410,644,o),
(413,647,o),
(413,652,cs),
(413,667,ls),
(413,672,o),
(410,675,o),
(405,675,cs)
);
},
{
closed = 1;
nodes = (
(80,264,l),
(88,398,o),
(174,485,o),
(293,485,cs),
(413,485,o),
(482,392,o),
(483,264,c)
);
}
);
vertWidth = 1000;
width = 559;
}
);
note = cid25735;
unicode = 275;
}
{
glyphname = edotaccent;
layers = (
{
hints = (
{
horizontal = 1;
place = (-24, 32);
place = (-24, 32);
type = Stem;
},
{
horizontal = 1;
place = (235, 29);
place = (235, 29);
type = Stem;
},
{
horizontal = 1;
place = (485, 32);
place = (485, 32);
type = Stem;
},
{
horizontal = 1;
place = (623, 72);
place = (623, 72);
type = Stem;
},
{
place = (47, 33);
place = (47, 33);
type = Stem;
},
{
place = (255, 74);
place = (255, 74);
type = Stem;
},
{
place = (483, 35);
place = (483, 35);
type = Stem;
}
);
layerId = m01;
shapes = (
{
closed = 1;
nodes = (
(493,129,l),
(488,132,o),
(484,130,o),
(482,125,cs),
(447,51,o),
(390,8,o),
(292,8,cs),
(169,8,o),
(85,98,o),
(80,235,c),
(510,235,ls),
(515,235,o),
(518,238,o),
(518,243,cs),
(517,403,o),
(440,517,o),
(293,517,cs),
(147,517,o),
(47,402,o),
(47,247,cs),
(47,91,o),
(143,-24,o),
(292,-24,cs),
(397,-24,o),
(468,23,o),
(510,115,cs),
(512,119,o),
(510,123,o),
(504,125,cs)
);
},
{
closed = 1;
nodes = (
(80,264,l),
(88,398,o),
(174,485,o),
(293,485,cs),
(413,485,o),
(482,392,o),
(483,264,c)
);
},
{
closed = 1;
nodes = (
(255,641,o),
(270,623,o),
(292,623,cs),
(313,623,o),
(329,641,o),
(329,658,cs),
(329,678,o),
(313,695,o),
(292,695,cs),
(271,695,o),
(255,678,o),
(255,658,cs)
);
}
);
vertWidth = 1000;
width = 559;
}
);
note = cid25737;
unicode = 279;
}
{
glyphname = eogonek;
layers = (
{
hints = (
{
horizontal = 1;
place = (-184, 30);
place = (-184, 30);
type = Stem;
},
{
horizontal = 1;
place = (-24, 32);
place = (-24, 32);
type = Stem;
},
{
horizontal = 1;
place = (235, 29);
place = (235, 29);
type = Stem;
},
{
horizontal = 1;
place = (485, 32);
place = (485, 32);
type = Stem;
},
{
place = (47, 33);
place = (47, 33);
type = Stem;
},
{
place = (286, 35);
place = (286, 35);
type = Stem;
},
{
place = (483, 35);
place = (483, 35);
type = Stem;
}
);
layerId = m01;
shapes = (
{
closed = 1;
nodes = (
(493,129,l),
(488,132,o),
(484,130,o),
(482,125,cs),
(447,51,o),
(390,8,o),
(292,8,cs),
(169,8,o),
(85,98,o),
(80,235,c),
(510,235,ls),
(515,235,o),
(518,238,o),
(518,243,cs),
(517,403,o),
(440,517,o),
(293,517,cs),
(147,517,o),
(47,402,o),
(47,247,cs),
(47,91,o),
(143,-24,o),
(292,-24,cs),
(303,-24,o),
(314,-23,o),
(325,-22,c),
(302,-45,o),
(286,-76,o),
(286,-102,cs),
(286,-138,o),
(315,-184,o),
(391,-184,cs),
(404,-184,o),
(460,-183,o),
(460,-163,cs),
(460,-150,ls),
(460,-145,o),
(458,-143,o),
(453,-145,cs),
(435,-151,o),
(413,-154,o),
(398,-154,cs),
(354,-154,o),
(321,-136,o),
(321,-100,cs),
(321,-73,o),
(338,-35,o),
(382,-10,c),
(439,10,o),
(481,52,o),
(510,115,cs),
(512,119,o),
(510,123,o),
(504,125,cs)
);
},
{
closed = 1;
nodes = (
(80,264,l),
(88,398,o),
(174,485,o),
(293,485,cs),
(413,485,o),
(482,392,o),
(483,264,c)
);
}
);
vertWidth = 1000;
width = 559;
}
);
note = cid25739;
unicode = 281;
}
{
glyphname = Ecaron;
layers = (
{
hints = (
{
horizontal = 1;
place = (-13, 33);
place = (-13, 33);
type = Stem;
},
{
horizontal = 1;
place = (373, 33);
place = (373, 33);
type = Stem;
},
{
horizontal = 1;
place = (729, 32);
place = (729, 32);
type = Stem;
},
{
horizontal = 1;
place = (847, 26);
place = (847, 26);
type = Stem;
},
{
place = (106, 33);
place = (106, 33);
type = Stem;
},
{
horizontal = 1;
place = (847, 139);
place = (847, 139);
type = Stem;
}
);
layerId = m01;
shapes = (
{
closed = 1;
nodes = (
(139,20,l),
(139,373,l),
(524,373,ls),
(530,373,o),
(533,376,o),
(533,382,cs),
(533,397,ls),
(533,403,o),
(530,406,o),
(524,406,cs),
(139,406,l),
(139,729,l),
(558,729,ls),
(563,729,o),
(567,732,o),
(567,737,cs),
(567,753,ls),
(567,758,o),
(563,761,o),
(558,761,cs),
(114,761,ls),
(109,761,o),
(106,758,o),
(106,753,cs),
(106,-5,ls),
(106,-10,o),
(109,-13,o),
(114,-13,cs),
(570,-13,ls),
(575,-13,o),
(578,-10,o),
(578,-5,cs),
(578,11,ls),
(578,17,o),
(575,20,o),
(570,20,cs)
);
},
{
closed = 1;
nodes = (
(319,853,ls),
(322,849,o),
(327,847,o),
(332,847,cs),
(353,847,ls),
(358,847,o),
(363,849,o),
(366,853,cs),
(467,980,ls),
(470,984,o),
(469,986,o),
(464,986,cs),
(439,986,ls),
(434,986,o),
(429,984,o),
(426,980,cs),
(342,873,l),
(259,980,ls),
(256,984,o),
(251,986,o),
(246,986,cs),
(221,986,ls),
(216,986,o),
(215,984,o),
(218,980,cs)
);
}
);
vertWidth = 1000;
width = 620;
}
);
note = cid25740;
unicode = 282;
}
{
glyphname = ecaron;
layers = (
{
hints = (
{
horizontal = 1;
place = (-24, 32);
place = (-24, 32);
type = Stem;
},
{
horizontal = 1;
place = (235, 29);
place = (235, 29);
type = Stem;
},
{
horizontal = 1;
place = (485, 32);
place = (485, 32);
type = Stem;
},
{
horizontal = 1;
place = (592, 26);
place = (592, 26);
type = Stem;
},
{
place = (47, 33);
place = (47, 33);
type = Stem;
},
{
place = (483, 35);
place = (483, 35);
type = Stem;
},
{
horizontal = 1;
place = (592, 139);
place = (592, 139);
type = Stem;
}
);
layerId = m01;
shapes = (
{
closed = 1;
nodes = (
(493,129,l),
(488,132,o),
(484,130,o),
(482,125,cs),
(447,51,o),
(390,8,o),
(292,8,cs),
(169,8,o),
(85,98,o),
(80,235,c),
(510,235,ls),
(515,235,o),
(518,238,o),
(518,243,cs),
(517,403,o),
(440,517,o),
(293,517,cs),
(147,517,o),
(47,402,o),
(47,247,cs),
(47,91,o),
(143,-24,o),
(292,-24,cs),
(397,-24,o),
(468,23,o),
(510,115,cs),
(512,119,o),
(510,123,o),
(504,125,cs)
);
},
{
closed = 1;
nodes = (
(269,598,ls),
(272,594,o),
(277,592,o),
(282,592,cs),
(303,592,ls),
(308,592,o),
(313,594,o),
(316,598,cs),
(417,725,ls),
(420,729,o),
(419,731,o),
(414,731,cs),
(389,731,ls),
(384,731,o),
(379,729,o),
(376,725,cs),
(292,618,l),
(209,725,ls),
(206,729,o),
(201,731,o),
(196,731,cs),
(171,731,ls),
(166,731,o),
(165,729,o),
(168,725,cs)
);
},
{
closed = 1;
nodes = (
(80,264,l),
(88,398,o),
(174,485,o),
(293,485,cs),
(413,485,o),
(482,392,o),
(483,264,c)
);
}
);
vertWidth = 1000;
width = 559;
}
);
note = cid25741;
unicode = 283;
}
{
glyphname = Gbreve;
layers = (
{
hints = (
{
horizontal = 1;
place = (-28, 34);
place = (-28, 34);
type = Stem;
},
{
horizontal = 1;
place = (331, 33);
place = (331, 33);
type = Stem;
},
{
horizontal = 1;
place = (742, 34);
place = (742, 34);
type = Stem;
},
{
horizontal = 1;
place = (855, 31);
place = (855, 31);
type = Stem;
},
{
place = (63, 35);
place = (63, 35);
type = Stem;
},
{
place = (725, 35);
place = (725, 35);
type = Stem;
}
);
layerId = m01;
shapes = (
{
closed = 1;
nodes = (
(725,331,l),
(725,309,ls),
(725,122,o),
(611,6,o),
(424,6,cs),
(213,6,o),
(98,163,o),
(98,374,cs),
(98,584,o),
(213,742,o),
(424,742,cs),
(565,742,o),
(652,679,o),
(703,563,cs),
(705,559,o),
(709,557,o),
(713,559,cs),
(730,565,ls),
(735,567,o),
(737,571,o),
(735,576,cs),
(683,702,o),
(577,776,o),
(424,776,cs),
(210,776,o),
(63,622,o),
(63,374,cs),
(63,126,o),
(210,-28,o),
(424,-28,cs),
(645,-28,o),
(760,118,o),
(760,311,cs),
(760,355,ls),
(760,360,o),
(756,364,o),
(751,364,cs),
(444,364,ls),
(439,364,o),
(436,360,o),
(436,355,cs),
(436,339,ls),
(436,334,o),
(439,331,o),
(444,331,cs)
);
},
{
closed = 1;
nodes = (
(322,967,o),
(319,970,o),
(314,970,cs),
(294,970,ls),
(289,970,o),
(286,967,o),
(287,962,cs),
(297,897,o),
(349,855,o),
(412,855,cs),
(475,855,o),
(527,897,o),
(537,962,cs),
(538,967,o),
(535,970,o),
(530,970,cs),
(510,970,ls),
(505,970,o),
(502,967,o),
(501,962,cs),
(493,917,o),
(464,886,o),
(412,886,cs),
(360,886,o),
(331,917,o),
(323,962,cs)
);
}
);
vertWidth = 1000;
width = 823;
}
);
note = cid25742;
unicode = 286;
}
{
glyphname = gbreve;
layers = (
{
hints = (
{
horizontal = 1;
place = (-254, 32);
place = (-254, 32);
type = Stem;
},
{
horizontal = 1;
place = (-24, 32);
place = (-24, 32);
type = Stem;
},
{
horizontal = 1;
place = (485, 32);
place = (485, 32);
type = Stem;
},
{
horizontal = 1;
place = (602, 31);
place = (602, 31);
type = Stem;
},
{
place = (47, 33);
place = (47, 33);
type = Stem;
},
{
place = (514, 31);
place = (514, 31);
type = Stem;
},
{
horizontal = 1;
place = (506, -20);
target = down;
type = TopGhost;
},
{
place = (519, 26);
place = (519, 26);
type = Stem;
}
);
layerId = m01;
shapes = (
{
closed = 1;
nodes = (
(514,382,l),
(482,463,o),
(395,517,o),
(302,517,cs),
(147,517,o),
(47,403,o),
(47,247,cs),
(47,90,o),
(147,-24,o),
(302,-24,cs),
(395,-24,o),
(481,29,o),
(514,110,c),
(514,-30,ls),
(514,-179,o),
(409,-222,o),
(308,-222,cs),
(204,-222,o),
(146,-175,o),
(115,-102,cs),
(113,-97,o),
(110,-95,o),
(104,-97,cs),
(91,-103,l),
(84,-105,o),
(84,-108,o),
(87,-113,c),
(121,-204,o),
(196,-254,o),
(308,-254,cs),
(430,-254,o),
(545,-198,o),
(545,-27,cs),
(545,498,ls),
(545,503,o),
(542,506,o),
(537,506,cs),
(528,506,ls),
(522,506,o),
(519,504,o),
(519,498,cs)
);
},
{
closed = 1;
nodes = (
(232,714,o),
(229,717,o),
(224,717,cs),
(204,717,ls),
(199,717,o),
(196,714,o),
(197,709,cs),
(207,644,o),
(259,602,o),
(322,602,cs),
(385,602,o),
(437,644,o),
(447,709,cs),
(448,714,o),
(445,717,o),
(440,717,cs),
(420,717,ls),
(415,717,o),
(412,714,o),
(411,709,cs),
(403,664,o),
(374,633,o),
(322,633,cs),
(270,633,o),
(241,664,o),
(233,709,cs)
);
},
{
closed = 1;
nodes = (
(170,8,o),
(80,103,o),
(80,247,cs),
(80,390,o),
(170,485,o),
(300,485,cs),
(429,485,o),
(519,390,o),
(519,247,cs),
(519,103,o),
(429,8,o),
(300,8,cs)
);
}
);
vertWidth = 1000;
width = 638;
}
);
note = cid25743;
unicode = 287;
}
{
glyphname = Gcommaaccent;
layers = (
{
hints = (
{
horizontal = 1;
place = (-169, 71);
place = (-169, 71);
type = Stem;
},
{
horizontal = 1;
place = (-28, 34);
place = (-28, 34);
type = Stem;
},
{
horizontal = 1;
place = (331, 33);
place = (331, 33);
type = Stem;
},
{
horizontal = 1;
place = (742, 34);
place = (742, 34);
type = Stem;
},
{
place = (63, 35);
place = (63, 35);
type = Stem;
},
{
place = (391, 74);
place = (391, 74);
type = Stem;
},
{
place = (725, 35);
place = (725, 35);
type = Stem;
}
);
layerId = m01;
shapes = (
{
closed = 1;
nodes = (
(725,331,l),
(725,309,ls),
(725,122,o),
(611,6,o),
(424,6,cs),
(213,6,o),
(98,163,o),
(98,374,cs),
(98,584,o),
(213,742,o),
(424,742,cs),
(565,742,o),
(652,679,o),
(703,563,cs),
(705,559,o),
(709,557,o),
(713,559,cs),
(730,565,ls),
(735,567,o),
(737,571,o),
(735,576,cs),
(683,702,o),
(577,776,o),
(424,776,cs),
(210,776,o),
(63,622,o),
(63,374,cs),
(63,126,o),
(210,-28,o),
(424,-28,cs),
(645,-28,o),
(760,118,o),
(760,311,cs),
(760,355,ls),
(760,360,o),
(756,364,o),
(751,364,cs),
(444,364,ls),
(439,364,o),
(436,360,o),
(436,355,cs),
(436,339,ls),
(436,334,o),
(439,331,o),
(444,331,cs)
);
},
{
closed = 1;
nodes = (
(382,-279,l),
(405,-279,l),
(451,-182,ls),
(460,-162,o),
(465,-151,o),
(465,-134,cs),
(465,-113,o),
(449,-98,o),
(428,-98,cs),
(408,-98,o),
(391,-113,o),
(391,-134,cs),
(391,-153,o),
(405,-166,o),
(425,-169,c)
);
}
);
vertWidth = 1000;
width = 823;
}
);
note = cid25746;
unicode = 290;
}
{
glyphname = gcommaaccent;
layers = (
{
hints = (
{
horizontal = 1;
place = (-254, 32);
place = (-254, 32);
type = Stem;
},
{
horizontal = 1;
place = (-24, 32);
place = (-24, 32);
type = Stem;
},
{
horizontal = 1;
place = (485, 32);
place = (485, 32);
type = Stem;
},
{
horizontal = 1;
place = (772, -20);
target = down;
type = TopGhost;
},
{
place = (47, 33);
place = (47, 33);
type = Stem;
},
{
place = (514, 31);
place = (514, 31);
type = Stem;
},
{
horizontal = 1;
place = (506, -20);
target = down;
type = TopGhost;
},
{
horizontal = 1;
place = (591, 71);
place = (591, 71);
type = Stem;
},
{
place = (280, 74);
place = (280, 74);
type = Stem;
},
{
place = (519, 26);
place = (519, 26);
type = Stem;
}
);
layerId = m01;
shapes = (
{
closed = 1;
nodes = (
(514,382,l),
(482,463,o),
(395,517,o),
(302,517,cs),
(147,517,o),
(47,403,o),
(47,247,cs),
(47,90,o),
(147,-24,o),
(302,-24,cs),
(395,-24,o),
(481,29,o),
(514,110,c),
(514,-30,ls),
(514,-179,o),
(409,-222,o),
(308,-222,cs),
(204,-222,o),
(146,-175,o),
(115,-102,cs),
(113,-97,o),
(110,-95,o),
(104,-97,cs),
(91,-103,l),
(84,-105,o),
(84,-108,o),
(87,-113,c),
(121,-204,o),
(196,-254,o),
(308,-254,cs),
(430,-254,o),
(545,-198,o),
(545,-27,cs),
(545,498,ls),
(545,503,o),
(542,506,o),
(537,506,cs),
(528,506,ls),
(522,506,o),
(519,504,o),
(519,498,cs)
);
},
{
closed = 1;
nodes = (
(170,8,o),
(80,103,o),
(80,247,cs),
(80,390,o),
(170,485,o),
(300,485,cs),
(429,485,o),
(519,390,o),
(519,247,cs),
(519,103,o),
(429,8,o),
(300,8,cs)
);
},
{
closed = 1;
nodes = (
(363,772,l),
(340,772,l),
(294,675,ls),
(285,655,o),
(280,644,o),
(280,627,cs),
(280,606,o),
(296,591,o),
(317,591,cs),
(337,591,o),
(354,606,o),
(354,627,cs),
(354,646,o),
(340,659,o),
(320,662,c)
);
}
);
vertWidth = 1000;
width = 638;
}
);
note = cid25747;
unicode = 291;
}
{
glyphname = Hbar;
layers = (
{
hints = (
{
horizontal = 1;
place = (-13, 21);
target = up;
type = BottomGhost;
},
{
horizontal = 1;
place = (371, 33);
place = (371, 33);
type = Stem;
},
{
horizontal = 1;
place = (584, 31);
place = (584, 31);
type = Stem;
},
{
place = (106, 33);
place = (106, 33);
type = Stem;
},
{
place = (641, 34);
place = (641, 34);
type = Stem;
},
{
horizontal = 1;
place = (584, 177);
place = (584, 177);
type = Stem;
}
);
layerId = m01;
shapes = (
{
closed = 1;
nodes = (
(139,371,l),
(641,371,l),
(641,-5,ls),
(641,-10,o),
(645,-13,o),
(650,-13,cs),
(667,-13,ls),
(672,-13,o),
(675,-10,o),
(675,-5,cs),
(675,584,l),
(764,584,ls),
(769,584,o),
(772,587,o),
(772,592,cs),
(772,607,ls),
(772,612,o),
(769,615,o),
(764,615,cs),
(675,615,l),
(675,753,ls),
(675,758,o),
(672,761,o),
(667,761,cs),
(650,761,ls),
(645,761,o),
(641,758,o),
(641,753,cs),
(641,615,l),
(139,615,l),
(139,753,ls),
(139,758,o),
(136,761,o),
(131,761,cs),
(114,761,ls),
(109,761,o),
(106,758,o),
(106,753,cs),
(106,615,l),
(18,615,ls),
(13,615,o),
(10,612,o),
(10,607,cs),
(10,592,ls),
(10,587,o),
(13,584,o),
(18,584,cs),
(106,584,l),
(106,-5,ls),
(106,-10,o),
(109,-13,o),
(114,-13,cs),
(131,-13,ls),
(136,-13,o),
(139,-10,o),
(139,-5,cs)
);
},
{
closed = 1;
nodes = (
(641,584,l),
(641,404,l),
(139,404,l),
(139,584,l)
);
}
);
vertWidth = 1000;
width = 781;
}
);
note = cid25748;
unicode = 294;
}
{
glyphname = hbar;
layers = (
{
hints = (
{
horizontal = 1;
place = (-13, 21);
target = up;
type = BottomGhost;
},
{
horizontal = 1;
place = (485, 32);
place = (485, 32);
type = Stem;
},
{
horizontal = 1;
place = (624, 31);
place = (624, 31);
type = Stem;
},
{
place = (93, 31);
place = (93, 31);
type = Stem;
},
{
place = (479, 32);
place = (479, 32);
type = Stem;
}
);
layerId = m01;
shapes = (
{
closed = 1;
nodes = (
(93,655,l),
(18,655,ls),
(13,655,o),
(10,652,o),
(10,647,cs),
(10,632,ls),
(10,627,o),
(13,624,o),
(18,624,cs),
(93,624,l),
(93,-5,ls),
(93,-10,o),
(96,-13,o),
(101,-13,cs),
(116,-13,ls),
(121,-13,o),
(124,-10,o),
(124,-5,cs),
(124,272,ls),
(124,421,o),
(241,485,o),
(325,485,cs),
(430,485,o),
(479,423,o),
(479,309,cs),
(479,-5,ls),
(479,-10,o),
(482,-13,o),
(487,-13,cs),
(502,-13,ls),
(507,-13,o),
(511,-10,o),
(511,-5,cs),
(511,324,ls),
(511,444,o),
(442,517,o),
(328,517,cs),
(251,517,o),
(160,473,o),
(124,386,c),
(124,624,l),
(294,624,ls),
(299,624,o),
(302,627,o),
(302,632,cs),
(302,647,ls),
(302,652,o),
(299,655,o),
(294,655,cs),
(124,655,l),
(124,770,ls),
(124,775,o),
(121,778,o),
(116,778,cs),
(101,778,ls),
(96,778,o),
(93,775,o),
(93,770,cs)
);
}
);
vertWidth = 1000;
width = 600;
}
);
note = cid25749;
unicode = 295;
}
{
glyphname = Imacron;
layers = (
{
hints = (
{
horizontal = 1;
place = (-13, 21);
target = up;
type = BottomGhost;
},
{
horizontal = 1;
place = (761, -20);
target = down;
type = TopGhost;
},
{
horizontal = 1;
place = (899, 31);
place = (899, 31);
type = Stem;
},
{
place = (106, 33);
place = (106, 33);
type = Stem;
}
);
layerId = m01;
shapes = (
{
closed = 1;
nodes = (
(106,-5,ls),
(106,-10,o),
(109,-13,o),
(114,-13,cs),
(131,-13,ls),
(136,-13,o),
(139,-10,o),
(139,-5,cs),
(139,753,ls),
(139,758,o),
(136,761,o),
(131,761,cs),
(114,761,ls),
(109,761,o),
(106,758,o),
(106,753,cs)
);
},
{
closed = 1;
nodes = (
(10,930,ls),
(5,930,o),
(2,927,o),
(2,922,cs),
(2,907,ls),
(2,902,o),
(5,899,o),
(10,899,cs),
(236,899,ls),
(241,899,o),
(244,902,o),
(244,907,cs),
(244,922,ls),
(244,927,o),
(241,930,o),
(236,930,cs)
);
}
);
vertWidth = 1000;
width = 245;
}
);
note = cid25750;
unicode = 298;
}
{
glyphname = imacron;
layers = (
{
hints = (
{
horizontal = 1;
place = (-13, 21);
target = up;
type = BottomGhost;
},
{
horizontal = 1;
place = (506, -20);
target = down;
type = TopGhost;
},
{
horizontal = 1;
place = (644, 31);
place = (644, 31);
type = Stem;
},
{
place = (93, 31);
place = (93, 31);
type = Stem;
}
);
layerId = m01;
shapes = (
{
closed = 1;
nodes = (
(93,-5,ls),
(93,-10,o),
(96,-13,o),
(101,-13,cs),
(116,-13,ls),
(121,-13,o),
(124,-10,o),
(124,-5,cs),
(124,498,ls),
(124,503,o),
(121,506,o),
(116,506,cs),
(101,506,ls),
(96,506,o),
(93,503,o),
(93,498,cs)
);
},
{
closed = 1;
nodes = (
(-5,675,ls),
(-10,675,o),
(-13,672,o),
(-13,667,cs),
(-13,652,ls),
(-13,647,o),
(-10,644,o),
(-5,644,cs),
(221,644,ls),
(226,644,o),
(229,647,o),
(229,652,cs),
(229,667,ls),
(229,672,o),
(226,675,o),
(221,675,cs)
);
}
);
vertWidth = 1000;
width = 217;
}
);
note = cid25751;
unicode = 299;
}
{
glyphname = Iogonek;
layers = (
{
hints = (
{
horizontal = 1;
place = (-184, 30);
place = (-184, 30);
type = Stem;
},
{
horizontal = 1;
place = (-13, 21);
target = up;
type = BottomGhost;
},
{
horizontal = 1;
place = (761, -20);
target = down;
type = TopGhost;
},
{
place = (37, 35);
place = (37, 35);
type = Stem;
},
{
place = (106, 33);
place = (106, 33);
type = Stem;
}
);
layerId = m01;
shapes = (
{
closed = 1;
nodes = (
(106,0,l),
(69,-19,o),
(37,-65,o),
(37,-102,cs),
(37,-138,o),
(66,-184,o),
(142,-184,cs),
(155,-184,o),
(211,-183,o),
(211,-163,cs),
(211,-150,ls),
(211,-145,o),
(209,-143,o),
(204,-145,cs),
(186,-151,o),
(164,-154,o),
(149,-154,cs),
(105,-154,o),
(72,-136,o),
(72,-100,cs),
(72,-74,o),
(87,-38,o),
(128,-13,c),
(131,-13,ls),
(136,-13,o),
(139,-10,o),
(139,-5,cs),
(139,753,ls),
(139,758,o),
(136,761,o),
(131,761,cs),
(114,761,ls),
(109,761,o),
(106,758,o),
(106,753,cs)
);
}
);
vertWidth = 1000;
width = 245;
}
);
note = cid25752;
unicode = 302;
}
{
glyphname = iogonek;
layers = (
{
hints = (
{
horizontal = 1;
place = (-184, 30);
place = (-184, 30);
type = Stem;
},
{
horizontal = 1;
place = (-13, 21);
target = up;
type = BottomGhost;
},
{
horizontal = 1;
place = (506, -20);
target = down;
type = TopGhost;
},
{
place = (22, 35);
place = (22, 35);
type = Stem;
},
{
place = (93, 31);
place = (93, 31);
type = Stem;
},
{
horizontal = 1;
place = (650, 62);
place = (650, 62);
type = Stem;
},
{
place = (77, 63);
place = (77, 63);
type = Stem;
}
);
layerId = m01;
shapes = (
{
closed = 1;
nodes = (
(93,1,l),
(55,-18,o),
(22,-65,o),
(22,-102,cs),
(22,-138,o),
(51,-184,o),
(127,-184,cs),
(140,-184,o),
(196,-183,o),
(196,-163,cs),
(196,-150,ls),
(196,-145,o),
(194,-143,o),
(189,-145,cs),
(171,-151,o),
(149,-154,o),
(134,-154,cs),
(90,-154,o),
(57,-136,o),
(57,-100,cs),
(57,-74,o),
(72,-38,o),
(113,-13,c),
(116,-13,ls),
(121,-13,o),
(124,-10,o),
(124,-5,cs),
(124,498,ls),
(124,503,o),
(121,506,o),
(116,506,cs),
(101,506,ls),
(96,506,o),
(93,503,o),
(93,498,cs)
);
},
{
closed = 1;
nodes = (
(77,662,o),
(91,650,o),
(109,650,cs),
(127,650,o),
(140,662,o),
(140,681,cs),
(140,699,o),
(127,712,o),
(109,712,cs),
(91,712,o),
(77,699,o),
(77,681,cs)
);
}
);
vertWidth = 1000;
width = 217;
}
);
note = cid25753;
unicode = 303;
}
